<?xml version="1.0" standalone="no"?>
<!DOCTYPE svg PUBLIC "-//W3C//DTD SVG 1.1//EN" "http://www.w3.org/Graphics/SVG/1.1/DTD/svg11.dtd" >
<svg xmlns="http://www.w3.org/2000/svg">
<metadata>
This is a custom SVG webfont generated by Font Squirrel.
Copyright   : Copyright c 2009 by Jonahfonts All rights reserved
Designer    : John Nahmias
Foundry     : Jonahfonts
</metadata>
<defs>
<font id="PonyTaleLight" horiz-adv-x="960" >
<font-face units-per-em="2048" ascent="1536" descent="-512" />
<missing-glyph horiz-adv-x="450" />
<glyph unicode=" "  horiz-adv-x="450" />
<glyph unicode="&#x09;" horiz-adv-x="450" />
<glyph unicode="&#xa0;" horiz-adv-x="450" />
<glyph unicode="!" horiz-adv-x="649" d="M264 -20q0 55 33 97t68 42q25 0 39 -23.5t14 -56.5q0 -47 -26.5 -96t-69.5 -49q-58 0 -58 86zM322 348q111 909 137 1016l-2 -2q8 25 43 24q39 0 72.5 -21.5t33.5 -41.5v-6q-29 -57 -66.5 -205.5t-52.5 -241.5l-20 -145q-4 -25 -12 -80l-14 -91q-5 -36 -9 -90t-4 -104 q-6 -39 -74 -38q-18 0 -24 5t-8 21zM606 1311l2 10q-2 -2 -2 -4v-6z" />
<glyph unicode="&#x22;" horiz-adv-x="661" d="M119 1038q0 2 8 23q82 170 100 369q14 45 80 45q57 0 58 -39q0 -4 -1.5 -8.5t-1.5 -6.5l-100 -252l-25 -57l-25 -56q-9 -22 -11 -32l2 2q-6 -12 -31 -12q-20 0 -36.5 7t-16.5 17zM362 1421l3 6q-3 -2 -3 -6zM414 1038q0 2 2 5.5t4 8.5t4 9q86 174 98 369q6 18 29.5 31.5 t50.5 13.5q57 0 57 -39q0 -4 -1 -8.5t-1 -6.5l-98 -252q-49 -111 -61 -145l2 2q-6 -12 -33 -12q-18 0 -35.5 8t-17.5 16zM657 1421l2 6q-2 -2 -2 -6z" />
<glyph unicode="#" horiz-adv-x="1353" d="M8 451q0 29 13.5 53t33.5 28q49 -8 90 -8q23 0 67 3t50 3l86 5q96 328 109 360q-238 -23 -307 -33q-41 6 -41 45q0 33 16 57.5t45 30.5q66 0 319 4q6 23 72 201q82 229 86 246l-2 -2q25 53 82 53q51 0 51 -51q0 -12 -27 -79l-79 -184l-76 -179q319 16 371 20l90 262 l29 86l26 74l-2 -2q25 53 82 53q51 0 51 -45q0 -14 -6 -31h2q-66 -141 -162 -387q207 18 252 27q41 -4 41 -45q0 -33 -16.5 -58.5t-44.5 -27.5q-205 0 -275 -4q-51 -133 -114 -355q98 8 245 17h9q31 -12 30 -35q0 -33 -19.5 -62.5t-41.5 -33.5q-57 6 -248 6 q-45 -176 -45 -283q0 -70 18 -123l21 -53q0 -23 -21.5 -53.5t-54.5 -30.5q-39 0 -60.5 60.5t-21.5 150.5q0 49 60 332q-137 -4 -369 -23q-33 -184 -33 -247q0 -76 27 -156h-2q8 -33 8 -35q0 -20 -20.5 -51t-53.5 -31q-37 0 -59.5 56.5t-22.5 148.5q0 80 49 307l-282 -31 q-25 11 -25 50zM446 539q334 25 371 26q41 137 115 357q-274 -10 -371 -19q-58 -143 -115 -364z" />
<glyph unicode="$" horiz-adv-x="1071" d="M37 244q0 27 15.5 41t33.5 14q51 0 92 -23q8 -33 68.5 -72.5t152.5 -45.5q20 152 80 542l-84 45l-33 17q-29 14 -40 22l-39 26q-27 17 -40 34l-30 38q-16 22 -23.5 48t-7.5 57q0 121 137 238l9 6h-2q104 94 290 151q53 188 72 220q23 35 64 34q27 0 44 -21.5t19 -49.5 q0 -2 -5 -15.5t-18 -51.5l-30 -83h45q6 0 14 1t13 1q94 0 155.5 -29.5t61.5 -74.5q0 -33 -30 -50.5t-60 -17.5q-14 0 -19 4q-82 41 -166 41q-4 0 -11 -1t-9 -1h-35q-53 -170 -119 -477l57 -35q61 -37 98.5 -62.5t87.5 -69.5t74.5 -93t24.5 -105q0 -141 -158 -253 q-125 -90 -272 -136l-4 -77.5t-2 -64.5t-2 -48.5t-6 -36.5t-12.5 -23.5t-20.5 -15.5t-33 -4q-27 0 -48 23.5t-26 54.5q18 59 21 176q-147 2 -245.5 68.5t-98.5 134.5zM293 1004q0 -41 48 -78t110 -56l-2 2l57 -24q14 139 80 407q-100 -39 -193.5 -107.5t-99.5 -141.5v-2z M522 176q96 29 199.5 99.5t109.5 148.5q0 39 -16 70.5t-56 59.5t-62.5 41t-73.5 38h2l-50 22q-30 -241 -53 -479z" />
<glyph unicode="%" horiz-adv-x="1339" d="M96 999q0 117 65.5 252t143.5 220t123 85q33 0 33 -73v-13q49 16 71 17q70 0 98.5 -50.5t28.5 -109.5q0 -90 -54 -211t-149.5 -214t-191.5 -93q-82 0 -125 56t-43 134zM195 -84q0 104 118.5 331.5t259.5 450.5q373 596 486 797q10 20 16 26.5t21 6.5q18 0 30.5 -18.5 t12.5 -36.5q0 -27 -15 -56q-76 -139 -235.5 -370.5t-222.5 -333.5q-127 -209 -253 -466t-132 -339q-23 -74 -58 -74q-20 0 -24 13.5t-4 68.5zM203 1044q0 -51 27.5 -80.5t70.5 -29.5q90 0 171 123t81 223q0 84 -45 84q-10 0 -21.5 -4t-18.5 -8t-9 -4q-16 0 -17 38 q0 25 11 44q-96 -55 -173 -174.5t-77 -211.5zM713 150q0 92 45 207.5t106 201.5q49 61 103.5 105.5t76.5 44.5q33 0 33 -86q49 16 72 16q70 0 98.5 -51t28.5 -111q0 -94 -47 -212t-141.5 -212t-204.5 -94q-82 0 -126 57.5t-44 133.5zM819 197q0 -53 27.5 -83t71.5 -30 q86 0 168.5 125t82.5 223q0 84 -47 84q-10 0 -20 -4t-17.5 -8t-9.5 -4q-18 0 -18 41q0 23 10 41q-96 -55 -172 -174t-76 -211z" />
<glyph unicode="&#x26;" horiz-adv-x="1196" d="M16 152q0 156 135.5 315.5t311.5 165.5l-35 59q-104 174 -131 277q-16 68 -16 131q0 166 115.5 266t293.5 100q137 0 241.5 -83t104.5 -218q0 -141 -70.5 -231t-127.5 -90q-31 0 -46.5 20.5t-15.5 44.5q0 57 31 72q102 63 102 199q0 86 -66.5 130t-158.5 44 q-115 0 -199 -59.5t-84 -176.5q0 -162 168 -424q63 -100 340 -391q63 88 102.5 178t50.5 137.5t30.5 78t54.5 30.5q27 0 47 -21.5t20 -64.5q0 -49 -55 -175t-149 -247q53 -41 105 -74.5t81 -49.5l52 -28q24 -13 33 -23.5t9 -25.5q0 -31 -19.5 -64.5t-45.5 -33.5 q-25 0 -119 68.5t-178 142.5q-246 -246 -568 -246q-47 0 -97 10.5t-110.5 36t-98.5 82t-38 138.5zM137 152q0 -84 66.5 -121t165.5 -37q94 0 229 50t246 173l-213 215l-99 111l-30 47q-10 -70 -31 -78l2 2q-29 -8 -64.5 -25.5t-86 -51.5t-90 -72.5t-67.5 -95t-28 -117.5z " />
<glyph unicode="'" horiz-adv-x="342" d="M121 1038q0 2 8 23q33 66 63.5 170t36.5 199q14 45 80 45q57 0 58 -39q0 -4 -1 -8.5t-1 -6.5l-101 -252l-25 -57l-25 -56q-9 -22 -11 -32l2 2q-6 -12 -31 -12q-20 0 -36.5 7t-16.5 17zM365 1421l2 6q-2 -2 -2 -6z" />
<glyph unicode="(" horiz-adv-x="792" d="M57 301q0 401 170 784q63 143 154.5 272.5t161.5 196.5q45 45 90 45q25 0 41 -15t16 -40q0 -51 -45 -90h-2q-193 -186 -305 -420q-172 -350 -172 -708q0 -207 57 -381q51 -156 128 -273.5t126 -173t49 -78t-17 -40t-42 -17.5q-94 0 -229 234q-181 301 -181 704z" />
<glyph unicode=")" horiz-adv-x="751" d="M119 -575.5q0 24.5 34.5 58.5t84 76t119 136t126.5 219q115 250 115 547q0 285 -92 551q-86 246 -254 450q-37 39 -37 82q0 29 16.5 45.5t40.5 16.5q51 0 97 -56q57 -74 130.5 -212t121.5 -291q86 -287 86 -578q0 -549 -277 -899q-158 -203 -250 -203q-27 0 -44 16.5 t-17 41z" />
<glyph unicode="*" horiz-adv-x="1024" d="M147 1104q0 29 19 35h-2q98 10 303 18l-76 86q-141 162 -147 184q0 20 21.5 39t45.5 19q10 0 21 -10l-2 6q29 -72 217 -310l69 117l8 15q5 10 7 12q20 35 45.5 90t42 79.5t35.5 24.5q23 0 42 -16t19 -33q0 -12 -96 -162l2 2l-90 -135q170 8 270 23q23 -8 23 -49 q0 -43 -21 -54q-63 8 -293 9q186 -225 187 -252q0 -18 -21.5 -32.5t-46.5 -14.5q-16 0 -20 10v-2q-31 66 -164 250q-37 -55 -90.5 -147.5l-86 -144.5t-46.5 -52q-23 0 -42.5 17t-19.5 38q0 14 121 180l104 143q-225 -20 -305 -49q-33 3 -33 66z" />
<glyph unicode="+" horiz-adv-x="1116" d="M121 670v10q4 63 33 72q20 -2 98 -2q162 0 291 6q4 29 15 100.5t19.5 134t12.5 107.5q2 25 2 59.5t1 49t5 34t12 27.5t24.5 13t41.5 5q63 0 65 -45q-2 -16 -8 -49t-8 -45q-23 -145 -29 -168l-43 -217q225 20 359 43q31 -10 30 -57q0 -74 -34 -89q-20 2 -103 3 q-152 0 -276 -7q-43 -242 -60 -424q-2 -12 -2 -36v-25q-6 -45 -73 -45q-25 0 -46.5 13.5t-25.5 31.5l100 479q-223 -18 -370 -43q-31 13 -31 64z" />
<glyph unicode="," horiz-adv-x="374" d="M8 -291q2 2 2 4q29 53 65 167t42 218q6 18 30.5 30.5t49.5 12.5q23 0 39 -13t16 -34l-14 -39l-146 -364v2q-6 -12 -29 -12q-8 0 -24 4h2q-33 6 -33 24z" />
<glyph unicode="-" horiz-adv-x="831" d="M94 506v6q4 55 23 59q2 0 8 -1t10 -1q305 0 588 52q16 -16 16 -52q0 -51 -22 -73q-14 2 -70 2q-240 0 -534 -49q-19 14 -19 57zM113 573q2 -2 4 -2v2h-4z" />
<glyph unicode="." horiz-adv-x="360" d="M111 -27q0 59 32.5 101.5t69.5 42.5h8h-2q47 -10 47 -80q0 -20 -6 -45q-12 -43 -38.5 -72t-55.5 -29q-55 0 -55 82z" />
<glyph unicode="/" horiz-adv-x="1196" d="M164 -248q0 106 130 377.5t257 474.5q369 592 547 912l8 12q16 27 31 26q35 0 56 -26.5t21 -67.5q0 -27 -10 -43q-80 -150 -280 -445l-236 -349q-117 -190 -259 -501.5t-146 -397.5q-10 -37 -24.5 -54.5t-41.5 -17.5q-20 0 -36.5 26.5t-16.5 73.5z" />
<glyph unicode="0" horiz-adv-x="1355" d="M45 401q0 131 32 276.5t68 240.5q78 205 160 325q72 106 152 181t121 75q63 0 63 -65q0 -35 -29 -54h2q-113 -47 -218 -204.5t-154 -290.5h2q-78 -221 -78 -398q0 -86 15.5 -158.5t53 -142t111.5 -109.5t178 -40q137 0 273.5 83t220.5 206q201 297 201 655q0 158 -54 256 q-37 63 -97 96t-114 33q-55 0 -124.5 -27.5t-124.5 -83.5q-37 -37 -68 -87t-44 -84.5t-30.5 -59.5t-38.5 -25q-33 0 -58.5 18.5t-25.5 45.5q0 12 23.5 50t73 98.5t104.5 111.5q78 72 168 108.5t158 36.5q100 0 173.5 -45t111.5 -105.5t60.5 -144t28 -138t5.5 -109.5 q0 -203 -107 -432q-51 -113 -130 -218.5t-142 -156.5q-238 -197 -457 -197q-113 0 -200 33t-135 81t-78.5 115.5t-41 127t-10.5 122.5z" />
<glyph unicode="1" horiz-adv-x="780" d="M86 14q0 37 29 43l159 33q18 344 154 963l43 215q-57 -39 -65 -47l-19 -15h2q-158 -141 -188 -155q-6 -4 -19 -4q-25 0 -49 19t-24 39.5t24 35.5q98 55 217 151.5t185 165.5q14 -4 43 -28q55 -10 55 -72q-35 -102 -95.5 -323.5t-76.5 -321.5q-53 -315 -53 -516 q0 -41 4 -82q84 14 168 14q45 0 45 -51q0 -37 -37 -41q-199 -16 -447 -94q-4 -2 -10 -2q-18 0 -31.5 25t-13.5 48z" />
<glyph unicode="2" horiz-adv-x="1107" d="M39 -4q0 25 22 35l72 45q356 227 526 397q324 322 324 666q0 109 -50 176t-159 67q-135 0 -297 -111.5t-180 -246.5q-4 -61 -24.5 -105.5t-53.5 -44.5q-25 0 -43 32t-18 87q0 117 98 236t240.5 191.5t267.5 72.5q92 0 159.5 -34t100.5 -89t48 -110.5t15 -114.5 q0 -213 -108 -424q-145 -285 -586 -637l92 4q16 0 154.5 8t200.5 8q55 0 74.5 -8t19.5 -41q0 -70 -37 -94q-111 29 -311 29q-152 0 -303 -37q-16 -4 -95 -31.5t-92 -27.5q-20 0 -38.5 33.5t-18.5 68.5z" />
<glyph unicode="3" horiz-adv-x="1110" d="M23 119q0 100 73 100q72 0 72 -76q0 -4 -3 -17t-3 -26q0 -59 27.5 -86.5t99.5 -27.5q123 0 289.5 77.5t287.5 191.5t121 204q0 43 -47 73.5t-122 45t-142.5 20.5t-132.5 6q-47 0 -105.5 -3t-66.5 -3q-117 0 -117 119q2 20 82 78l165 115q65 46 174 133t167.5 157 t58.5 115q0 59 -104 59q-158 0 -314.5 -97t-193.5 -167q-35 -35 -96 -35q-41 0 -41 51q0 23 18 64q61 98 247.5 195.5t360.5 97.5q86 0 154.5 -42t68.5 -120t-102 -196.5t-186 -188.5l-238 -188l-29 -23q328 -6 455 -49q74 -25 134.5 -78t60.5 -135q0 -127 -130 -268.5 t-322.5 -235.5t-364.5 -94q-68 0 -118 21.5t-76 51t-41 68.5t-18 64.5t-3 48.5z" />
<glyph unicode="4" horiz-adv-x="1200" d="M31 444.5q0 14.5 21 35.5l74 73q52 51 101 117q123 162 221.5 396t141.5 409l-2 -2q12 29 57 28q35 0 57.5 -16.5t22.5 -40.5q0 -55 -86 -241.5t-160 -325.5q-154 -281 -274 -433q246 -41 434 -41q102 0 219 15q35 127 57 233q53 262 54 531q0 29 -2 68.5t-2 47.5 q0 29 24.5 43.5t57.5 14.5q53 0 59 -56q-12 -172 -31 -325q-14 -117 -59 -342l-41 -199l94 21q102 23 115 22q25 0 42 -23.5t17 -56.5q0 -43 -40 -56t-134 -17h-18l-105 -7q-49 -180 -104.5 -303t-98.5 -123q-29 0 -52 25t-23 53q0 8 19.5 46t58 120t75.5 172 q-115 -4 -272.5 -4t-392.5 19q-63 4 -89 16t-26 55v10q-10 27 -10 41.5z" />
<glyph unicode="5" horiz-adv-x="1110" d="M18 188q0 47 18.5 61.5t49.5 14.5t51.5 -21.5t20.5 -62.5t3 -63.5t15 -46t40 -33.5t75 -10q147 0 315 96t252 188q109 119 109 195q0 45 -53.5 78.5t-135.5 49t-154.5 22t-140.5 6.5q-106 0 -157 -7q-96 6 -125 123q0 2 3 7.5t10 15.5t13 20q90 162 140 318l49 143l-2 12 q-20 47 -21 101q0 29 19.5 39t70.5 10l17 35l-2 -2q6 8 20 8q29 0 72 -31q305 25 547 25h49q29 -4 28 -29q0 -63 -92 -64q-272 0 -563 -81q-55 -104 -85 -178t-58.5 -169.5t-53.5 -160.5q295 0 484 -60h-2q231 -78 231 -231q0 -117 -133 -256l-10 -12 q-102 -109 -287.5 -220.5t-363.5 -111.5q-72 0 -124.5 24.5t-78 57t-39.5 78t-17.5 70.5t-3.5 52z" />
<glyph unicode="6" horiz-adv-x="1187" d="M72 199q0 262 303 704q123 180 276 354v-2l33 35l107 118l82 87q46 47 75 65.5t49 18.5q27 0 47.5 -20.5t20.5 -47.5q0 -29 -35 -61h2q-127 -96 -295 -270q-190 -197 -282 -334q-90 -133 -171 -304t-81 -309q0 -123 52 -174t181 -51q180 0 346 87t226 188q59 102 59 198 q0 211 -272 211q-86 0 -159 -21.5t-77 -21.5q-29 0 -53.5 16.5t-24.5 43.5q0 53 74 81.5t201 28.5q170 0 293 -71q57 -43 92 -114t35 -140q0 -133 -84 -267q-84 -135 -281 -239.5t-395 -104.5q-201 0 -272.5 81t-71.5 235z" />
<glyph unicode="7" horiz-adv-x="1011" d="M18 1333q0 20 17 33q244 66 528 84l123 8q39 4 94.5 18.5t94 27t43.5 12.5q37 0 58 -27t21 -59q0 -29 -18 -44q-125 -104 -258 -260q-160 -199 -248 -525.5t-88 -582.5v-30q-10 -66 -70 -66q-70 0 -75 58q12 135 44.5 298.5t94 364.5t171 393.5t247.5 319.5 q-358 0 -523 -47l-129 -49q-49 -25 -59 -25q-23 0 -45.5 32.5t-22.5 65.5z" />
<glyph unicode="8" horiz-adv-x="1185" d="M29 236q0 145 88 255.5t264 229.5q-6 6 -55 47q-145 109 -146 236q0 170 158 304t340 134q147 0 147 -68q0 -23 -20.5 -55.5t-42.5 -32.5q-4 0 -12 4q-37 20 -111 21q-117 0 -233.5 -87t-116.5 -206q0 -82 89 -149.5t175 -67.5q84 0 202.5 76.5t210 194.5t91.5 218 q0 45 -12.5 58.5t-51.5 13.5q-45 0 -65.5 15.5t-20.5 66.5q0 49 70 49h8q39 0 82 -14v2q47 -18 75.5 -66.5t28.5 -103.5q0 -141 -102 -265t-274 -260l112 -30q29 -10 67 -29.5t90 -57.5t87 -97.5t35 -127.5q0 -121 -109 -233q-123 -129 -293 -197.5t-358 -68.5q-37 0 -75 4 t-100.5 20.5t-107.5 45t-79.5 86t-34.5 135.5zM143 229q0 -178 291 -178q84 0 187.5 23.5t203 67.5t169 120t77.5 168v12q0 109 -124 178.5t-265 69.5q-72 0 -113 -14q-57 -23 -121.5 -57.5t-137 -90t-120 -134.5t-47.5 -165z" />
<glyph unicode="9" horiz-adv-x="1171" d="M29 772q0 293 240.5 508t551.5 215q158 0 252 -86t94 -244q0 -383 -499 -964q-258 -299 -316 -299q-29 0 -49 23.5t-20 50t26 53.5l35 30q166 143 240 220v-3q176 186 314 414t138 426q0 143 -41 197.5t-198 54.5q-160 0 -309.5 -70.5t-250 -208t-100.5 -303.5 q0 -117 65.5 -169t192.5 -52q78 0 155 35t85 35q27 0 51.5 -21.5t26.5 -52.5q0 -45 -80 -85t-207 -40q-174 0 -285.5 83t-111.5 253z" />
<glyph unicode=":" horiz-adv-x="374" d="M111 -27q0 59 32.5 101.5t69.5 42.5h8h-2q45 -10 45 -78q0 -23 -6 -47q-10 -43 -37.5 -72t-54.5 -29q-25 0 -40 23.5t-15 58.5zM166 475q0 59 32.5 101t69.5 42h8h-2q45 -10 45 -77q0 -23 -6 -47q-10 -43 -37.5 -72t-54.5 -29q-25 0 -40 23.5t-15 58.5z" />
<glyph unicode=";" horiz-adv-x="374" d="M8 -291q2 2 2 4q29 53 64 166t43 219q16 51 78 52q23 0 40 -12.5t17 -35.5v-10v2l-16 -39q-14 -31 -37 -96t-37 -96h2l-72 -172v2q-6 -12 -31 -12q-8 0 -24 4h2q-31 6 -31 24zM162 475q0 59 32.5 101t69.5 42h8h-2q47 -10 47 -79q0 -20 -6 -45q-12 -43 -38.5 -72 t-55.5 -29q-55 0 -55 82z" />
<glyph unicode="&#x3c;" horiz-adv-x="856" d="M131 705q0 31 12.5 60.5t30.5 37.5v-4q84 20 264 106t244 131q41 -16 41 -71q0 -20 -16 -41q-299 -111 -463 -222q98 -61 344 -151l45 -16q29 -10 38 -14.5t22.5 -12.5t17.5 -17.5t4 -23.5q0 -76 -33 -90q-10 4 -136 66.5t-219.5 103.5t-152.5 59q-43 21 -43 99z" />
<glyph unicode="=" horiz-adv-x="1093" d="M96 553v12q10 59 37 66h4q4 -2 6 -2t11.5 1t15.5 1q37 0 99.5 -3t88.5 -3q78 0 266.5 7t323.5 7q16 -6 17 -33q0 -35 -17.5 -70.5t-36.5 -39.5q-55 16 -239 24q-217 0 -555 -31q-21 9 -21 64zM131 633q0 -2 2 -2q0 2 2 2h-4zM145 848q0 16 2 24q8 59 35 68q10 -2 47 -2 t104.5 -3t96.5 -3q100 0 284.5 7t278.5 7q18 -10 19 -47q0 -33 -17.5 -62.5t-31.5 -33.5q-172 27 -271 26q-197 0 -477 -30q-6 0 -23.5 -2t-25.5 -2q-21 14 -21 53zM180 942l2 -2q2 0 2 1t2 1h-6z" />
<glyph unicode="&#x3e;" horiz-adv-x="856" d="M131 446q0 20 16 41q299 111 463 222q-102 59 -344 151q-14 6 -34.5 13.5t-31 10.5t-22.5 9t-18 10t-11.5 10.5t-7.5 13.5t-2 17q0 78 33 90q23 -6 57 -23l155 -74l294 -132q45 -18 45 -98q0 -31 -13.5 -60t-31.5 -37v2q-223 -86 -508 -237q-16 6 -27.5 29.5t-11.5 41.5z " />
<glyph unicode="?" horiz-adv-x="1165" d="M262 1008q0 133 78 232t184.5 143t218.5 44q160 0 249 -96t89 -239.5t-70.5 -278.5t-169 -221t-196.5 -137.5t-162 -51.5q-4 -16 -6 -69t-14 -77t-47 -24q-47 0 -47 31q0 2 1 6t1 9v-3q29 43 28 340q4 39 61.5 39t57.5 -39q0 -12 -14 -102q152 31 305.5 208t159.5 339 q4 113 -60.5 178.5t-165.5 65.5q-121 0 -226 -72t-105 -178q0 -27 8 -58.5t8 -35.5q-4 -35 -28.5 -65t-59.5 -30q-27 0 -52.5 35t-25.5 107zM301 -29q0 57 34 101.5t73 44.5q23 0 36 -21.5t13 -52.5q0 -10 -8 -51q-12 -43 -40 -72t-57 -29q-23 0 -37 22.5t-14 57.5z" />
<glyph unicode="@" horiz-adv-x="1902" d="M213 489q0 342 228.5 574.5t562.5 232.5q285 0 487 -178q229 -203 229 -471q0 -266 -127 -434q-131 -170 -284 -170q-109 0 -131 143q-147 -147 -299 -147q-135 0 -236.5 107.5t-101.5 261.5q0 193 116.5 338t298.5 145q158 0 289 -172l29 127q8 35 69 35q47 0 48 -25v-4 l-97 -502q0 -14 -8 -55t-8 -59q0 -84 63 -84q86 0 174.5 149.5t88.5 310.5q0 262 -171 414t-436 152q-289 0 -477 -196t-188 -493q0 -307 201.5 -498.5t500.5 -191.5q274 0 412 99q37 25 67 24q37 0 65 -20.5t28 -44.5q0 -20 -29 -37q-256 -139 -561 -139q-338 0 -570.5 230 t-232.5 578zM655 424q0 -121 64.5 -196.5t181.5 -75.5q152 0 227.5 115.5t75.5 260.5q0 113 -65.5 182.5t-169.5 69.5q-131 0 -222.5 -111.5t-91.5 -244.5z" />
<glyph unicode="A" horiz-adv-x="1259" d="M51 -51q0 14 6 41l-2 -2l54 114q59 129 131 271l-13 26q-41 8 -59 23.5t-18 48.5q0 35 27.5 54.5t53 24.5t78.5 11h-2l39 4q238 442 545 865q51 61 88 61q43 0 89 -29.5t48 -66.5q-2 -23 -16.5 -142.5t-24.5 -214t-19 -215.5t-9 -196h67q59 0 82 -8.5t23 -40.5 q0 -25 -19.5 -40.5t-40.5 -17.5q-6 0 -20.5 3t-27.5 4t-30 1h-34q8 -137 36.5 -242.5t58.5 -151.5l53 -80q24 -34 24 -48q0 -29 -24 -58.5t-54 -29.5q-25 0 -51 23q-72 90 -111 252.5t-45 328.5q-324 -23 -531 -88l-94 -232l-77 -185q-28 -65 -35 -93h2q-23 -49 -78 -49 q-70 0 -70 74zM485 588q170 31 449 39v35q0 76 7 194.5t18.5 269t15.5 217.5q-218 -249 -490 -755z" />
<glyph unicode="B" horiz-adv-x="1148" d="M41 -55q0 55 88 71q82 2 232.5 48.5t308 118t272.5 178t115 212.5q0 115 -146 115q-156 0 -335 -47t-191 -47q-27 0 -34 10t-7 37q0 8 2 15.5t3 12.5t7 11t7.5 9t10.5 8t11 6.5t13.5 8.5t13.5 7l-9 -2l11 4l6 2q221 96 397 254t176 295q0 41 -24.5 58.5t-85.5 17.5 q-248 0 -543 -131q66 -37 66 -70v-4q-33 -61 -90.5 -232.5t-73.5 -257.5v2q-41 -152 -41 -395q0 -111 4 -135q-8 -43 -62 -43q-72 0 -77 45q0 82 26 281q0 4 47 237l6 31q74 354 127 512q-102 -51 -116 -51q-31 0 -50.5 17t-19.5 44q0 45 59 80q104 59 305 118.5t394 59.5 q115 0 184 -45q66 -43 66 -139q0 -145 -340 -463q68 0 128 -8t128.5 -29.5t109.5 -69t41 -116.5q0 -84 -47 -162q-70 -121 -208 -225.5t-285.5 -167t-276.5 -97t-203 -34.5q-100 0 -100 45z" />
<glyph unicode="C" horiz-adv-x="1167" d="M80 322q0 152 59.5 340t157.5 358t244.5 284.5t302.5 114.5q123 0 225 -83t123 -199q4 -66 4 -74q0 -98 -29.5 -145.5t-62.5 -47.5q-35 0 -59.5 30t-24.5 67q0 6 4 26v-2l8 19q33 76 33 106q0 76 -56.5 129t-162.5 53q-133 0 -256 -109.5t-203 -271t-127 -340t-47 -323.5 q0 -135 70.5 -214t169.5 -79q215 0 360 139.5t227 341.5q23 53 60 54q23 0 36 -19.5t13 -50.5q0 -47 -16 -78q-119 -207 -301.5 -353.5t-411.5 -146.5q-68 0 -122 23t-89 57.5t-60.5 83.5t-38 92t-20.5 92.5t-9 75t-1 50.5z" />
<glyph unicode="D" horiz-adv-x="1363" d="M23 0q0 43 19 57.5t81 14.5q293 0 546 123.5t423 373.5q193 285 192 508q0 92 -68.5 154.5t-151.5 84t-173 21.5q-195 0 -420 -94q39 -43 39 -55l-4 -12h2q-203 -457 -203 -1004q0 -45 -61 -45q-76 0 -78 39q23 229 81 524t122 510q-74 -51 -113 -51q-29 0 -53.5 31.5 t-24.5 68.5q0 66 142.5 118t290 73.5t235.5 21.5q90 0 180 -18.5t177 -59.5t141.5 -117.5t54.5 -179.5q0 -199 -86 -387t-223.5 -326t-303 -243.5t-331.5 -160t-301 -54.5q-78 0 -104.5 18.5t-26.5 65.5z" />
<glyph unicode="E" horiz-adv-x="1003" d="M43 557q0 47 158 96q27 137 86 349t80 239q12 14 36 14q33 -2 58.5 -23.5t25.5 -43.5q0 -4 -31.5 -85t-75.5 -205t-67 -218q309 57 533 57q53 0 61 -12t8 -43q0 -41 -53 -41q-131 0 -286.5 -20.5t-243.5 -49.5q-14 -6 -37 -10q-20 -158 -21 -409v-70q82 8 263 45l88 18 q119 25 252 25q92 0 92 -31q0 -25 -12.5 -45t-24.5 -26q-20 10 -58 10h-18q-37 0 -78 -6q-51 -8 -116.5 -26.5t-106.5 -32t-120 -42l-103 -37.5l-78 -26h2q-4 -2 -12 -2q-16 0 -37 20q-27 4 -48.5 18.5t-21.5 35.5q0 82 47 542q-6 -6 -32.5 -27.5t-30.5 -21.5q-29 0 -60 45 l2 -2l-10 14q-10 13 -10 27zM154 1327q0 35 65.5 60.5t162.5 37t169 15.5t123 4q109 0 244 -34t135 -69q0 -20 -14.5 -40.5t-32.5 -26.5q0 -2 -34 11t-98.5 29.5t-123.5 16.5q-307 -8 -457 -84q-37 -20 -51 -20q-47 0 -70 37l-2 2q-16 24 -16 61zM1001 1274h5h-5z" />
<glyph unicode="F" horiz-adv-x="937" d="M33 621q0 35 219 75q86 410 158 621q-127 -49 -148 -60h2q-12 -4 -20 -4q-25 0 -58 54v2q-20 31 -20 49q0 27 37 43l-2 -2q240 66 504 65q109 0 251 -42t142 -81q0 -18 -20.5 -34.5t-37.5 -16.5q-96 47 -145 64q-53 10 -133 10q-125 0 -289 -31q78 -49 78 -71 q0 -4 -5 -21.5t-5 -26.5q-82 -170 -164 -493q139 20 274 20q174 0 174 -32q0 -31 -47 -50q-57 14 -100 15q-145 0 -326 -51q-37 -158 -37 -478q0 -129 7 -182q-4 -27 -28 -45t-52 -18q-78 0 -78 61q0 84 19.5 282.5t39.5 334.5q-57 -25 -78 -39l-10 -7q-12 -4 -24.5 -4 t-45 33t-32.5 60z" />
<glyph unicode="G" horiz-adv-x="1251" d="M23 322q12 195 95 401.5t214 379.5t319.5 284.5t388.5 111.5q119 0 182.5 -54t63.5 -130q0 -43 -17.5 -63.5t-35.5 -20.5q-39 0 -68 63q-23 37 -51.5 52.5t-99.5 15.5q-166 0 -327 -97.5t-277.5 -247t-192.5 -330.5t-88 -349q4 -252 248 -252q238 0 429 213t245 463 l-74 -21l-48 -12q-40 -10 -53.5 -14t-47 -15.5t-51 -19.5t-41 -22.5t-40.5 -28.5l2 2q-2 0 -6 -2l-4 -2q-25 0 -39 32q-20 45 -20 62q27 55 228.5 97t363.5 52q16 0 33.5 -13t23.5 -36q0 -41 -16 -41h-58q-88 -217 -127 -408.5t-39 -422.5q0 -49 2 -68q-10 -23 -63 -22 q-80 0 -80 32q4 74 59 402q-297 -322 -571 -322q-92 0 -160.5 26t-105.5 62.5t-59.5 89t-29.5 91.5t-7 82z" />
<glyph unicode="H" horiz-adv-x="1251" d="M119 586q0 39 129 78q78 395 151 630l-2 -2q18 33 56 33q35 0 65.5 -23.5t30.5 -48.5q0 -12 -2 -20q-66 -109 -168 -535l45 7q326 45 584 61q78 414 155 643l-4 -2q20 39 74 39q33 0 54.5 -23.5t21.5 -50.5q0 -6 -4 -22q-68 -135 -179 -574q43 -23 43 -55.5t-39 -44.5h-4 h-10q-10 2 -12 2q-27 -137 -27 -330q0 -139 23 -227q10 -43 30.5 -83t20.5 -50q0 -27 -16.5 -58.5t-47.5 -31.5q-57 0 -97 107.5t-40 260.5q0 152 41 408q-365 -16 -637 -101q-29 -186 -28 -432q0 -47 2 -117.5t2 -86.5q0 -25 -25.5 -44.5t-54.5 -19.5q-72 0 -78 59 q4 227 49 580q-35 -8 -41 -8q-14 0 -37.5 27.5t-23.5 54.5z" />
<glyph unicode="I" horiz-adv-x="751" d="M16 -31q0 25 12.5 40.5t45 25.5t51 13t70.5 9l69 4q-27 33 -33 56q27 250 35 297q37 203 66 307l46 193l67 273q32 122 57 179q-111 -4 -232 -66q-31 2 -50 22.5t-19 53.5q0 39 49 62q109 45 336 45q209 0 309 -66l-2 2q14 -12 14 -36.5t-16.5 -45t-34.5 -20.5 q-6 0 -29.5 15.5t-65.5 31.5t-89 16q-14 0 -117 -16q55 -29 55 -84q0 -12 -2 -16q-31 -70 -86 -261.5t-82 -308.5q-20 -88 -40.5 -241.5t-20.5 -255.5q0 -70 -10 -109q-2 -2 -12.5 -9t-12.5 -9q219 25 289 39q18 -2 32.5 -26t14.5 -48q0 -23 -23.5 -30t-97.5 -14t-129 -18 l-119 -32q-176 -47 -209 -47q-86 -1 -86 75z" />
<glyph unicode="J" horiz-adv-x="874" d="M20 135q0 39 17.5 60.5t40.5 21.5q90 0 102 -72v-12q0 -109 76 -179.5t172 -70.5q49 0 94 101.5t79 265.5t53.5 283.5t33.5 242.5l6 47q16 121 21 322v45q0 35 1 51t7 43t18 49l-84 -33l-49 -22q-27 2 -58.5 26.5t-33.5 49.5q-1 5 -1 9q0 41 111 71q110 29 225 29 q14 0 29 -1q130 -4 130 -49q0 -41 -15 -55q-2 0 -31.5 4t-56.5 4h-10q-4 0 -11 1t-9 1q-12 0 -27 -14q12 -29 12 -92v-13q0 -117 -35 -354l-8 -55q-106 -692 -217 -942q-59 -137 -180 -138q-82 0 -154 41q-115 63 -181.5 169t-66.5 165z" />
<glyph unicode="K" horiz-adv-x="1024" d="M37 59q0 70 23.5 248t54.5 322q-31 35 -31 78q0 12 29 28l-4 -2l32 8q72 326 176 682q27 41 62 41q29 0 55.5 -21.5t30.5 -43.5l-141 -418q-35 -111 -56 -186q207 100 303 161q109 72 220 193q98 106 131 203h-2q4 12 40.5 12t67.5 -18.5t31 -45.5q0 -14 -2 -18 q-49 -92 -178 -219q-113 -111 -238 -184q-143 -90 -274 -162q186 -94 372 -281q96 -96 174 -217q43 -70 77 -148.5t34 -105.5q0 -57 -80 -57q-45 0 -59.5 19.5t-31.5 90t-48 132.5q-55 113 -143 210q-66 72 -202 153t-235 101q-41 -242 -41 -473q0 -68 2 -90q-6 -59 -69 -59 q-33 0 -56.5 17t-23.5 50z" />
<glyph unicode="L" horiz-adv-x="770" d="M29 10v15q18 326 98 703.5t211 686.5q14 33 61 33q35 0 59.5 -20.5t24.5 -47.5q0 -8 -6 -26h2q-150 -313 -225.5 -585.5t-75.5 -582.5q0 -14 1 -48t1 -46q182 0 561 72q25 -8 25 -72q0 -33 -10 -33q-119 0 -347.5 -68.5t-269.5 -74.5q-25 2 -37 29q-71 12 -73 65z" />
<glyph unicode="M" horiz-adv-x="1300" d="M-10 72q41 317 116 676l25 114q102 479 131 570l-2 -2q16 47 74 47q33 0 54.5 -17.5t21.5 -42.5v-6q0 -2 -3.5 -79t-6.5 -200.5t-3 -236.5q0 -649 107 -649q43 0 98 50t118 149l116 192q53 92 118 230l99 210l84 185q6 12 21.5 48t23.5 52t23.5 39.5t31.5 34t35 10.5h10 q25 0 46.5 -22.5t21.5 -47.5q0 -12 -2 -14q-70 -131 -114 -353.5t-56 -433.5v3q-20 -307 -21 -680q-8 -53 -74 -54q-74 0 -79 50q16 139 43.5 499.5t44.5 499.5q-264 -453 -359 -578q-137 -180 -235 -180q-49 0 -86 32t-60.5 91t-39 122.5t-23.5 150.5t-11.5 150.5 t-6.5 145.5t-5 113q-49 -190 -89 -440t-40 -414q0 -66 -78 -66q-67 1 -69 52z" />
<glyph unicode="N" horiz-adv-x="1175" d="M41 72q29 231 101.5 646t142.5 712v-3q16 49 73 50q102 0 115 -179q29 -377 160 -827.5t201 -450.5q61 0 119.5 262.5t66.5 440.5q10 231 10 336q0 186 -22 373q4 66 86 71q51 0 70.5 -14t19.5 -51q-35 -723 -97 -1049q-92 -483 -264 -483q-98 0 -184 172 q-82 160 -164 477q-68 256 -135 586q-59 -260 -84 -408q-51 -299 -63 -561q-6 -119 -17 -137q-14 -25 -61 -25q-68 1 -74 62z" />
<glyph unicode="O" horiz-adv-x="1320" d="M72 322q0 162 102 385q-39 82 -39 188q0 129 55.5 234.5t134 168t172 104.5t163 58.5t114.5 16.5q129 0 230 -43q340 -143 339 -566q-4 -365 -235 -647q-113 -137 -264 -233q-174 -106 -338 -107q-197 0 -315.5 122t-118.5 319zM190 352q0 -150 89.5 -256t242.5 -106 q137 0 265 83t227 216q94 129 151.5 294t57.5 324q0 127 -45 223.5t-116 146.5t-144.5 74.5t-147.5 24.5t-159 -33.5t-164.5 -96t-135 -166t-59.5 -226.5l86 125q127 178 180 235v-2q12 12 29 13q29 0 56.5 -23.5t27.5 -50.5q0 -16 -10 -31q-55 -45 -158 -170t-158 -215 q55 -72 125 -94v2q96 -37 96 -84q0 -55 -88 -55q-49 0 -91 20.5t-105 85.5q-52 -149 -52 -258z" />
<glyph unicode="P" horiz-adv-x="1208" d="M43 1163q0 29 27 47q78 57 278 142l43 100q2 8 9.5 22.5t9.5 20.5l-2 -2q25 43 69 43q31 0 50.5 -26.5t19.5 -65.5q0 -20 -2 -31q162 43 280 43q150 0 265.5 -96t115.5 -254q-25 -168 -121 -325.5t-255.5 -264t-337.5 -106.5q-100 0 -150.5 24.5t-50.5 61.5 q0 33 35.5 65.5t62.5 32.5q2 0 25.5 -12.5t61.5 -24.5t77 -12q80 0 166 40t141 85q72 59 139.5 173.5t67.5 233.5q0 121 -79 187.5t-210 66.5q-156 0 -311 -55q-145 -350 -205 -557q-72 -236 -72 -563q0 -96 39 -183v2q12 -33 13 -43q-6 -31 -29 -64.5t-55 -33.5 q-53 0 -82 84t-29 211q0 109 36 301.5t67 308.5q63 221 149 467q-35 -20 -80 -50l-64 -42q-19 -12 -28 -12q-31 0 -57.5 17t-26.5 44z" />
<glyph unicode="Q" horiz-adv-x="1388" d="M72 313.5q0 163.5 106 388.5q-43 96 -43 191q0 242 193.5 415t451.5 173q125 0 226.5 -39t164 -101.5t105.5 -144.5t60.5 -162t17.5 -160q0 -360 -240 -655q-127 -158 -354 -287q43 -219 225 -219q37 0 50.5 -19.5t13.5 -68.5q0 -90 -54 -90l-12 2q-131 29 -220 120 t-120 237q-68 -16 -134 -16q-71 0 -138 19q-129 36 -214 144.5t-85 272zM190 348q0 -203 126 -298q84 -64 201 -64q57 0 122 16q8 125 67.5 245t96.5 120q23 0 41 -22.5t18 -43.5q0 -2 -24.5 -38t-51 -96.5t-32.5 -119.5l39 23q154 80 296 332.5t142 504.5q0 129 -45 226.5 t-118 147.5t-147.5 73.5t-148.5 23.5q-154 0 -280 -82q-102 -66 -170 -184.5t-68 -259.5l86 131q80 117 123 168q70 78 88 78q31 0 56.5 -22.5t25.5 -49.5q0 -18 -12 -35q-53 -51 -151.5 -168.5t-162.5 -218.5q51 -66 127 -90q94 -33 94 -90q0 -20 -21.5 -36.5t-57.5 -16.5 q-90 0 -205 106q-54 -156 -54 -260z" />
<glyph unicode="R" horiz-adv-x="1212" d="M63 1159q0 35 19 45l29 17q156 92 237 122q35 111 56.5 148t58.5 37q33 0 56.5 -21.5t23.5 -50.5q0 -12 -11 -53q188 55 318 55q152 0 285 -90t133 -254q0 -143 -48.5 -258t-135.5 -190.5t-182 -124.5t-216 -86q117 -88 178 -146h-2q72 -70 193 -226.5t121 -184.5 q0 -27 -37 -53.5t-74 -26.5q-20 0 -27 12v-2q-53 127 -104 203q-76 115 -150 188q-135 135 -286 191q-164 16 -164 86q0 29 32.5 65.5t61.5 36.5q2 0 25.5 -14.5t64.5 -27.5t86 -13q195 0 347.5 150.5t170.5 355.5q0 145 -77.5 222t-223.5 77q-172 0 -344 -74 q-158 -418 -182 -561v2q-43 -215 -43 -396q0 -84 17.5 -151.5t35 -105t17.5 -48.5q0 -29 -20.5 -63.5t-55.5 -36.5q-61 2 -92 106.5t-31 262.5q0 184 61 434q0 10 4 18q29 133 123 451l-100 -68q-29 -29 -49 -28q-33 0 -66 19t-33 50z" />
<glyph unicode="S" horiz-adv-x="1052" d="M39 104q0 27 24.5 39.5t49.5 12.5q29 0 67 -66l15 -24q18 -33 77.5 -59.5t130.5 -26.5q156 0 316 79.5t160 190.5q0 70 -102.5 113t-278.5 75.5t-209 42.5q-72 20 -139.5 95t-67.5 180q0 121 79 251t195.5 227t258 159.5t259.5 62.5q303 0 304 -297q0 -127 -111 -127 q-33 0 -33 43q0 23 10 84q2 8 3 29q0 55 -44.5 93t-136.5 38q-119 0 -277.5 -82t-278.5 -213t-120 -248q0 -47 34 -93t77 -67q27 -14 80 -24l141 -25.5t154 -29.5q115 -25 213 -92.5t98 -178.5q0 -145 -153 -252q-190 -129 -437 -129q-188 0 -273 73.5t-85 145.5z" />
<glyph unicode="T" horiz-adv-x="1050" d="M92 1104q0 88 180 172q111 51 267 100q25 66 77 66q41 0 64 -29l35 8q68 16 227 21q98 0 177 -25.5t79 -60.5q0 -41 -68 -41q-4 0 -27.5 8t-64.5 17.5t-86 9.5q-141 0 -290 -52l-27 -88l-103 -319q-33 -106 -64.5 -267t-41.5 -327q-2 -23 -2 -78q0 -104 26.5 -179 t26.5 -79q0 -27 -25.5 -60.5t-58.5 -33.5q-55 0 -81.5 92t-26.5 188q0 6 1 16.5t1 14.5q10 152 44 323t97.5 419.5t81.5 330.5q-139 -59 -182 -92l2 2l-58 -51q-35 -33 -53 -43h-8q-4 0 -13.5 -1t-15.5 -1q-31 0 -57 8q-33 8 -33 31z" />
<glyph unicode="U" horiz-adv-x="1165" d="M55 274q0 104 19.5 230.5t41 215.5t64.5 253q10 35 25.5 103.5t27 109.5t27.5 88t35.5 69.5t42.5 22.5q37 0 60.5 -18.5t23.5 -47.5q0 -14 -7 -37.5t-21 -63.5l-21 -64q-2 -4 -51.5 -156t-73 -233.5t-50 -220t-26.5 -238.5q0 -352 297 -353q190 0 323.5 125t195 325 t61.5 456q0 188 -35 354q-23 113 -59.5 200t-36.5 115q0 27 23.5 48.5t51.5 21.5q61 0 90 -59.5t66 -278.5q31 -193 31 -367q0 -500 -200 -775t-540 -275q-385 -1 -385 450z" />
<glyph unicode="V" horiz-adv-x="995" d="M68 -18q41 131 85 415.5t44 393.5q0 528 -101 548q-18 33 -18 72q0 76 57 76q29 0 55 -17q135 -90 136 -399q0 -260 -58 -725l-35 -280q141 109 324.5 297t247.5 299q57 98 114.5 289.5t57.5 346.5q0 55 -10.5 110.5t-10.5 57.5q0 31 24 58.5t62 27.5q84 0 84 -200 q0 -176 -70.5 -392.5t-150.5 -357.5q-41 -72 -123 -181.5t-168 -195.5l-161 -158q-61 -58 -149.5 -118t-143.5 -60q-41 0 -65.5 27t-26.5 66z" />
<glyph unicode="W" horiz-adv-x="1830" d="M70 -18q123 360 123 1013q0 150 -18.5 239t-40 111.5t-40 49t-18.5 63.5q0 72 55 72q31 0 57 -17q68 -43 103 -154.5t35 -244.5q0 -55 -3.5 -118.5t-5.5 -114t-10 -144.5t-13 -147t-19.5 -190.5t-20.5 -211.5q31 55 61.5 118l67.5 146l59 134q23 51 65 156l54 137l60 149 q47 119 49 125q12 31 51 31q102 0 102 -135q0 -20 -8 -94t-8 -136q0 -272 117 -538q63 -150 189 -254.5t243 -104.5q145 0 238.5 200t93.5 458q0 301 -66 528q-25 84 -61 174l-60 144q-23 54 -22 87q0 23 27.5 38.5t56.5 15.5q57 0 97 -86t101 -328q59 -238 60 -537 q0 -324 -148 -598q-117 -215 -325 -215q-88 0 -195 52h2q-111 55 -201 157.5t-148 230.5t-94 258t-53 261q-47 -90 -124 -258q-23 -49 -100 -201l-97 -194l-102 -207q-18 -20 -52 -21q-47 0 -79.5 29t-34.5 72z" />
<glyph unicode="X" horiz-adv-x="1257" d="M-35 -135q0 154 490 741q-109 170 -156 297q-41 113 -65.5 241t-24.5 187q0 47 27.5 71.5t64.5 24.5q53 0 68 -73q0 -225 55 -398q33 -98 115 -247q532 647 628 786q39 39 80 39q27 0 47.5 -19.5t20.5 -48.5q0 -39 -23 -65q-115 -141 -355 -414l-335 -385q10 -12 28 -40 l21 -34q102 -141 237.5 -276t258.5 -186q37 -29 37 -84q0 -31 -18.5 -50.5t-55.5 -19.5q-66 0 -190.5 117.5t-219 235.5t-180.5 239q-152 -190 -266.5 -375.5t-132.5 -269.5q-31 -74 -96 -74q-60 0 -60 80z" />
<glyph unicode="Y" horiz-adv-x="1193" d="M23 203q0 41 14 166l6 49q12 92 35.5 197.5t45.5 180.5l59 203l59 199q12 43 31.5 93t57.5 104.5t75 54.5q80 0 79 -92q0 -14 -26 -80q-174 -414 -266 -881q-29 -133 -29 -229q0 -121 49 -121q98 0 324 197q111 96 243.5 260t214.5 325q49 217 130 436.5t145 219.5 q92 0 92 -90q0 -55 -39 -125q-141 -260 -210 -529.5t-130 -701.5q-8 -57 -20.5 -112.5t-37 -131.5t-62.5 -138.5t-89 -117.5t-127 -87t-166 -32q-141 0 -223 35q-80 35 -80 78q0 25 20.5 50.5t43.5 25.5q10 0 93 -44t159 -44q80 0 140 32.5t98 83t64.5 126t38 142 t21.5 152.5q10 98 37 252l41 238q-154 -258 -309 -400q-256 -236 -422 -235q-53 0 -93 35t-54.5 68.5t-22.5 66.5q-10 43 -10 121z" />
<glyph unicode="Z" horiz-adv-x="1193" d="M4 -131q0 29 44 142.5t102 232.5q129 262 347 569t433 530l-232 -57q-268 -66 -440 -137q-16 -4 -27 -4q-49 0 -73 65l-2 2q-6 12 -6 33q0 68 53 86l-2 -2q205 39 407 70l127 18q313 45 393 90q27 -2 46.5 -37.5t19.5 -72.5q0 -51 -68 -99q-506 -373 -964 -1278 q303 113 491 113q168 0 301 -23.5t133 -70.5q0 -25 -19 -45.5t-38 -20.5q-2 0 -95 26t-177 26q-340 0 -580 -191l2 2q-29 -14 -39 -14q-16 0 -41 22q-29 -35 -51 -34q-45 0 -45 59z" />
<glyph unicode="[" horiz-adv-x="786" d="M55 -559q133 698 133 2058q0 47 20.5 75t49.5 28q16 0 35 -13q133 -47 297 -47q88 0 119 10q29 -2 28 -36q0 -47 -37 -54q-14 0 -77.5 -12t-90.5 -14l-210 -9q-6 -195 -12.5 -352t-15.5 -314t-16 -248l-22 -284q-14 -193 -23 -292l-16 -220v2l-14 -184q236 0 295 16 q18 -18 18 -55q0 -29 -12 -37h-8q-63 0 -168 -25.5t-164 -56.5q-18 -25 -43 -24q-66 0 -66 88z" />
<glyph unicode="\" horiz-adv-x="1196" d="M12 1460q0 41 21.5 67.5t54.5 26.5q16 0 33 -26l8 -12l255 -434l290 -478q131 -209 259 -476t128 -374q0 -49 -16.5 -75.5t-34.5 -26.5q-43 0 -66 72q-10 94 -151.5 404t-255.5 495q-145 227 -215 327q-219 313 -299 467q-11 16 -11 43z" />
<glyph unicode="]" horiz-adv-x="786" d="M61 -561q0 47 37 53q10 0 75 11.5t93 13.5l211 10q23 692 105 1710v-2l14 184q-231 0 -295 -18q-18 14 -18 57q0 29 14 37h8q61 0 167 25.5t165 56.5q14 25 43 25q27 0 46 -23t19 -66q-135 -709 -135 -2060q0 -47 -20.5 -73.5t-48.5 -26.5q-16 0 -33 12q-135 47 -299 47 q-86 0 -119 -10q-29 0 -29 37z" />
<glyph unicode="^" horiz-adv-x="821" d="M102 1001q33 25 107 188t108 263q16 43 97 43q31 0 60.5 -12.5t37.5 -30.5h-2q76 -233 201 -434q6 -10 10 -14l2 -3q0 -27 -45 -26q-29 0 -41 20l2 -2l-227 391l-108 -187l-101 -177l-15 -27l2 2q-12 -20 -43 -20q-45 -1 -45 26z" />
<glyph unicode="_" horiz-adv-x="925" d="M6 -295q0 27 12.5 52.5t30.5 31.5l453 -20q225 0 413 14q20 -6 21 -39q0 -23 -14.5 -48.5t-32.5 -31.5l-449 19q-205 0 -413 -13q-21 4 -21 35z" />
<glyph unicode="`" horiz-adv-x="1024" d="M602 1294q0 33 25.5 67t52.5 34q8 0 16 -9q12 -12 86 -73l139 -118q65 -56 64 -67q0 -66 -24 -65q-14 0 -343 194q-16 14 -16 37z" />
<glyph unicode="a" d="M55 203q0 158 96.5 342t242 311t274.5 127q63 0 104 -34t51.5 -64.5t10.5 -55.5q0 -29 -10.5 -43t-23 -17t-32.5 -3q-23 0 -55.5 43t-63.5 43q-104 0 -220 -115.5t-189.5 -267.5t-73.5 -264q0 -66 22.5 -107t44.5 -41q63 0 136 50.5t138.5 134.5t115 156.5t97.5 154.5 t52 88q39 61 66 61q33 0 61.5 -19t28.5 -42v-6q-47 -86 -105.5 -261t-58.5 -313q0 -51 13.5 -73.5t47.5 -22.5q20 0 45 14.5t29 14.5q31 0 31 -45q0 -31 -34 -63.5t-108 -32.5q-123 0 -122 196q0 131 59 350q-150 -227 -305 -358q-109 -90 -191 -90q-66 0 -107.5 48 t-54 99.5t-12.5 104.5z" />
<glyph unicode="b" horiz-adv-x="991" d="M74 -20q10 55 44 354t48 381q59 330 74 391q57 250 108 360q25 39 64 39q33 0 56.5 -21.5t23.5 -49.5q0 -12 -7 -31q-51 -74 -127 -326q-33 -109 -60.5 -243t-39.5 -212.5t-35 -255.5l-28 -225l98 175l95 164q67 114 109 167l100 122q58 69 107.5 97.5t96.5 28.5 q86 0 136 -92t50 -203q0 -141 -90 -304t-224 -273.5t-255 -110.5q-53 0 -84 26.5t-31 59.5q0 41 37 41q12 0 34.5 -10.5t37.5 -10.5q82 0 196.5 96.5t198.5 237t84 250.5q0 66 -20.5 106t-38 50t-29.5 10q-55 0 -131 -76q-207 -203 -449 -721q-35 -74 -90 -73q-29 0 -48 26 q-14 19 -14 39q1 9 3 17z" />
<glyph unicode="c" horiz-adv-x="851" d="M33 238q0 154 80 319.5t221 283t295 117.5q90 0 163.5 -56t73.5 -146q0 -137 -86 -138q-63 0 -63 46q0 10 6 34.5t6 34.5q0 51 -39 83t-88 32q-135 0 -242.5 -113.5t-156.5 -254t-49 -261.5q0 -84 32.5 -149.5t108.5 -65.5q86 0 158.5 38t117.5 91t81 106.5t67 91.5 t57 38q37 0 37 -47q0 -25 -39 -90.5t-103.5 -141.5t-169 -133t-212.5 -57q-78 0 -132.5 37.5t-79 96t-34.5 108t-10 96.5z" />
<glyph unicode="d" horiz-adv-x="1024" d="M47 174q0 221 146.5 414.5t308.5 279.5q90 49 182 50q80 -6 139 -89q6 18 25.5 94t30.5 111l112 400q16 55 70 55q72 0 72 -53q0 -23 -13 -47q-119 -272 -212 -620.5t-93 -602.5q0 -100 12.5 -136t51.5 -36q29 0 66.5 24.5t49.5 24.5q39 0 39 -29q0 -43 -61.5 -91 t-120.5 -48q-147 0 -147 240q0 45 24 282q-158 -260 -311 -393q-111 -94 -201 -94q-88 0 -129 80t-41 184zM158 158q0 -49 18.5 -97.5t48.5 -48.5q49 0 138.5 75t171.5 173q78 92 112.5 138t78.5 137.5t75 205.5q-31 -10 -37 -10q-23 0 -44.5 26.5t-45.5 26.5 q-100 0 -223 -107.5t-208 -255.5t-85 -263z" />
<glyph unicode="e" horiz-adv-x="817" d="M25 233q0 182 98 354.5t235.5 271.5t257.5 99q68 0 115 -55t47 -127q0 -98 -86 -228t-213 -225.5t-233 -95.5q-61 0 -121 43q-2 -17 -2 -34q0 -72 41 -150q51 -96 141 -96q80 0 148.5 31.5t113.5 76.5t81 91.5t66.5 78t53.5 31.5q27 0 27 -33q0 -100 -157 -238.5 t-323 -138.5q-82 0 -141 34t-87 76t-43 100.5t-17 83.5t-2 50zM150 371q25 12 40 12q4 0 17 -6q25 -33 51 -33q119 0 259 150.5t140 271.5q0 57 -55 57q-45 0 -131 -43q-198 -98 -321 -409z" />
<glyph unicode="f" horiz-adv-x="575" d="M47 -301q0 16 4 27q16 47 80 391t102 501q-76 -37 -98 -36q-31 0 -57.5 16t-26.5 39q0 35 45 55v-2q84 29 164 43l14 70q59 299 134 483q43 109 141 181.5t205 72.5q98 0 145 -56.5t47 -109.5q0 -39 -18.5 -59.5t-40.5 -20.5q-43 0 -60.5 20.5t-16.5 45t-14.5 45 t-54.5 20.5q-49 0 -87 -11t-68.5 -46t-50 -62.5t-42 -98t-33.5 -112.5l-38 -145l-51 -200l94 12q47 6 103.5 16t60.5 10q18 -2 33.5 -20t15.5 -37q0 -20 -27 -20q-66 0 -307 -60q-74 -279 -107.5 -552t-50 -365t-71.5 -92q-27 0 -47.5 15t-20.5 42z" />
<glyph unicode="g" horiz-adv-x="958" d="M10 -492q0 55 49 56q37 0 58.5 -17.5t31 -38t37 -38t74.5 -17.5q76 0 145.5 46t119.5 116t83 134.5t51 119.5q41 127 66 512q-119 -219 -150 -252q-188 -203 -342 -203q-63 0 -105 30t-59.5 77t-22.5 80.5t-5 66.5q0 72 33 180q37 117 122 258.5t210.5 259t238.5 117.5 q63 0 92 -36.5t29 -65.5q0 -51 -43 -51q-27 0 -48.5 13t-33.5 13q-16 0 -23 -2q-98 -35 -210.5 -158.5t-189.5 -274t-77 -257.5q0 -49 21.5 -98t62.5 -49q55 0 131 52t133 124q190 240 252 422q0 4 -1 12t-1 12v15q2 41 23.5 64.5t52.5 23.5q53 0 64 -86q-6 -145 -45 -424 t-82 -408q-14 -45 -36 -95t-67 -128t-98 -137.5t-134 -102.5t-171 -43q-117 0 -176.5 63.5t-59.5 114.5z" />
<glyph unicode="h" horiz-adv-x="1017" d="M104 27q23 352 96.5 767.5t176.5 716.5q20 45 65 45q35 0 58.5 -21.5t23.5 -53.5q0 -10 -4 -23v-2q-10 -33 -57 -153.5t-70 -188.5q-152 -469 -172 -964q45 96 180 323q31 53 69 106.5t93 118t118.5 104.5t123.5 40q80 0 103.5 -47t23.5 -136q0 -53 -19.5 -180 t-19.5 -260q0 -223 70 -235l-2 2q39 -14 38 -72q0 -25 -27.5 -42t-62.5 -17q-45 0 -90 88q-37 72 -37 172q0 70 10.5 209t10.5 213q0 88 -9.5 120.5t-31.5 32.5q-61 0 -144 -89t-158 -218t-126 -229.5t-78 -163.5q-8 -25 -51 -25h-19q-29 0 -42 2t-24.5 16.5t-15.5 43.5z " />
<glyph unicode="i" horiz-adv-x="489" d="M94 156q0 61 10 112q43 246 154 580q20 55 59 55q12 0 31 -6q45 -18 45 -53q0 -18 -8 -35v2q-41 -80 -92 -238l-8 -24q-74 -219 -76 -428q0 -84 74 -90q35 0 63.5 24.5t40.5 24.5q20 0 41 -13.5t21 -33.5l-3 -8q-4 -8 -15 -23.5t-27.5 -29t-48 -23.5t-70.5 -10 q-191 0 -191 217zM346 1096q0 70 46 108.5t93 38.5q39 0 39 -43q0 -16 -2 -24q-8 -51 -49 -93.5t-82 -42.5q-45 1 -45 56z" />
<glyph unicode="j" horiz-adv-x="534" d="M-401 -557q0 23 13 37t32 14q47 0 89 -54t103 -54q51 0 95 19.5t75 45t59.5 74.5t45 82t35 94t24.5 86t18 82q33 139 70 417.5t39 461.5l-61 -62l-17 -16l-16 -17l-16 -15q-11 -11 -16 -15.5l-14.5 -12.5t-15.5 -11t-13 -7t-13 -5t-13 -1q-27 0 -40 19.5t-13 43.5 q0 33 25 41q76 31 125 74q27 23 55.5 56.5t46.5 48t43 16.5q51 -12 62 -35q6 -12 6 -33v-11q0 -132 -44 -449q-46 -331 -85 -509q-23 -106 -74 -240t-121 -204q-137 -137 -250 -137q-121 0 -180 61.5t-59 114.5zM328 1090q0 72 43 112.5t88 40.5t45 -51q0 -14 -2 -23 q-8 -51 -49 -93t-82 -42q-43 1 -43 56z" />
<glyph unicode="k" horiz-adv-x="768" d="M39 -16q35 154 85 532.5t99 570.5q61 246 109 355q6 16 26.5 27.5t34.5 11.5q27 0 44.5 -18.5t17.5 -45.5q0 -14 -6 -33q-61 -113 -131 -369.5t-103 -516.5q184 106 312 224t163 189q29 25 49 25q27 0 48.5 -16.5t21.5 -38.5q0 -12 -12 -41v2q-59 -86 -222 -220.5 t-284 -183.5q39 -74 178 -213q70 -70 154 -117l126 -72q42 -24 42 -56q0 -23 -14.5 -38.5t-39.5 -15.5q-37 0 -148.5 66.5t-193.5 154.5q-113 121 -192 246q-2 -16 -33 -364q0 -121 -61 -121q-29 0 -48.5 21.5t-21.5 54.5z" />
<glyph unicode="l" horiz-adv-x="475" d="M102 193q0 242 113 638q51 190 180 562q37 102 80 102q76 0 76 -63q-6 -51 -19 -86q-207 -469 -296 -940q-27 -141 -27 -248q0 -176 86 -176q51 0 72.5 27.5t31.5 27.5q18 0 35 -13.5t17 -29.5q0 -53 -50.5 -84t-105.5 -31q-193 1 -193 314z" />
<glyph unicode="m" horiz-adv-x="1449" d="M78 29q4 152 41 374q41 279 90 441q8 16 35 16q31 0 56.5 -23.5t25.5 -43.5q-78 -141 -140 -678l125 268q127 272 189 365q27 41 59.5 83.5t83.5 89t86 46.5q118 0 118 -220q0 -80 -16 -190q-2 -12 -2 -18l-47 -351l70 119q25 41 78 146.5t86 163t87 109.5t107 52 q113 0 113 -188q0 -70 -12.5 -229.5t-12.5 -233.5q0 -82 11.5 -131t25 -61.5t28.5 -33t21 -51.5q0 -45 -51 -45q-147 0 -147 277q0 12 22.5 215t22.5 289q0 90 -33 90q-14 0 -36.5 -20.5t-49.5 -59.5l-52 -80q-26 -41 -58 -98l-52 -96l-49 -94l-37 -70l-55 -105 q-23 -47 -80 -47q-53 0 -53 55q8 66 29.5 201t35 250t13.5 219.5t-39 104.5q-49 0 -135 -138q-135 -213 -320 -628q-41 -98 -108 -99q-74 1 -74 58z" />
<glyph unicode="n" horiz-adv-x="880" d="M39 41q0 31 10 98l12 92q37 268 62 392l20 100q4 16 8.5 37.5t6.5 36t6 32t7 27.5l7 24q4 13 9.5 20l10.5 13.5t12 9.5t15 3q35 0 58.5 -24.5t27.5 -47.5q-29 -51 -68.5 -196.5t-54.5 -231.5q-18 -125 -32 -334q150 270 333 557q31 49 82.5 89t104.5 40q121 0 121 -213 q0 -53 -7.5 -161.5t-7.5 -159.5q0 -88 13.5 -146.5t31 -77t30.5 -41t13 -49.5q0 -20 -19.5 -39.5t-41.5 -19.5q-66 0 -104.5 94t-38.5 219q0 12 6 70.5t12 127.5t9 138q1 30 2 56q0 34 -3 60q-4 46 -18 46q-49 0 -124 -106.5t-171 -281.5t-119 -210q-12 -20 -26 -46l-19 -38 q-6 -12 -19.5 -21.5t-35.5 -9.5q-121 0 -121 72z" />
<glyph unicode="o" horiz-adv-x="894" d="M35 164q0 133 57.5 285.5t138 268.5t163.5 192.5t136.5 76.5t53.5 -119q70 18 96 19q106 0 150 -78t44 -168q0 -121 -49 -233q-33 -86 -85 -175.5t-121.5 -171t-158.5 -134t-179 -52.5q-123 0 -184.5 86t-61.5 203zM141 180q0 -193 174 -192q123 2 229.5 132t182.5 308 q43 102 43 195q0 70 -21.5 105.5t-54.5 35.5q-16 0 -46 -15.5t-46 -15.5q-23 0 -41 29t-18 61q0 20 8 37q-158 -86 -284 -298t-126 -382z" />
<glyph unicode="p" horiz-adv-x="1052" d="M-14 -557q0 117 26 293q104 686 260 1132q16 47 60 47q72 0 71 -43q0 -12 -6 -30q-115 -279 -180 -551q59 100 119.5 191t154 216t186.5 200t165 75q92 0 148.5 -81t56.5 -185q0 -141 -88.5 -312.5t-233.5 -294.5t-287 -123q-74 0 -104.5 35t-30.5 68q0 47 39 47 q16 0 47 -16.5t43 -16.5q94 0 216 100.5t209 247t87 265.5q0 66 -22.5 106.5t-43 50.5t-36.5 10q-43 0 -90 -27.5t-108.5 -96t-102.5 -118.5t-118 -168l-107 -166l-113 -183q-25 -37 -70 -281q-20 -117 -20 -244q0 -41 3 -99t3 -73q0 -35 -21.5 -59.5t-58.5 -24.5 q-33 0 -43 23t-10 86z" />
<glyph unicode="q" horiz-adv-x="933" d="M41 199q0 135 88 315t236.5 317.5t293.5 137.5q70 0 106 -42t36 -77q0 -41 -62 -41q-16 0 -40.5 13.5t-32.5 13.5q-113 0 -238 -123t-204 -281t-79 -266q0 -119 60 -119q104 0 283.5 204t232.5 339q23 59 43 89t53 30q29 0 54.5 -14.5t25.5 -41.5q0 -6 -6 -24 q-156 -340 -277 -871q-16 -66 -28 -181q-6 -53 -6 -85q0 -37 8 -45q45 0 75.5 19.5t44 33t25.5 6.5q14 -8 9 -39.5t-25 -56.5q-14 -16 -63.5 -40.5t-88.5 -24.5q-100 0 -100 145q0 51 24 174q33 158 205 737q-313 -461 -491 -460q-162 0 -162 258z" />
<glyph unicode="r" horiz-adv-x="618" d="M55 -55q0 6 55.5 385t55.5 549q0 12 24.5 22t42.5 10q41 0 60.5 -22.5t19.5 -52.5q-49 -125 -71.5 -238t-51.5 -346q147 346 250 498q29 43 52.5 70.5t72.5 54t109 26.5q53 0 96 -41q20 -19 20 -38q0 -23 -28 -46q-43 -18 -62 -18q-10 0 -26.5 8t-26.5 8 q-72 0 -156.5 -111.5t-147 -258t-105.5 -280.5t-45 -187q0 -31 -48 -31q-78 0 -90 39z" />
<glyph unicode="s" horiz-adv-x="780" d="M16 496q0 98 96.5 211.5t231.5 190.5t242 77q117 0 171 -66.5t54 -138.5q0 -96 -74 -96q-29 0 -39 21.5t-16 66.5q-14 94 -115 94q-117 0 -269.5 -106.5t-152.5 -210.5q0 -129 265 -129q305 0 305 -181q0 -98 -91.5 -173.5t-200 -107.5t-200.5 -32q-104 0 -150 39t-46 80 q0 18 12 33.5t35 15.5q27 0 92 -45q45 -23 84 -23q45 0 99 10.5t112.5 33t97.5 68.5t39 105q0 31 -82 43.5t-197.5 20.5t-164.5 27q-138 49 -138 172z" />
<glyph unicode="t" horiz-adv-x="575" d="M57 754q0 29 39 43q53 16 129 26l11 37q84 311 137 391q31 47 59 47q70 0 70 -53q0 -37 -15 -65q-68 -135 -125 -340q82 4 143.5 8t80 5t24.5 1q14 0 26.5 -16.5t12.5 -34.5q-2 -14 -39 -19.5t-123 -10.5t-155 -15q-129 -391 -129 -596q0 -166 82 -166q57 0 112.5 36 t61.5 36q18 0 34.5 -13.5t16.5 -31.5q0 -25 -31 -50q-111 -78 -203 -77q-57 0 -97 30.5t-57.5 81.5t-24.5 96.5t-7 94.5q0 115 84 469l14 59q-35 -10 -51 -10q-80 0 -80 37z" />
<glyph unicode="u" horiz-adv-x="907" d="M43 184q0 47 5 99.5t9 90.5t18 100l19 90l24 102q17 74 21 94l43 184q14 14 33 14q31 0 65.5 -26.5t34.5 -42.5v-4q-61 -127 -110 -311.5t-49 -315.5q0 -137 67 -137q31 0 60.5 7t58.5 24.5t47.5 31t43.5 40.5l35 38q9 10 34 41l24 33q121 215 156 409q10 61 80 62 q27 0 42 -18.5t7 -43.5q-2 -10 -19 -86l-23 -99q-5 -24 -17.5 -89t-16.5 -101t-8 -88.5t-4 -97.5q0 -188 55 -188q29 0 49 14l-2 -2l6 4v2q16 -2 37 -21.5t21 -39.5q0 -41 -62 -54q-32 -7 -59 -7q-25 0 -45 6q-104 31 -105 276q0 80 19 197q-51 -100 -195.5 -239.5 t-230.5 -139.5q-74 0 -121 51t-47 141z" />
<glyph unicode="v" horiz-adv-x="768" d="M82 346q0 299 20 451q12 86 88 86q29 0 43 -25q9 -16 10 -37q0 -12 -3 -26q-23 -115 -36 -313q-8 -112 -8 -210q0 -76 5 -145l4 -92q90 35 204.5 163t188.5 330l8 25q4 10 20.5 58t21.5 65.5t14.5 53.5t12.5 61.5t3 52.5q0 39 -10.5 85t-10.5 52q0 33 21.5 58.5 t60.5 25.5q68 0 68 -160q0 -217 -125 -477t-264 -385q-137 -123 -242 -123q-31 0 -52.5 24.5t-25.5 53.5q-16 121 -16 348z" />
<glyph unicode="w" horiz-adv-x="1177" d="M41 129q0 141 45 347t102 372l-2 -2q6 12 31 12q33 0 58.5 -20.5t27.5 -44.5q-2 -8 -26.5 -81t-34.5 -106l-32 -103q-22 -71 -32 -115t-19 -96t-9 -87q0 -119 14 -139q9 -2 19 -3q25 0 54 15q40 20 74.5 59t57 70t39.5 59q111 182 110 314v12.5v12.5q0 43 10 67 q12 29 27.5 35t42.5 6q57 0 53 -78q-41 -250 -41 -426q0 -98 18.5 -168t53.5 -70q27 0 72 21.5t69 44.5q78 70 148.5 224.5t70.5 305.5q0 74 -18 126t-40.5 73.5t-41 47.5t-18.5 52q0 49 53 49q63 0 118.5 -93t55.5 -236q0 -104 -36 -226t-89 -219q-61 -106 -145 -176 q-111 -90 -203 -90q-49 0 -85 39t-53.5 105.5t-25.5 132t-8 139.5q-33 -70 -59.5 -117t-71.5 -106.5t-102.5 -91t-125.5 -31.5q-63 0 -84.5 43t-21.5 141z" />
<glyph unicode="x" horiz-adv-x="768" d="M-2 -27q0 27 108.5 181.5t206.5 267.5q-47 115 -92 249t-45 175q0 27 25.5 44t54.5 17t41 -22q16 -160 88 -381q330 352 385 428q16 16 39 16q27 0 45 -19.5t18 -39.5q0 -18 -10 -27q-70 -63 -225.5 -216.5t-220.5 -227.5q33 -82 117.5 -216t134.5 -179q4 -12 4 -21 q0 -23 -22.5 -46.5t-51.5 -23.5q-16 0 -27 11l2 -4q-164 250 -225 393q-43 -49 -131 -190.5t-108 -192.5l2 2q-18 -29 -52 -29q-27 0 -44 13t-17 38z" />
<glyph unicode="y" d="M29 -512q0 57 49 57q41 0 76 -47q49 -68 125 -67q104 0 198 90t143.5 186t67.5 174q20 84 54 322.5t49 404.5q-211 -631 -564 -631q-188 0 -188 261q0 166 111 559q8 27 18 67q16 59 24.5 76.5t28.5 17.5q23 0 41 -10q49 -27 49 -63q0 -10 -10 -31q-29 -53 -89 -268 t-60 -344q0 -80 26.5 -110t93.5 -30q53 0 101.5 20.5t84.5 50.5t71.5 81t59 95t51.5 112.5t42 111.5l37 111l45 141q14 43 55 43q31 0 66 -16q33 -15 33 -47q0 -12 -23 -246l-18 -219q-33 -281 -86 -483q-12 -49 -36 -107.5t-71 -140.5t-103.5 -145.5t-141.5 -109.5 t-179 -46q-115 0 -173 65.5t-58 114.5z" />
<glyph unicode="z" horiz-adv-x="845" d="M29 31q4 29 16 53q131 219 469 537q176 172 246 249q-301 -33 -514 -118q-10 -4 -41 -4q-41 0 -70 20t-29 47q0 41 62 59q201 47 375 66l61 6q184 18 250 19q16 0 32.5 -12.5t16.5 -28.5q0 -10 -5 -22.5t-16.5 -30t-23.5 -34t-32.5 -41t-37.5 -41.5l-44 -46l-45 -47 l-48 -52l-47 -49l-112 -117q-219 -225 -302 -360q293 63 422 63q92 0 124 -12t32 -53q0 -31 -27 -31l-16 4q-41 8 -94 8q-199 0 -461 -126q-12 -6 -39 -7q-51 0 -76.5 34t-25.5 67z" />
<glyph unicode="{" horiz-adv-x="827" d="M55 489q0 57 41 58q96 0 182.5 54t86.5 132q0 74 -24 223.5t-24 235.5q0 92 43 151q47 70 161 165.5t143 95.5q27 0 64.5 -25t37.5 -49q0 -2 -1 -4t-1 -4q-6 -16 -85 -61.5t-152.5 -109t-73.5 -128.5q0 -80 22.5 -236t22.5 -235q0 -150 -191 -277q61 -16 130 -54t69 -81 q0 -10 -6 -23l-33 -55q-203 -344 -205 -541q0 -92 35 -150t78 -77.5t77.5 -40t34.5 -45.5q0 -27 -29.5 -50.5t-60.5 -23.5q-16 0 -22 4v-2q-113 53 -179.5 148.5t-66.5 220.5q0 102 39 224t68.5 182.5t109.5 212.5q-88 78 -207 77q-16 0 -41 -4q-16 2 -29.5 30.5t-13.5 61.5 z" />
<glyph unicode="|" horiz-adv-x="557" d="M141 -377q0 334 41 866q68 842 97 1045q6 23 23 39t34 16q88 0 88 -102q0 -25 -6 -62v2q-84 -428 -125 -966q-18 -236 -19 -594q0 -240 15 -426v-16q0 -33 -13.5 -46.5t-46.5 -13.5q-78 0 -86 78q-2 33 -2 123v57z" />
<glyph unicode="}" horiz-adv-x="827" d="M74 -594q0 6 2 10q4 14 84 59.5t154.5 110t74.5 129.5q0 78 -22.5 233.5t-22.5 237.5q0 147 191 275q-63 16 -131 53t-68 82q0 12 6 25l33 55q203 340 205 541q0 76 -24 128t-57.5 76.5t-66.5 41t-56.5 31.5t-23.5 36q0 27 30 50.5t62 23.5q10 0 23 -5v3 q111 -53 178.5 -149.5t67.5 -221.5q0 -100 -38 -220t-71 -186l-110 -211q90 -80 208 -79q14 0 39 4q18 -2 31.5 -30t13.5 -60q0 -57 -43 -58q-96 0 -181 -55t-85 -133q0 -74 23.5 -223.5t23.5 -233.5q0 -100 -45 -154q-43 -70 -157.5 -164t-145.5 -94q-25 0 -63.5 23.5 t-38.5 48.5z" />
<glyph unicode="~" horiz-adv-x="1024" d="M90 459q0 6 4 18q31 45 68 80q88 82 186 82q63 0 164.5 -73.5t142.5 -73.5q57 0 96.5 18t53.5 41.5t28.5 42t30.5 18.5q31 0 70 -23.5t39 -49.5q0 -8 -2 -11l2 2q-125 -152 -291 -151q-92 0 -166 59h2l-29 21q-92 61 -139 63q-35 0 -63.5 -29.5t-47 -58t-30.5 -28.5 q-119 0 -119 53z" />
<glyph unicode="&#xa1;" horiz-adv-x="649" d="M51 -295q0 2 2 4v6zM53 -291q72 209 124 485.5t54 473.5q6 37 74 37q33 0 35 -27q-12 -84 -47 -402q-53 -483 -92 -614l2 2q-8 -25 -43 -24q-39 0 -73 21.5t-34 41.5v6zM242 987q0 47 27.5 96.5t70.5 49.5q25 0 40 -25t15 -61q0 -57 -31.5 -98.5t-68.5 -41.5 q-25 0 -39 23.5t-14 56.5z" />
<glyph unicode="&#xa2;" horiz-adv-x="1075" d="M150 444q0 158 55 331t174 334t272 237l23 71l26 85q8 26 23.5 55.5t31 39t38.5 9.5q33 0 51 -17.5t10 -52.5q-51 -115 -70 -180q94 -8 164 -56.5t72 -142.5q-8 -72 -26.5 -115t-35 -54t-32.5 -11q-66 0 -66 65q0 12 5 41t5 45q0 39 -26.5 66t-73.5 27q-10 0 -39 -4 q-72 -272 -99.5 -421t-88.5 -563q90 37 151.5 102.5t84 122t52 99.5t66.5 43q27 0 27 -41q0 -12 -10.5 -47t-40 -92.5t-70.5 -112.5t-114 -108.5t-159 -79.5q-14 -203 -14 -283q-12 -80 -72 -80q-29 0 -49 20.5t-20 59.5q8 70 37 248q-135 6 -198.5 108t-63.5 252zM266 432 q0 -244 154 -244l190 1010q-152 -133 -248 -345t-96 -421z" />
<glyph unicode="&#xa3;" horiz-adv-x="1067" d="M8 -16q0 25 66 49q8 4 14 6q61 45 114.5 122t80.5 138q78 188 77 346q0 25 -4 74l-221 -27q-29 6 -29 58q0 43 27 55q27 -6 76 -6q25 0 94.5 4t73.5 4q-4 4 -12.5 44t-16.5 102.5t-8 113.5q0 176 108.5 299t286.5 123q147 0 234.5 -83t87.5 -175q0 -59 -64 -60 q-27 0 -52.5 13.5t-29.5 32.5v-3q-4 37 -9 56.5t-21.5 53.5t-51 50.5t-86.5 16.5q-104 0 -183 -79t-79 -186q0 -49 15.5 -155.5t15.5 -159.5q14 0 170 16.5t215 24.5q27 -6 27 -49q0 -53 -27 -62q-233 0 -373 -14q-12 -139 -35 -225q-45 -180 -165 -396l114 11q98 12 295 12 q96 0 135 -10t39 -47q0 -29 -15 -60.5t-32 -40.5q-168 37 -350 37q-270 0 -375 -80h2q-45 -39 -63 -39q-23 0 -44.5 34t-21.5 61z" />
<glyph unicode="&#xa4;" horiz-adv-x="1081" d="M123 330l108 110q-94 143 -94 266t94 267l-108 108l37 35l110 -108q139 100 277 100q135 0 278 -100l113 104l39 -35l-113 -104q94 -145 94 -266t-94 -267l113 -110l-37 -33l-115 111q-145 -102 -278 -103q-131 0 -277 103l-112 -111zM244 715q0 -123 89 -215t214 -92 q123 0 214 90t91 209q0 129 -86 213t-219 86q-131 -2 -217 -83t-86 -208z" />
<glyph unicode="&#xa5;" horiz-adv-x="1193" d="M84 330q0 49 25 55q217 0 301 4l10 141v33q-119 -10 -260 -31q-33 6 -33 58q0 49 25 55q80 -12 202 2q-55 164 -111.5 399.5t-56.5 309.5q0 72 86 71q68 0 70 -73q2 -78 45 -292t102 -409q82 29 205 152t195 254q111 201 110 278q0 20 -14 58.5t-14 56.5q0 27 25.5 47.5 t70.5 20.5q76 0 76 -131q0 -160 -143.5 -368t-315.5 -355l252 30q29 -4 29 -51q0 -51 -23 -63q-35 0 -124 2t-147.5 0t-119.5 -9q-14 -72 -29 -180l70 4q170 16 297 37q33 -8 33 -51q0 -51 -27 -63h-23q-195 0 -358 -9q-16 -170 -20 -393q-27 -33 -86.5 -28.5t-61.5 40.5 q23 84 60 373q-45 -4 -147.5 -16.5t-145.5 -16.5q-29 11 -29 58zM150 647q0 -2 2 -2q0 2 2 2h-4z" />
<glyph unicode="&#xa6;" horiz-adv-x="557" d="M141 -377q0 344 25 699q2 31 19.5 46t41.5 15q20 0 36 -15.5t16 -41.5q0 -49 -4.5 -175t-4.5 -198q0 -319 21 -526q6 -61 -60 -62q-57 0 -73.5 37t-16.5 164v57zM170 698l8 263q12 483 27 573q2 27 18.5 41t34.5 14q41 0 65.5 -26.5t29.5 -62.5t-1 -75q-31 -197 -59 -694 q0 -82 -60 -82q-27 0 -46 13t-17 36z" />
<glyph unicode="&#xa7;" horiz-adv-x="1177" d="M113 -39q0 92 45 188.5t110 96.5q39 0 39 -60q0 -31 -38 -110.5t-38 -149.5q0 -68 35 -111.5t90 -43.5q139 0 295 166.5t156 308.5q0 53 -27.5 89t-77.5 36q-2 0 -79.5 -18.5t-124.5 -18.5q-82 0 -144.5 44t-62.5 126q0 102 129 235q-53 14 -90 78t-37 109q0 100 57 223 q72 152 205 250t258 106q131 0 206 -97t75 -226q0 -111 -39 -197q-41 -90 -101 -90q-23 0 -37 29.5t-14 54.5q0 4 35 79t35 154q0 90 -49.5 138.5t-106.5 48.5q-145 0 -294.5 -165t-149.5 -314q0 -113 119 -113q43 0 118.5 15.5t91.5 15.5q88 0 148.5 -44t60.5 -128 q0 -100 -131 -232q47 -31 78 -83t31 -107q0 -188 -175 -380t-364 -192q-125 0 -181 90t-56 199zM391 502q0 -43 29 -54.5t80 -11.5q98 0 203.5 73t105.5 146q0 49 -27.5 65.5t-81.5 16.5q-106 0 -207.5 -74.5t-101.5 -160.5z" />
<glyph unicode="&#xa8;" d="M442 1112q0 72 45 111t95 39q37 0 36 -41q0 -53 -37.5 -107.5t-95.5 -54.5q-43 0 -43 53zM737 1114q0 70 47 109t93 39q39 0 38 -43q0 -51 -38.5 -105.5t-94.5 -54.5q-18 0 -31.5 14t-13.5 41z" />
<glyph unicode="&#xa9;" horiz-adv-x="2015" d="M211 604q0 338 236.5 573.5t576.5 235.5t576.5 -235.5t236.5 -573.5t-236.5 -572.5t-576.5 -234.5t-576.5 234.5t-236.5 572.5zM332 604q0 -285 204.5 -485.5t487.5 -200.5t486.5 200.5t203.5 485.5t-204.5 486.5t-485.5 201.5q-283 0 -487.5 -201.5t-204.5 -486.5z M614 612q0 201 120 330t323 129q135 0 235.5 -74.5t130.5 -205.5h-92q-25 88 -96.5 137t-179.5 49q-168 0 -258 -108.5t-90 -252.5q0 -160 95 -264t257 -104q213 0 272 192h94q-23 -131 -127 -208.5t-239 -77.5q-199 0 -322 131.5t-123 326.5z" />
<glyph unicode="&#xaa;" horiz-adv-x="647" d="M88 987q0 135 112.5 282.5t221.5 147.5q47 0 66.5 -27.5t19.5 -50.5q0 -25 -23.5 -45t-38.5 -20q-8 0 -20 18.5t-27 18.5q-8 0 -29.5 -7.5t-56 -28t-64.5 -51t-52.5 -85t-22.5 -121.5q0 -35 13.5 -53.5t27.5 -18.5q23 0 46.5 12.5t40.5 27.5t41 45t35 47l33 51l25 40 l25 37q16 29 33 29q25 0 47 -8t24 -17q0 2 2 4l-2 -4q-70 -145 -69 -276q0 -33 8 -47.5t33 -14.5q12 0 41 15v2q25 -8 8 -41q-8 -16 -33 -33.5t-64 -17.5q-61 0 -61 104q0 98 49 225l-111.5 -141t-91 -87t-98.5 -44q-49 0 -68.5 43t-19.5 90z" />
<glyph unicode="&#xab;" horiz-adv-x="1134" d="M111 504q0 16 8 33q76 82 221 216t211 185q14 10 35.5 -21.5t21.5 -46.5l2 -14q-61 -29 -171.5 -135.5t-207.5 -220.5q76 -90 195 -191.5t195 -140.5q2 -4 2 -14q0 -14 -12.5 -31t-27 -27t-18.5 -6q-45 31 -206.5 170t-223.5 172q-24 15 -24 72zM500 504q0 16 8 33 q137 135 475 401q12 10 34.5 -22.5t22.5 -45.5l2 -14q-68 -31 -201.5 -142.5t-219.5 -213.5q68 -84 199.5 -181.5t232.5 -150.5q2 -4 2 -14q0 -14 -13.5 -32t-27 -27t-17.5 -5q-63 31 -238 172t-235 170q-24 15 -24 72z" />
<glyph unicode="&#xac;" horiz-adv-x="1148" d="M121 842q0 70 33 82q20 -2 98 -2q362 0 760 55q31 -6 30 -57q0 -2 -1 -8.5t-1 -8.5q0 -6 1 -18.5t1 -20.5t-1 -21.5t-1 -17.5q-16 -207 -67 -391q-4 -14 -21.5 -26.5t-36.5 -12.5q-20 0 -32.5 10.5t-12.5 18.5v4l2 2q57 176 58 352q0 8 -1 25.5t-1 28.5q-395 0 -776 -56 q-31 13 -31 62z" />
<glyph unicode="&#xad;" horiz-adv-x="831" d="M94 506v6q4 55 23 59q2 0 8 -1t10 -1q305 0 588 52q16 -16 16 -52q0 -51 -22 -73q-14 2 -70 2q-240 0 -534 -49q-19 14 -19 57zM113 573q2 -2 4 -2v2h-4z" />
<glyph unicode="&#xae;" horiz-adv-x="2015" d="M211 604q0 338 236.5 573.5t576.5 235.5t576.5 -235.5t236.5 -573.5t-236.5 -572.5t-576.5 -234.5t-576.5 234.5t-236.5 572.5zM332 604q0 -285 204.5 -485.5t487.5 -200.5t486.5 200.5t203.5 485.5t-204.5 486.5t-485.5 201.5q-283 0 -487.5 -201.5t-204.5 -486.5z M733 176v868h375q305 0 305 -221q0 -223 -299 -231l272 -416h-110l-272 416h-179v-416h-92zM825 686h260q51 0 86 4t73 17.5t57.5 43t19.5 74.5q0 127 -238 127h-258v-266z" />
<glyph unicode="&#xaf;" horiz-adv-x="1024" d="M387 1196q0 55 21 70q211 -23 520 2q10 -10 10 -39q0 -43 -23 -66q-211 23 -520 -2q-8 12 -8 35z" />
<glyph unicode="&#xb0;" horiz-adv-x="647" d="M88 1059q0 123 83 239.5t208 116.5q80 0 131 -62.5t51 -156.5q0 -137 -92 -247.5t-201 -110.5q-80 0 -130 63.5t-50 157.5zM176 1092q0 -61 33 -99.5t86 -38.5q66 0 121 62.5t55 142.5q0 61 -34 101t-85 40q-72 0 -124 -65t-52 -143z" />
<glyph unicode="&#xb1;" horiz-adv-x="1116" d="M53 111v10q4 63 31 72q408 -12 860 53q29 -6 29 -64q0 -27 -10.5 -51.5t-24.5 -28.5q-375 10 -856 -53q-29 13 -29 62zM123 815v10q8 66 31 72q82 -10 389 4q45 274 49 422q2 18 26.5 31.5t53.5 13.5q59 0 65 -41q-18 -141 -86 -420q174 16 363 43q29 -6 28 -57 q0 -72 -32 -86q-82 10 -381 -4q-43 -262 -43 -354v-27q-8 -43 -74 -43q-25 0 -46.5 12t-25.5 33l82 371q-211 -18 -370 -41q-29 12 -29 61z" />
<glyph unicode="&#xb2;" horiz-adv-x="647" d="M125 885q4 0 39 18.5t95 60.5t108 91q94 96 94 196q0 111 -70 111q-66 0 -106.5 -28.5t-40.5 -78.5q0 -45 -41 -45q-16 0 -17 39q0 94 73 143.5t161 49.5q66 0 93.5 -41t27.5 -92q0 -193 -283 -410q49 4 110.5 7t75.5 5q45 4 57.5 -9t12.5 -50h-57q-156 0 -279 -31 q-6 -2 -10 -2q-20 0 -31.5 25t-11.5 41z" />
<glyph unicode="&#xb3;" horiz-adv-x="647" d="M143 940q0 29 19 29q43 0 43 -15q0 -2 -1 -6t-1 -10q0 -72 59 -72q63 0 137 48.5t74 103.5q0 41 -62.5 56.5t-124 25.5t-59.5 41q0 16 49 49q10 8 42 28.5t50.5 34t41 33t34 36.5t11.5 32q0 35 -49 35q-51 0 -91.5 -27t-61 -52.5t-24.5 -25.5q-20 0 -35.5 15.5t-0.5 37.5 q25 39 97 75t140 36q31 0 59.5 -21.5t28.5 -48.5q0 -57 -71.5 -124.5t-149.5 -96.5q29 -2 62.5 -8t79.5 -17.5t76 -34t30 -50.5q0 -82 -86 -154t-226 -72q-29 0 -49 14.5t-27 37t-10.5 38t-3.5 29.5z" />
<glyph unicode="&#xb4;" horiz-adv-x="1024" d="M524 1124l21 15q18 12 50 36l69 53q37 30 78.5 71.5t72.5 82.5q18 14 37 15q33 0 64.5 -25.5t31.5 -52.5q0 -14 -8 -25l-47 -34q-84 -61 -191.5 -132t-113.5 -69q-23 0 -43.5 21t-20.5 44z" />
<glyph unicode="&#xb5;" horiz-adv-x="940" d="M51 -174q0 383 60 686q6 29 61 248l45 184q14 14 31 14q33 0 67.5 -26.5t34.5 -46.5q-55 -100 -108.5 -302t-53.5 -327q0 -121 66 -121q106 0 211.5 111.5t164 232.5t72.5 199l13 67q10 61 82 62q51 0 51 -41q0 -10 -4 -18l-13 -58q-4 -16 -15 -70l-17 -83l-16.5 -82.5 t-15.5 -92t-8 -87t-3 -91.5q0 -188 55 -188q29 0 51 14l-2 -2l6 4v2q16 -2 37 -21.5t21 -40t-34 -41t-95 -20.5q-78 0 -111 83t-33 200q0 133 17 238q-74 -158 -203 -282t-223 -124q-66 0 -88 62q0 -406 47 -502q2 -6 2 -15q-16 -37 -99 -36q-53 0 -53 311z" />
<glyph unicode="&#x3bc;" horiz-adv-x="940" d="M51 -174q0 383 60 686q6 29 61 248l45 184q14 14 31 14q33 0 67.5 -26.5t34.5 -46.5q-55 -100 -108.5 -302t-53.5 -327q0 -121 66 -121q106 0 211.5 111.5t164 232.5t72.5 199l13 67q10 61 82 62q51 0 51 -41q0 -10 -4 -18l-13 -58q-4 -16 -15 -70l-17 -83l-16.5 -82.5 t-15.5 -92t-8 -87t-3 -91.5q0 -188 55 -188q29 0 51 14l-2 -2l6 4v2q16 -2 37 -21.5t21 -40t-34 -41t-95 -20.5q-78 0 -111 83t-33 200q0 133 17 238q-74 -158 -203 -282t-223 -124q-66 0 -88 62q0 -406 47 -502q2 -6 2 -15q-16 -37 -99 -36q-53 0 -53 311z" />
<glyph unicode="&#xb6;" horiz-adv-x="1282" d="M57 840q0 92 47.5 175t128 145.5t161.5 107.5t175 82l11 51q12 59 18 81.5t22.5 41t45.5 18.5q66 0 65 -67q0 -6 -4 -23l-12 -59q131 37 235 55l13 35q23 59 73 59q27 0 45.5 -20.5t20.5 -59.5h65q78 0 108 -12t30 -49q0 -39 -19.5 -59.5t-48.5 -20.5q-8 0 -63.5 6 t-104.5 6q-84 -303 -123 -557q78 -27 78 -63q0 -33 -100 -92q-25 -258 -25 -410q0 -160 84 -358q8 -23 -13.5 -53.5t-51.5 -30.5q-57 0 -96.5 88t-39.5 233q0 242 27 463l-59 -21q-121 -43 -207 -49l-8 -82q-14 -123 -15 -239q0 -84 17.5 -148.5t41.5 -110.5l25 -50 q6 -25 -11.5 -54.5t-47.5 -29.5q-133 0 -133 321q0 162 22 387q-162 12 -269.5 109.5t-107.5 253.5zM188 805q0 -104 79 -160.5t179 -62.5q0 55 28 254.5t71 386.5q-357 -187 -357 -418zM549 590q170 39 285 119q10 135 100 616q-127 -12 -252 -47l-45 -191 q-61 -239 -88 -497z" />
<glyph unicode="&#xb7;" horiz-adv-x="360" d="M111 487q0 51 28.5 99.5t79.5 44.5q47 -4 47 -80q0 -47 -27.5 -96t-72.5 -49q-55 -1 -55 81z" />
<glyph unicode="&#xb8;" horiz-adv-x="851" d="M168 -252q61 31 108 80q16 18 38 46l35 44q13 16 18 16q18 0 34.5 -11t16.5 -21q0 -12 -92 -88l-60 -50q137 -14 137 -83q0 -39 -26 -74q-25 -33 -82 -76t-72 -43q-12 0 -20 17.5t-8 37.5q0 2 1 4t1 4q47 16 103 59.5t56 82.5q-31 16 -63 16q-27 0 -60.5 -9t-44.5 -9 q-12 0 -19 25.5t-1 31.5z" />
<glyph unicode="&#xb9;" horiz-adv-x="647" d="M174 852q0 12 25 16l80 17q4 47 11 97t14 84l20 89q12 55 18 86l20 102l-135 -100q-8 0 -15 11.5t-7 25.5q0 10 8 16q76 43 178 136q20 0 46 -8.5t26 -20.5q-100 -244 -101 -473q0 -6 1.5 -18.5t1.5 -20.5q14 0 43.5 3t37.5 3q10 0 19.5 -14.5t9.5 -26.5 q-176 -31 -272 -53q-10 -2 -19.5 17.5t-9.5 31.5z" />
<glyph unicode="&#xba;" horiz-adv-x="647" d="M102 975q0 143 106.5 302t168.5 159q27 0 26 -60v-10q41 12 60 12q59 0 82.5 -42t23.5 -91q0 -76 -45 -175t-125 -176t-159 -77q-68 0 -103 47.5t-35 110.5zM190 1012q0 -43 23 -67.5t59 -24.5q74 0 140.5 103t66.5 185q0 68 -37 68q-8 0 -17 -3t-15 -7l-7 -4 q-14 0 -14 34q0 18 8 35q-80 -45 -143.5 -144t-63.5 -175z" />
<glyph unicode="&#xbb;" horiz-adv-x="1134" d="M111 874q0 16 18 37t35 27q45 -23 231.5 -167t249.5 -175h-2q23 -14 23 -72q0 -6 -9 -35l-77 -67q-311 -272 -398 -334q2 0 2 2q-16 -2 -37.5 26.5t-21.5 41.5v14h-2q68 31 202 142.5t220 213.5q-68 86 -202 184.5t-230 147.5q-2 6 -2 14zM543 874q0 16 17.5 37t35.5 27 q47 -25 214 -169t224 -173h-2q23 -14 23 -72q0 -6 -8 -35l-214 -202q-169 -162 -217 -195h2l-4 -2q-16 0 -36.5 27.5t-20.5 40.5v14h-2q61 29 171 134.5t208 221.5q-74 90 -193.5 191.5t-195.5 140.5q-2 6 -2 14z" />
<glyph unicode="&#xbc;" horiz-adv-x="1339" d="M168 868q0 12 35 19l86 20q33 215 102 537l-155 -115v2h-3q-8 0 -17 16.5t-9 32.5q0 12 8 19q111 57 209 160q33 0 63.5 -10.5t30.5 -32.5q-111 -299 -119 -601q14 0 50 3.5t47 3.5q12 0 24 -18.5t12 -31.5q0 -10 -58 -18l-141 -20q-83 -12 -122 -27q-2 -2 -6 -2 q-12 0 -24.5 24.5t-12.5 38.5zM236 -84q0 104 118.5 331.5t259.5 450.5q373 596 486 797q10 20 16 26.5t21 6.5q18 0 30.5 -18.5t12.5 -36.5q0 -27 -15 -56q-76 -139 -235.5 -370.5t-222.5 -333.5q-127 -209 -253 -466t-132 -339q-23 -74 -58 -74q-20 0 -24 13.5t-4 68.5z M668 199l8 10q10 10 30.5 34.5t46 61.5t63.5 103.5t79 150.5q16 35 23.5 73t12.5 51t23 13q16 0 41 -9t25 -19q0 -51 -121 -267q-49 -88 -131 -186q111 -20 274 -4q43 174 43 377v24q0 16 74 17q16 0 21 -19q-27 -227 -45 -317l-11 -74q90 18 96.5 18.5t12.5 -19t6 -34.5 q0 -6 -2 -11t-8 -8t-13.5 -5t-19.5 -4t-24.5 -3t-31.5 -3l-38 -5q-55 -201 -88 -200q-16 0 -44 9t-28 19q16 16 80 172l-106 -5q-62 -3 -80.5 -3t-83.5 2h-17q-12 0 -16 1t-14.5 2t-14.5 4l-9 8q-5 4 -7 10t-2 14z" />
<glyph unicode="&#xbd;" horiz-adv-x="1339" d="M168 868q0 12 35 19l88 20q6 125 65 377l37 162l-47 -29l-39 -28q-14 -10 -31.5 -25.5l-27.5 -24.5l-10 -8q-8 0 -17.5 19.5t-9.5 38.5q0 8 6 12l-2 -2q111 57 209 160q88 0 94 -46q-51 -133 -85 -289.5t-34 -262.5v-46q14 0 50 3.5t46.5 3.5t23.5 -18.5t13 -31 t-58 -20.5l-142 -19q-84 -11 -125 -26q-16 2 -27.5 24.5t-11.5 36.5zM236 -84q0 104 118.5 331.5t259.5 450.5q373 596 486 797q10 20 16 26.5t21 6.5q18 0 30.5 -18.5t12.5 -36.5q0 -27 -15 -56q-76 -139 -235.5 -370.5t-222.5 -333.5q-127 -209 -253 -466t-132 -339 q-23 -74 -58 -74q-20 0 -24 13.5t-4 68.5zM786 53l45 25q43 25 110 71t118 101q106 113 106 217q0 125 -75 125q-74 0 -119 -33t-45 -88q0 -49 -52 -49q-18 0 -18 43q0 111 83 166t183 55q74 0 106 -46t32 -105q0 -221 -316 -459q143 10 205 10q82 0 82 -70q0 -4 2 -4 q-25 0 -45.5 1t-24.5 1q-104 0 -325 -37q-18 -2 -31.5 15.5t-17 34t-3.5 26.5z" />
<glyph unicode="&#xbe;" horiz-adv-x="1339" d="M137 961q0 39 25 38q51 0 51 -22v-8v-4q-2 -4 -2 -7q0 -80 68 -79q72 0 156.5 54t84.5 118q0 43 -51 65.5t-115 22.5q-70 0 -108.5 13t-18.5 46q14 35 144.5 118t130.5 128q0 35 -58 35q-47 0 -87 -18.5t-58 -40l-32.5 -40t-18.5 -18.5q-31 0 -48.5 16.5t-2.5 44.5l2 2 q25 43 109.5 85t164.5 42q35 0 71 -25.5t36 -58.5q0 -94 -279 -264q70 -4 101.5 -7t91 -14.5t87 -36t27.5 -61.5q0 -98 -99 -181t-263 -83q-35 0 -58.5 17.5t-34 44t-13.5 45.5t-3 33zM195 -84q0 104 118.5 331.5t259.5 450.5q373 596 486 797q10 20 16 26.5t21 6.5 q18 0 30.5 -18.5t12.5 -36.5q0 -27 -15 -56q-76 -139 -235.5 -370.5t-222.5 -333.5q-127 -209 -253 -466t-132 -339q-23 -74 -58 -74q-20 0 -24 13.5t-4 68.5zM668 199q0 2 12 14l37 37q25 25 45 53h-2q76 106 135 256q16 35 23.5 73t12.5 51t23 13q16 0 41 -9t25 -19 q0 -33 -121 -267q-86 -133 -131 -186q74 -12 150 -12q57 0 124 8q45 186 45 344q0 6 -1 17.5t-1 15.5v24q0 16 74 17q16 0 21 -19q-4 -41 -23.5 -168t-21.5 -149l-11 -74l41 6q43 12 56 13q10 0 10 -62q0 -10 -4 -14t-14.5 -7t-22.5 -3t-38 -1t-50 -6q-20 -80 -46 -140 t-40 -60q-18 0 -46 9t-28 19q16 16 80 172q-68 -8 -115 -8q-55 0 -149 8q-10 0 -25.5 1t-24 1t-18.5 3.5t-14 9.5t-4 18z" />
<glyph unicode="&#xbf;" horiz-adv-x="1165" d="M104 -59q0 145 70 279t168 220t195.5 137.5t160.5 51.5q8 29 10.5 79t12.5 70.5t45 20.5q29 0 41 -8.5t8 -24.5q-31 -190 -31 -348q-4 -41 -61 -41t-57 41q0 6 2 18l6 37q4 25 8 45q-152 -31 -306.5 -207t-160.5 -338q-4 -113 60.5 -179t164.5 -66q121 0 226.5 71.5 t105.5 177.5q0 18 -7 52t-7 43q2 35 26.5 65.5t59.5 30.5q29 0 53.5 -34t24.5 -103q0 -199 -150.5 -312.5t-331.5 -113.5q-160 0 -248 96.5t-88 239.5zM727 991q0 45 30.5 97.5t73.5 52.5q25 0 39.5 -22.5t14.5 -57.5q0 -57 -35 -101.5t-74 -44.5q-20 0 -34.5 21.5 t-14.5 54.5z" />
<glyph unicode="&#xc0;" horiz-adv-x="1259" d="M51 -51q0 14 6 41l-2 -2l54 114q59 129 131 271l-13 26q-41 8 -59 23.5t-18 48.5q0 35 27.5 54.5t53 24.5t78.5 11h-2l39 4q238 442 545 865q51 61 88 61q43 0 89 -29.5t48 -66.5q-2 -23 -16.5 -142.5t-24.5 -214t-19 -215.5t-9 -196h67q59 0 82 -8.5t23 -40.5 q0 -25 -19.5 -40.5t-40.5 -17.5q-6 0 -20.5 3t-27.5 4t-30 1h-34q8 -137 36.5 -242.5t58.5 -151.5l53 -80q24 -34 24 -48q0 -29 -24 -58.5t-54 -29.5q-25 0 -51 23q-72 90 -111 252.5t-45 328.5q-324 -23 -531 -88l-94 -232l-77 -185q-28 -65 -35 -93h2q-23 -49 -78 -49 q-70 0 -70 74zM485 588q170 31 449 39v35q0 76 7 194.5t18.5 269t15.5 217.5q-218 -249 -490 -755zM872 1783q0 33 25.5 67t52.5 34q8 0 16 -9q12 -12 86 -73l139 -118q65 -56 64 -67q0 -66 -24 -65q-14 0 -343 194q-16 14 -16 37z" />
<glyph unicode="&#xc1;" horiz-adv-x="1259" d="M51 -51q0 14 6 41l-2 -2l54 114q59 129 131 271l-13 26q-41 8 -59 23.5t-18 48.5q0 35 27.5 54.5t53 24.5t78.5 11h-2l39 4q238 442 545 865q51 61 88 61q43 0 89 -29.5t48 -66.5q-2 -23 -16.5 -142.5t-24.5 -214t-19 -215.5t-9 -196h67q59 0 82 -8.5t23 -40.5 q0 -25 -19.5 -40.5t-40.5 -17.5q-6 0 -20.5 3t-27.5 4t-30 1h-34q8 -137 36.5 -242.5t58.5 -151.5l53 -80q24 -34 24 -48q0 -29 -24 -58.5t-54 -29.5q-25 0 -51 23q-72 90 -111 252.5t-45 328.5q-324 -23 -531 -88l-94 -232l-77 -185q-28 -65 -35 -93h2q-23 -49 -78 -49 q-70 0 -70 74zM485 588q170 31 449 39v35q0 76 7 194.5t18.5 269t15.5 217.5q-218 -249 -490 -755zM836 1624l20 14q18 12 50 36l69 53q37 30 79 72t72 83q18 14 37 14q33 0 65 -25.5t32 -51.5q0 -14 -9 -25l-47 -35q-84 -61 -191.5 -132t-113.5 -68q-23 0 -43 21t-20 44z " />
<glyph unicode="&#xc2;" horiz-adv-x="1259" d="M51 -51q0 14 6 41l-2 -2l54 114q59 129 131 271l-13 26q-41 8 -59 23.5t-18 48.5q0 35 27.5 54.5t53 24.5t78.5 11h-2l39 4q238 442 545 865q51 61 88 61q43 0 89 -29.5t48 -66.5q-2 -23 -16.5 -142.5t-24.5 -214t-19 -215.5t-9 -196h67q59 0 82 -8.5t23 -40.5 q0 -25 -19.5 -40.5t-40.5 -17.5q-6 0 -20.5 3t-27.5 4t-30 1h-34q8 -137 36.5 -242.5t58.5 -151.5l53 -80q24 -34 24 -48q0 -29 -24 -58.5t-54 -29.5q-25 0 -51 23q-72 90 -111 252.5t-45 328.5q-324 -23 -531 -88l-94 -232l-77 -185q-28 -65 -35 -93h2q-23 -49 -78 -49 q-70 0 -70 74zM485 588q170 31 449 39v35q0 76 7 194.5t18.5 269t15.5 217.5q-218 -249 -490 -755zM704 1654q0 20 106.5 94t233.5 136q20 10 33 10q27 0 43 -14q162 -133 223 -199q-4 -25 -25.5 -53.5t-37.5 -28.5l-232 160q-76 -25 -155.5 -71t-116.5 -81 q-25 4 -48.5 17.5t-23.5 29.5z" />
<glyph unicode="&#xc3;" horiz-adv-x="1259" d="M51 -51q0 14 6 41l-2 -2l54 114q59 129 131 271l-13 26q-41 8 -59 23.5t-18 48.5q0 35 27.5 54.5t53 24.5t78.5 11h-2l39 4q238 442 545 865q51 61 88 61q43 0 89 -29.5t48 -66.5q-2 -23 -16.5 -142.5t-24.5 -214t-19 -215.5t-9 -196h67q59 0 82 -8.5t23 -40.5 q0 -25 -19.5 -40.5t-40.5 -17.5q-6 0 -20.5 3t-27.5 4t-30 1h-34q8 -137 36.5 -242.5t58.5 -151.5l53 -80q24 -34 24 -48q0 -29 -24 -58.5t-54 -29.5q-25 0 -51 23q-72 90 -111 252.5t-45 328.5q-324 -23 -531 -88l-94 -232l-77 -185q-28 -65 -35 -93h2q-23 -49 -78 -49 q-70 0 -70 74zM485 588q170 31 449 39v35q0 76 7 194.5t18.5 269t15.5 217.5q-218 -249 -490 -755zM717 1710q0 4 4 16l-2 -2q10 23 53 70q63 70 133 70q45 0 123 -64.5t109 -64.5q53 0 84.5 26.5t46 53t24.5 26.5q20 0 48 -19.5t28 -41.5v-6q-96 -131 -213 -132 q-53 0 -128 62.5t-120 62.5q-37 0 -69.5 -51t-36.5 -51q-84 0 -84 45z" />
<glyph unicode="&#xc4;" horiz-adv-x="1259" d="M51 -51q0 14 6 41l-2 -2l54 114q59 129 131 271l-13 26q-41 8 -59 23.5t-18 48.5q0 35 27.5 54.5t53 24.5t78.5 11h-2l39 4q238 442 545 865q51 61 88 61q43 0 89 -29.5t48 -66.5q-2 -23 -16.5 -142.5t-24.5 -214t-19 -215.5t-9 -196h67q59 0 82 -8.5t23 -40.5 q0 -25 -19.5 -40.5t-40.5 -17.5q-6 0 -20.5 3t-27.5 4t-30 1h-34q8 -137 36.5 -242.5t58.5 -151.5l53 -80q24 -34 24 -48q0 -29 -24 -58.5t-54 -29.5q-25 0 -51 23q-72 90 -111 252.5t-45 328.5q-324 -23 -531 -88l-94 -232l-77 -185q-28 -65 -35 -93h2q-23 -49 -78 -49 q-70 0 -70 74zM485 588q170 31 449 39v35q0 76 7 194.5t18.5 269t15.5 217.5q-218 -249 -490 -755zM819 1698q0 72 45 111t95 39q37 0 36 -41q0 -53 -37.5 -107.5t-95.5 -54.5q-43 0 -43 53zM1114 1700q0 70 47 109t93 39q39 0 38 -43q0 -51 -38.5 -105.5t-94.5 -54.5 q-18 0 -31.5 14t-13.5 41z" />
<glyph unicode="&#xc5;" horiz-adv-x="1259" d="M51 -51q0 14 6 41l-2 -2l54 114q59 129 131 271l-13 26q-41 8 -59 23.5t-18 48.5q0 35 27.5 54.5t53 24.5t78.5 11h-2l39 4q238 442 545 865q51 61 88 61q43 0 89 -29.5t48 -66.5q-2 -23 -16.5 -142.5t-24.5 -214t-19 -215.5t-9 -196h67q59 0 82 -8.5t23 -40.5 q0 -25 -19.5 -40.5t-40.5 -17.5q-6 0 -20.5 3t-27.5 4t-30 1h-34q8 -137 36.5 -242.5t58.5 -151.5l53 -80q24 -34 24 -48q0 -29 -24 -58.5t-54 -29.5q-25 0 -51 23q-72 90 -111 252.5t-45 328.5q-324 -23 -531 -88l-94 -232l-77 -185q-28 -65 -35 -93h2q-23 -49 -78 -49 q-70 0 -70 74zM485 588q170 31 449 39v35q0 76 7 194.5t18.5 269t15.5 217.5q-218 -249 -490 -755zM903 1710q0 74 60.5 129t134.5 55q63 0 112.5 -31.5t49.5 -101.5q0 -80 -55.5 -140t-135.5 -60q-166 -1 -166 149zM981 1698q0 -72 88 -72q47 0 76 33t29 84q0 86 -82 86 q-51 0 -81 -40t-30 -91z" />
<glyph unicode="&#xc6;" horiz-adv-x="2031" d="M47 -51q0 14 6 41l-2 -2l53 114q51 113 142 293q-51 10 -68.5 23.5t-17.5 44.5q0 51 55 76.5t127 25.5q238 442 545 865q51 61 88 61q47 0 92 -27.5t45 -68.5q-43 -522 -45 -746l180 23q27 145 84.5 349t83.5 228q6 6 21 6q35 0 64.5 -21.5t29.5 -45.5q0 -6 -33 -88 t-76 -204t-63 -214l256 27q227 23 319 28q25 0 25 -55q0 -37 -53 -41q-352 -33 -564 -76q-25 -162 -24 -413v-70q78 6 264 45l88 18q115 25 250 25q94 0 94 -31q0 -25 -12 -46t-27 -25q-20 10 -57 10q-45 0 -96.5 -8.5t-118 -26.5t-104.5 -31l-120 -41q-83 -29 -104 -37 q-80 -29 -88 -28q-29 0 -59 31q-8 0 -27.5 -2.5t-36.5 -2.5q-25 0 -51 25q-137 168 -154 569l-559 -92l-94 -232l-77 -185q-28 -65 -35 -93h2q-23 -49 -78 -49q-70 0 -70 74zM471 575l485 56v45q0 352 15 667q-215 -244 -500 -768zM1067 535q14 -252 115 -472q20 307 41 492 zM1196 1327q0 35 65.5 60.5t163 37t169 15.5t122.5 4q109 0 245 -34t136 -69q0 -18 -16.5 -42.5t-32.5 -24.5q-2 0 -39 14.5t-95.5 28.5t-111.5 14q-213 0 -405 -57q-16 -4 -59.5 -25.5t-53.5 -21.5q-45 0 -70 37l-2 2q-16 24 -16 61zM2044 1274h4h-4z" />
<glyph unicode="&#xc7;" horiz-adv-x="1167" d="M80 322q0 152 59.5 340t157.5 358t244.5 284.5t302.5 114.5q123 0 225 -83t123 -199q4 -66 4 -74q0 -98 -29.5 -145.5t-62.5 -47.5q-35 0 -59.5 30t-24.5 67q0 6 4 26v-2l8 19q33 76 33 106q0 76 -56.5 129t-162.5 53q-133 0 -256 -109.5t-203 -271t-127 -340t-47 -323.5 q0 -135 70.5 -214t169.5 -79q215 0 360 139.5t227 341.5q23 53 60 54q23 0 36 -19.5t13 -50.5q0 -47 -16 -78q-119 -207 -301.5 -353.5t-411.5 -146.5q-68 0 -122 23t-89 57.5t-60.5 83.5t-38 92t-20.5 92.5t-9 75t-1 50.5zM369 -322q61 31 108 80q16 18 38 46l35 44 q13 16 18 16q18 0 34.5 -11t16.5 -21q0 -12 -92 -88l-60 -50q137 -14 137 -83q0 -39 -26 -74q-25 -33 -82 -76t-72 -43q-12 0 -20 17.5t-8 37.5q0 2 1 4t1 4q47 16 103 59.5t56 82.5q-31 16 -63 16q-27 0 -60.5 -9t-44.5 -9q-12 0 -19 25.5t-1 31.5z" />
<glyph unicode="&#xc8;" horiz-adv-x="1003" d="M43 557q0 47 158 96q27 137 86 349t80 239q12 14 36 14q33 -2 58.5 -23.5t25.5 -43.5q0 -4 -31.5 -85t-75.5 -205t-67 -218q309 57 533 57q53 0 61 -12t8 -43q0 -41 -53 -41q-131 0 -286.5 -20.5t-243.5 -49.5q-14 -6 -37 -10q-20 -158 -21 -409v-70q82 8 263 45l88 18 q119 25 252 25q92 0 92 -31q0 -25 -12.5 -45t-24.5 -26q-20 10 -58 10h-18q-37 0 -78 -6q-51 -8 -116.5 -26.5t-106.5 -32t-120 -42l-103 -37.5l-78 -26h2q-4 -2 -12 -2q-16 0 -37 20q-27 4 -48.5 18.5t-21.5 35.5q0 82 47 542q-6 -6 -32.5 -27.5t-30.5 -21.5q-29 0 -60 45 l2 -2l-10 14q-10 13 -10 27zM154 1327q0 35 65.5 60.5t162.5 37t169 15.5t123 4q109 0 244 -34t135 -69q0 -20 -14.5 -40.5t-32.5 -26.5q0 -2 -34 11t-98.5 29.5t-123.5 16.5q-307 -8 -457 -84q-37 -20 -51 -20q-47 0 -70 37l-2 2q-16 24 -16 61zM1001 1274h5h-5zM446 1792 q0 33 25.5 67t52.5 34q8 0 16 -9q12 -12 86 -73l139 -118q65 -56 64 -67q0 -66 -24 -65q-14 0 -343 194q-16 14 -16 37z" />
<glyph unicode="&#xc9;" horiz-adv-x="1003" d="M43 557q0 47 158 96q27 137 86 349t80 239q12 14 36 14q33 -2 58.5 -23.5t25.5 -43.5q0 -4 -31.5 -85t-75.5 -205t-67 -218q309 57 533 57q53 0 61 -12t8 -43q0 -41 -53 -41q-131 0 -286.5 -20.5t-243.5 -49.5q-14 -6 -37 -10q-20 -158 -21 -409v-70q82 8 263 45l88 18 q119 25 252 25q92 0 92 -31q0 -25 -12.5 -45t-24.5 -26q-20 10 -58 10q-45 2 -96 -6.5t-116.5 -26.5t-106.5 -31.5t-120 -42l-103 -37.5l-78 -26h2q-4 -2 -12 -2q-16 0 -37 20q-27 4 -48.5 18.5t-21.5 35.5q0 82 47 542q-6 -6 -32.5 -27.5t-30.5 -21.5q-29 0 -60 45l2 -2 l-10 14q-10 13 -10 27zM154 1327q0 35 65.5 60.5t162.5 37t169 15.5t123 4q109 0 244 -34t135 -69q0 -20 -14.5 -40.5t-32.5 -26.5q0 -2 -34 11t-98.5 29.5t-123.5 16.5q-307 -8 -457 -84q-37 -20 -51 -20q-47 0 -70 37l-2 2q-16 24 -16 61zM516 1620l21 14q18 12 50 36 l68 53q37 30 79 72t73 83q18 14 37 14q33 0 64.5 -25.5t31.5 -51.5q0 -14 -8 -25l-47 -35q-84 -61 -191.5 -132t-113.5 -69q-23 0 -43.5 21.5t-20.5 44.5zM1001 1274h5h-5z" />
<glyph unicode="&#xca;" horiz-adv-x="1003" d="M43 557q0 47 158 96q27 137 86 349t80 239q12 14 36 14q33 -2 58.5 -23.5t25.5 -43.5q0 -4 -31.5 -85t-75.5 -205t-67 -218q309 57 533 57q53 0 61 -12t8 -43q0 -41 -53 -41q-131 0 -286.5 -20.5t-243.5 -49.5q-14 -6 -37 -10q-20 -158 -21 -409v-70q82 8 263 45l88 18 q119 25 252 25q92 0 92 -31q0 -25 -12.5 -45t-24.5 -26q-20 10 -58 10h-18q-37 0 -78 -6q-51 -8 -116.5 -26.5t-106.5 -32t-120 -42l-103 -37.5l-78 -26h2q-4 -2 -12 -2q-16 0 -37 20q-27 4 -48.5 18.5t-21.5 35.5q0 82 47 542q-6 -6 -32.5 -27.5t-30.5 -21.5q-29 0 -60 45 l2 -2l-10 14q-10 13 -10 27zM154 1327q0 35 65.5 60.5t162.5 37t169 15.5t123 4q109 0 244 -34t135 -69q0 -20 -14.5 -40.5t-32.5 -26.5q0 -2 -34 11t-98.5 29.5t-123.5 16.5q-307 -8 -457 -84q-37 -20 -51 -20q-47 0 -70 37l-2 2q-16 24 -16 61zM1001 1274h5h-5zM409 1657 q0 20 106.5 94t233.5 136q20 10 33 10q27 0 43 -14q162 -133 223 -199q-4 -25 -25.5 -53.5t-37.5 -28.5l-232 160q-76 -25 -155.5 -71t-116.5 -81q-25 4 -48.5 17.5t-23.5 29.5z" />
<glyph unicode="&#xcb;" horiz-adv-x="1003" d="M43 557q0 47 158 96q27 137 86 349t80 239q12 14 36 14q33 -2 58.5 -23.5t25.5 -43.5q0 -4 -31.5 -85t-75.5 -205t-67 -218q309 57 533 57q53 0 61 -12t8 -43q0 -41 -53 -41q-131 0 -286.5 -20.5t-243.5 -49.5q-14 -6 -37 -10q-20 -158 -21 -409v-70q82 8 263 45l88 18 q119 25 252 25q92 0 92 -31q0 -25 -12.5 -45t-24.5 -26q-20 10 -58 10q-45 2 -96 -6.5t-116.5 -26.5t-106.5 -31.5t-120 -42l-103 -37.5l-78 -26h2q-4 -2 -12 -2q-16 0 -37 20q-27 4 -48.5 18.5t-21.5 35.5q0 82 47 542q-6 -6 -32.5 -27.5t-30.5 -21.5q-29 0 -60 45l2 -2 l-10 14q-10 13 -10 27zM154 1327q0 35 65.5 60.5t162.5 37t169 15.5t123 4q109 0 244 -34t135 -69q0 -20 -14.5 -40.5t-32.5 -26.5q0 -2 -34 11t-98.5 29.5t-123.5 16.5q-307 -8 -457 -84q-37 -20 -51 -20q-47 0 -70 37l-2 2q-16 24 -16 61zM475 1698q0 72 45 110.5t94 38.5 q37 0 37 -41q0 -53 -38 -107t-95 -54q-43 0 -43 53zM770 1700q0 70 47 108.5t92 38.5q39 0 39 -43q0 -51 -39 -105t-94 -54q-18 0 -31.5 14t-13.5 41zM1001 1274h5h-5z" />
<glyph unicode="&#xcc;" horiz-adv-x="751" d="M16 -31q0 25 12.5 40.5t45 25.5t51 13t70.5 9l69 4q-27 33 -33 56q27 250 35 297q37 203 66 307l46 193l67 273q32 122 57 179q-111 -4 -232 -66q-31 2 -50 22.5t-19 53.5q0 39 49 62q109 45 336 45q209 0 309 -66l-2 2q14 -12 14 -36.5t-16.5 -45t-34.5 -20.5 q-6 0 -29.5 15.5t-65.5 31.5t-89 16q-14 0 -117 -16q55 -29 55 -84q0 -12 -2 -16q-31 -70 -86 -261.5t-82 -308.5q-20 -88 -40.5 -241.5t-20.5 -255.5q0 -70 -10 -109q-2 -2 -12.5 -9t-12.5 -9q219 25 289 39q18 -2 32.5 -26t14.5 -48q0 -23 -23.5 -30t-97.5 -14t-129 -18 l-119 -32q-176 -47 -209 -47q-86 -1 -86 75zM418 1788q0 33 25.5 67t52.5 34q8 0 16 -9q12 -12 86 -73l139 -118q65 -56 64 -67q0 -66 -24 -65q-14 0 -343 194q-16 14 -16 37z" />
<glyph unicode="&#xcd;" horiz-adv-x="751" d="M16 -31q0 25 12.5 40.5t45 25.5t51 13t70.5 9l69 4q-27 33 -33 56q27 250 35 297q37 203 66 307l46 193l67 273q32 122 57 179q-111 -4 -232 -66q-31 2 -50 22.5t-19 53.5q0 39 49 62q109 45 336 45q209 0 309 -66l-2 2q14 -12 14 -36.5t-16.5 -45t-34.5 -20.5 q-6 0 -29.5 15.5t-65.5 31.5t-89 16q-14 0 -117 -16q55 -29 55 -84q0 -12 -2 -16q-31 -70 -86 -261.5t-82 -308.5q-20 -88 -40.5 -241.5t-20.5 -255.5q0 -70 -10 -109q-2 -2 -12.5 -9t-12.5 -9q219 25 289 39q18 -2 32.5 -26t14.5 -48q0 -23 -23.5 -30t-97.5 -14t-129 -18 l-119 -32q-176 -47 -209 -47q-86 -1 -86 75zM399 1624l19 14q20 12 52 36l69 53q37 30 78.5 72t72.5 83q18 14 37 14q33 0 64.5 -25.5t31.5 -51.5q0 -14 -8 -25l-47 -35q-84 -61 -191.5 -132t-113.5 -68q-23 0 -43.5 21t-20.5 44z" />
<glyph unicode="&#xce;" horiz-adv-x="751" d="M16 -31q0 25 12.5 40.5t45 25.5t51 13t70.5 9l69 4q-27 33 -33 56q27 250 35 297q37 203 66 307l46 193l67 273q32 122 57 179q-111 -4 -232 -66q-31 2 -50 22.5t-19 53.5q0 39 49 62q109 45 336 45q209 0 309 -66l-2 2q14 -12 14 -36.5t-16.5 -45t-34.5 -20.5 q-6 0 -29.5 15.5t-65.5 31.5t-89 16q-14 0 -117 -16q55 -29 55 -84q0 -12 -2 -16q-31 -70 -86 -261.5t-82 -308.5q-20 -88 -40.5 -241.5t-20.5 -255.5q0 -70 -10 -109q-2 -2 -12.5 -9t-12.5 -9q219 25 289 39q18 -2 32.5 -26t14.5 -48q0 -23 -23.5 -30t-97.5 -14t-129 -18 l-119 -32q-176 -47 -209 -47q-86 -1 -86 75zM295 1648q0 20 106.5 94t233.5 136q20 10 33 10q27 0 43 -14q162 -133 223 -199q-4 -25 -25.5 -53.5t-37.5 -28.5l-232 160q-76 -25 -155.5 -71t-116.5 -81q-25 4 -48.5 17.5t-23.5 29.5z" />
<glyph unicode="&#xcf;" horiz-adv-x="751" d="M16 -31q0 25 12.5 40.5t45 25.5t51 13t70.5 9l69 4q-27 33 -33 56q27 250 35 297q37 203 66 307l46 193l67 273q32 122 57 179q-111 -4 -232 -66q-31 2 -50 22.5t-19 53.5q0 39 49 62q109 45 336 45q209 0 309 -66l-2 2q14 -12 14 -36.5t-16.5 -45t-34.5 -20.5 q-6 0 -29.5 15.5t-65.5 31.5t-89 16q-14 0 -117 -16q55 -29 55 -84q0 -12 -2 -16q-31 -70 -86 -261.5t-82 -308.5q-20 -88 -40.5 -241.5t-20.5 -255.5q0 -70 -10 -109q-2 -2 -12.5 -9t-12.5 -9q219 25 289 39q18 -2 32.5 -26t14.5 -48q0 -23 -23.5 -30t-97.5 -14t-129 -18 l-119 -32q-176 -47 -209 -47q-86 -1 -86 75zM395 1694q0 72 45 110.5t95 38.5q37 0 36 -41q0 -53 -37.5 -107.5t-95.5 -54.5q-43 1 -43 54zM690 1696q0 70 47 108.5t92 38.5q39 0 39 -43q0 -51 -38.5 -105.5t-94.5 -54.5q-18 0 -31.5 14.5t-13.5 41.5z" />
<glyph unicode="&#xd0;" horiz-adv-x="1363" d="M23 0q0 43 19 57.5t81 14.5q293 0 546 123.5t423 373.5q193 285 192 508q0 92 -68.5 154.5t-151.5 84t-173 21.5q-195 0 -420 -94q39 -43 39 -55l-4 -12h2q-92 -207 -139 -420q205 -4 336 -21q16 -2 31.5 -19.5t15.5 -41.5q0 -35 -29 -35l-39 10q-98 10 -197 10l-141 -4 q-41 -231 -41 -483q0 -45 -61 -45q-76 0 -78 39q12 178 63 473q-66 -25 -77 -31l8 2l-8 -4h-7l-6 -2h-2q-8 0 -12 2t-9 6t-8.5 12.5t-5.5 22.5l-4 19v-2q-8 25 -8 34q0 39 139 52h25q57 262 111 446q-72 -47 -109 -47q-29 0 -53.5 31.5t-24.5 68.5q0 66 142.5 118t290 73.5 t235.5 21.5q90 0 180 -18.5t177 -59.5t141.5 -117.5t54.5 -179.5q0 -199 -86 -387t-223.5 -326t-303 -243.5t-331.5 -160t-301 -54.5q-78 0 -104.5 18.5t-26.5 65.5z" />
<glyph unicode="&#xd1;" horiz-adv-x="1175" d="M41 72q29 231 101.5 646t142.5 712v-3q16 49 73 50q102 0 115 -179q29 -377 160 -827.5t201 -450.5q61 0 119.5 262.5t66.5 440.5q10 231 10 336q0 186 -22 373q4 66 86 71q51 0 70.5 -14t19.5 -51q-35 -723 -97 -1049q-92 -483 -264 -483q-98 0 -184 172 q-82 160 -164 477q-68 256 -135 586q-59 -260 -84 -408q-51 -299 -63 -561q-6 -119 -17 -137q-14 -25 -61 -25q-68 1 -74 62zM432 1702q0 4 4 16l-2 -2q10 23 54 70q63 70 133 69q45 0 122.5 -64.5t108.5 -64.5q53 0 85 27t46.5 53.5t24.5 26.5q20 0 48 -19.5t28 -41.5v-7 q-96 -131 -213 -131q-53 0 -128 62.5t-120 62.5q-37 0 -70 -51t-37 -51q-84 0 -84 45z" />
<glyph unicode="&#xd2;" horiz-adv-x="1320" d="M72 322q0 162 102 385q-39 82 -39 188q0 129 55.5 234.5t134 168t172 104.5t163 58.5t114.5 16.5q129 0 230 -43q340 -143 339 -566q-4 -365 -235 -647q-113 -137 -264 -233q-174 -106 -338 -107q-197 0 -315.5 122t-118.5 319zM190 352q0 -150 89.5 -256t242.5 -106 q137 0 265 83t227 216q94 129 151.5 294t57.5 324q0 127 -45 223.5t-116 146.5t-144.5 74.5t-147.5 24.5t-159 -33.5t-164.5 -96t-135 -166t-59.5 -226.5l86 125q127 178 180 235v-2q12 12 29 13q29 0 56.5 -23.5t27.5 -50.5q0 -16 -10 -31q-55 -45 -158 -170t-158 -215 q55 -72 125 -94v2q96 -37 96 -84q0 -55 -88 -55q-49 0 -91 20.5t-105 85.5q-52 -149 -52 -258zM657 1794q0 33 25.5 67t52.5 34q8 0 16 -9q12 -12 86 -73l139 -118q65 -56 64 -67q0 -66 -24 -65q-14 0 -343 194q-16 14 -16 37z" />
<glyph unicode="&#xd3;" horiz-adv-x="1320" d="M72 322q0 162 102 385q-39 82 -39 188q0 129 55.5 234.5t134 168t172 104.5t163 58.5t114.5 16.5q129 0 230 -43q340 -143 339 -566q-4 -365 -235 -647q-113 -137 -264 -233q-174 -106 -338 -107q-197 0 -315.5 122t-118.5 319zM190 352q0 -150 89.5 -256t242.5 -106 q137 0 265 83t227 216q94 129 151.5 294t57.5 324q0 127 -45 223.5t-116 146.5t-144.5 74.5t-147.5 24.5t-159 -33.5t-164.5 -96t-135 -166t-59.5 -226.5l86 125q127 178 180 235v-2q12 12 29 13q29 0 56.5 -23.5t27.5 -50.5q0 -16 -10 -31q-55 -45 -158 -170t-158 -215 q55 -72 125 -94v2q96 -37 96 -84q0 -55 -88 -55q-49 0 -91 20.5t-105 85.5q-52 -149 -52 -258zM625 1620l18 14q20 12 52 36l69 53q37 30 79 72t72 83q18 14 37 14q33 0 65 -25.5t32 -51.5q0 -14 -9 -25l-47 -35q-84 -61 -191.5 -132t-113.5 -69q-23 0 -43 21.5t-20 44.5z " />
<glyph unicode="&#xd4;" horiz-adv-x="1320" d="M72 322q0 162 102 385q-39 82 -39 188q0 129 55.5 234.5t134 168t172 104.5t163 58.5t114.5 16.5q129 0 230 -43q340 -143 339 -566q-4 -365 -235 -647q-113 -137 -264 -233q-174 -106 -338 -107q-197 0 -315.5 122t-118.5 319zM190 352q0 -150 89.5 -256t242.5 -106 q137 0 265 83t227 216q94 129 151.5 294t57.5 324q0 127 -45 223.5t-116 146.5t-144.5 74.5t-147.5 24.5t-159 -33.5t-164.5 -96t-135 -166t-59.5 -226.5l86 125q127 178 180 235v-2q12 12 29 13q29 0 56.5 -23.5t27.5 -50.5q0 -16 -10 -31q-55 -45 -158 -170t-158 -215 q55 -72 125 -94v2q96 -37 96 -84q0 -55 -88 -55q-49 0 -91 20.5t-105 85.5q-52 -149 -52 -258zM502 1648q0 20 106.5 94t233.5 136q20 10 33 10q27 0 43 -14q162 -133 223 -199q-4 -25 -25.5 -53.5t-37.5 -28.5l-232 160q-76 -25 -155.5 -71t-116.5 -81q-25 4 -48.5 17.5 t-23.5 29.5z" />
<glyph unicode="&#xd5;" horiz-adv-x="1320" d="M72 322q0 162 102 385q-39 82 -39 188q0 129 55.5 234.5t134 168t172 104.5t163 58.5t114.5 16.5q129 0 230 -43q340 -143 339 -566q-4 -365 -235 -647q-113 -137 -264 -233q-174 -106 -338 -107q-197 0 -315.5 122t-118.5 319zM190 352q0 -150 89.5 -256t242.5 -106 q137 0 265 83t227 216q94 129 151.5 294t57.5 324q0 127 -45 223.5t-116 146.5t-144.5 74.5t-147.5 24.5t-159 -33.5t-164.5 -96t-135 -166t-59.5 -226.5l86 125q127 178 180 235v-2q12 12 29 13q29 0 56.5 -23.5t27.5 -50.5q0 -16 -10 -31q-55 -45 -158 -170t-158 -215 q55 -72 125 -94v2q96 -37 96 -84q0 -55 -88 -55q-49 0 -91 20.5t-105 85.5q-52 -149 -52 -258zM524 1702q0 4 4 16l-2 -2q10 23 54 70q63 70 133 69q45 0 122.5 -64.5t108.5 -64.5q53 0 85 27t46.5 53.5t24.5 26.5q20 0 48 -19.5t28 -41.5v-7q-96 -131 -213 -131 q-53 0 -128 62.5t-120 62.5q-37 0 -70 -51t-37 -51q-84 0 -84 45z" />
<glyph unicode="&#xd6;" horiz-adv-x="1320" d="M72 322q0 162 102 385q-39 82 -39 188q0 129 55.5 234.5t134 168t172 104.5t163 58.5t114.5 16.5q129 0 230 -43q340 -143 339 -566q-4 -365 -235 -647q-113 -137 -264 -233q-174 -106 -338 -107q-197 0 -315.5 122t-118.5 319zM190 352q0 -150 89.5 -256t242.5 -106 q137 0 265 83t227 216q94 129 151.5 294t57.5 324q0 127 -45 223.5t-116 146.5t-144.5 74.5t-147.5 24.5t-159 -33.5t-164.5 -96t-135 -166t-59.5 -226.5l86 125q127 178 180 235v-2q12 12 29 13q29 0 56.5 -23.5t27.5 -50.5q0 -16 -10 -31q-55 -45 -158 -170t-158 -215 q55 -72 125 -94v2q96 -37 96 -84q0 -55 -88 -55q-49 0 -91 20.5t-105 85.5q-52 -149 -52 -258zM606 1698q0 72 45 111t95 39q37 0 36 -41q0 -53 -37.5 -107.5t-95.5 -54.5q-43 0 -43 53zM901 1700q0 70 47 109t93 39q39 0 38 -43q0 -51 -38.5 -105.5t-94.5 -54.5 q-18 0 -31.5 14t-13.5 41z" />
<glyph unicode="&#xd7;" horiz-adv-x="1024" d="M135 414q0 20 15 35h-3l314 260q-125 129 -262 252q-4 4 -4 12q0 29 31.5 62.5t56.5 33.5q4 0 16 -4q12 -25 39 -58.5l48 -57.5l60 -65q39 -42 54 -57l43 -47q70 57 115 103l95 94l89 88h-2q4 4 20 4q29 0 57.5 -27.5t28.5 -58.5q0 -4 -1 -7l-2 -6q-1 -3 -3 -5l-6 -7 q-4 -4 -7 -6t-8.5 -7t-9.5 -8t-12 -8t-12 -9h2q-125 -82 -266 -224q193 -193 262 -254q6 -12 6 -16q0 -29 -32 -59.5t-62 -30.5q-6 0 -15 4q-27 37 -67.5 86t-98 110.5t-75.5 84.5q-141 -127 -213 -199l-90 -90h2q-12 -6 -25 -6q-27 0 -52.5 27.5t-25.5 60.5zM299 1065l2 -2 l-2 4v-2z" />
<glyph unicode="&#xd8;" horiz-adv-x="1320" d="M72 322q0 162 102 385q-39 82 -39 188q0 129 55.5 234.5t134 168t172 104.5t163 58.5t114.5 16.5q111 0 213 -37l31 82q31 82 43 82q18 0 31.5 -28t13.5 -67q0 -23 -16 -65l-17 -45q270 -164 270 -531q-4 -365 -235 -647q-113 -137 -264 -233q-174 -106 -338 -107h-23 q-6 -23 -12 -59.5t-12 -49t-23 -12.5q-31 0 -30 95q0 10 6 34q-158 35 -249 150t-91 283zM190 352q0 -119 62.5 -217t175.5 -135q84 336 240 684l209 490l71 167q-96 35 -178 35q-74 0 -159 -33.5t-164.5 -96t-135 -166t-59.5 -226.5q184 266 266 360v-2q12 12 29 13 q29 0 56.5 -23.5t27.5 -50.5q0 -16 -10 -31q-59 -51 -157.5 -168.5t-158.5 -216.5q55 -72 125 -94v2q96 -37 96 -84q0 -55 -88 -55q-90 0 -196 106q-52 -149 -52 -258zM506 -10q156 2 282 84q125 78 226 215q94 129 151.5 294t57.5 324q0 250 -193 391q-39 -88 -135 -288.5 t-143 -313.5q-129 -296 -246 -706z" />
<glyph unicode="&#xd9;" horiz-adv-x="1165" d="M55 274q0 104 19.5 230.5t41 215.5t64.5 253q10 35 25.5 103.5t27 109.5t27.5 88t35.5 69.5t42.5 22.5q37 0 60.5 -18.5t23.5 -47.5q0 -14 -7 -37.5t-21 -63.5l-21 -64q-2 -4 -51.5 -156t-73 -233.5t-50 -220t-26.5 -238.5q0 -352 297 -353q190 0 323.5 125t195 325 t61.5 456q0 188 -35 354q-23 113 -59.5 200t-36.5 115q0 27 23.5 48.5t51.5 21.5q61 0 90 -59.5t66 -278.5q31 -193 31 -367q0 -500 -200 -775t-540 -275q-385 -1 -385 450zM403 1790q0 33 25.5 67t52.5 34q8 0 16 -9q12 -12 86 -73l139 -118q65 -56 64 -67q0 -66 -24 -65 q-14 0 -343 194q-16 14 -16 37z" />
<glyph unicode="&#xda;" horiz-adv-x="1165" d="M55 274q0 104 19.5 230.5t41 215.5t64.5 253q10 35 25.5 103.5t27 109.5t27.5 88t35.5 69.5t42.5 22.5q37 0 60.5 -18.5t23.5 -47.5q0 -14 -7 -37.5t-21 -63.5l-21 -64q-2 -4 -51.5 -156t-73 -233.5t-50 -220t-26.5 -238.5q0 -352 297 -353q190 0 323.5 125t195 325 t61.5 456q0 188 -35 354q-23 113 -59.5 200t-36.5 115q0 27 23.5 48.5t51.5 21.5q61 0 90 -59.5t66 -278.5q31 -193 31 -367q0 -500 -200 -775t-540 -275q-385 -1 -385 450zM414 1620l20 14q18 12 50 36l69 53q37 30 79 72t73 83q18 14 36 14q33 0 65 -25.5t32 -51.5 q0 -14 -9 -25l-47 -35q-84 -61 -191.5 -132t-113.5 -69q-23 0 -43 21.5t-20 44.5z" />
<glyph unicode="&#xdb;" horiz-adv-x="1165" d="M55 274q0 104 19.5 230.5t41 215.5t64.5 253q10 35 25.5 103.5t27 109.5t27.5 88t35.5 69.5t42.5 22.5q37 0 60.5 -18.5t23.5 -47.5q0 -14 -7 -37.5t-21 -63.5l-21 -64q-2 -4 -51.5 -156t-73 -233.5t-50 -220t-26.5 -238.5q0 -352 297 -353q190 0 323.5 125t195 325 t61.5 456q0 188 -35 354q-23 113 -59.5 200t-36.5 115q0 27 23.5 48.5t51.5 21.5q61 0 90 -59.5t66 -278.5q31 -193 31 -367q0 -500 -200 -775t-540 -275q-385 -1 -385 450zM260 1648q0 20 106.5 94t233.5 136q20 10 33 10q27 0 43 -14q162 -133 223 -199 q-4 -25 -25.5 -53.5t-37.5 -28.5l-232 160q-76 -25 -155.5 -71t-116.5 -81q-25 4 -48.5 17.5t-23.5 29.5z" />
<glyph unicode="&#xdc;" horiz-adv-x="1165" d="M55 274q0 104 19.5 230.5t41 215.5t64.5 253q10 35 25.5 103.5t27 109.5t27.5 88t35.5 69.5t42.5 22.5q37 0 60.5 -18.5t23.5 -47.5q0 -14 -7 -37.5t-21 -63.5l-21 -64q-2 -4 -51.5 -156t-73 -233.5t-50 -220t-26.5 -238.5q0 -352 297 -353q190 0 323.5 125t195 325 t61.5 456q0 188 -35 354q-23 113 -59.5 200t-36.5 115q0 27 23.5 48.5t51.5 21.5q61 0 90 -59.5t66 -278.5q31 -193 31 -367q0 -500 -200 -775t-540 -275q-385 -1 -385 450zM424 1700q0 72 45 110.5t94 38.5q37 0 37 -41q0 -53 -38 -107t-95 -54q-43 0 -43 53zM719 1702 q0 70 47 108.5t92 38.5q39 0 39 -43q0 -53 -39 -106t-94 -53q-18 0 -31.5 14t-13.5 41z" />
<glyph unicode="&#xdd;" horiz-adv-x="1193" d="M23 203q0 41 14 166l6 49q12 92 35.5 197.5t45.5 180.5l59 203l59 199q12 43 31.5 93t57.5 104.5t75 54.5q80 0 79 -92q0 -14 -26 -80q-174 -414 -266 -881q-29 -133 -29 -229q0 -121 49 -121q98 0 324 197q111 96 243.5 260t214.5 325q49 217 130 436.5t145 219.5 q92 0 92 -90q0 -55 -39 -125q-141 -260 -210 -529.5t-130 -701.5q-8 -57 -20.5 -112.5t-37 -131.5t-62.5 -138.5t-89 -117.5t-127 -87t-166 -32q-141 0 -223 35q-80 35 -80 78q0 25 20.5 50.5t43.5 25.5q10 0 93 -44t159 -44q80 0 140 32.5t98 83t64.5 126t38 142 t21.5 152.5q10 98 37 252l41 238q-154 -258 -309 -400q-256 -236 -422 -235q-53 0 -93 35t-54.5 68.5t-22.5 66.5q-10 43 -10 121zM657 1620l21 15q18 12 50 36l69 53q37 30 78.5 71.5t72.5 82.5q18 14 37 15q33 0 64.5 -25.5t31.5 -52.5q0 -14 -8 -25l-47 -34 q-84 -61 -191.5 -132t-113.5 -69q-23 0 -43.5 21t-20.5 44z" />
<glyph unicode="&#xde;" horiz-adv-x="1179" d="M4 1071q0 61 307 186l109 263l60 142l22 54v-2q25 43 69 43q31 0 51.5 -18.5t24.5 -48.5q0 -4 -35 -94l-73 -184q-39 -95 -41 -97q188 47 290 47q150 0 265.5 -96.5t115.5 -253.5q0 -154 -94 -297.5t-194 -227.5q-78 -63 -192 -117.5t-234 -54.5q-100 0 -150.5 25 t-50.5 61q0 33 36 66t62 33q4 0 27.5 -12.5t61.5 -24.5t75 -12q150 0 307 124q70 57 138.5 173t68.5 235q0 123 -79 189.5t-210 66.5q-154 0 -311 -57q-111 -262 -168 -463q-72 -252 -72 -563q0 -57 7 -84v2q10 -51 32 -101v2q14 -39 15 -43q-29 -98 -86 -98q-53 0 -82 84 t-29 211q-4 346 215 983l-78 -50q-45 -30 -66.5 -42t-27.5 -12q-31 0 -58.5 18t-27.5 45z" />
<glyph unicode="&#xdf;" horiz-adv-x="1040" d="M76 -14q0 156 39 350q96 469 213 721q207 442 518 442q121 0 196.5 -70.5t75.5 -166.5q0 -100 -78.5 -196.5t-172 -157t-172.5 -130t-79 -123.5q0 -43 172 -108q82 -31 141.5 -94.5t59.5 -124.5q0 -154 -127 -249t-268 -95q-139 0 -211 70.5t-72 146t56 75.5 q25 0 47 -22.5t22 -46.5q0 -45 45 -87t144 -42q125 0 189.5 71.5t64.5 153.5q0 57 -33 84t-115 53.5t-125 48.5q-115 55 -114 132q0 70 53 132t128 113l149 105q75 53 128.5 126.5t53.5 157.5q0 68 -47.5 104t-129.5 36q-125 0 -233.5 -108.5t-180 -271.5t-124.5 -355.5 t-77 -360.5t-24 -289q0 -193 95 -192h34q92 0 93 -37q0 -31 -28 -61.5t-91 -30.5q-82 0 -139 59q-76 76 -76 238z" />
<glyph unicode="&#xe0;" d="M55 203q0 158 96.5 342t242 311t274.5 127q63 0 104 -34t51.5 -64.5t10.5 -55.5q0 -29 -10.5 -43t-23 -17t-32.5 -3q-23 0 -55.5 43t-63.5 43q-104 0 -220 -115.5t-189.5 -267.5t-73.5 -264q0 -66 22.5 -107t44.5 -41q63 0 136 50.5t138.5 134.5t115 156.5t97.5 154.5 t52 88q39 61 66 61q33 0 61.5 -19t28.5 -42v-6q-47 -86 -105.5 -261t-58.5 -313q0 -51 13.5 -73.5t47.5 -22.5q20 0 45 14.5t29 14.5q31 0 31 -45q0 -31 -34 -63.5t-108 -32.5q-123 0 -122 196q0 131 59 350q-150 -227 -305 -358q-109 -90 -191 -90q-66 0 -107.5 48 t-54 99.5t-12.5 104.5zM565 1294q0 33 25.5 67t52.5 34q8 0 16 -9q12 -12 86 -73l139 -118q65 -56 64 -67q0 -66 -24 -65q-14 0 -343 194q-16 14 -16 37z" />
<glyph unicode="&#xe1;" d="M55 203q0 158 96.5 342t242 311t274.5 127q63 0 104 -34t51.5 -64.5t10.5 -55.5q0 -29 -10.5 -43t-23 -17t-32.5 -3q-23 0 -55.5 43t-63.5 43q-104 0 -220 -115.5t-189.5 -267.5t-73.5 -264q0 -66 22.5 -107t44.5 -41q63 0 136 50.5t138.5 134.5t115 156.5t97.5 154.5 t52 88q39 61 66 61q33 0 61.5 -19t28.5 -42v-6q-47 -86 -105.5 -261t-58.5 -313q0 -51 13.5 -73.5t47.5 -22.5q20 0 45 14.5t29 14.5q31 0 31 -45q0 -31 -34 -63.5t-108 -32.5q-123 0 -122 196q0 131 59 350q-150 -227 -305 -358q-109 -90 -191 -90q-66 0 -107.5 48 t-54 99.5t-12.5 104.5zM524 1124l21 15q18 12 50 36l69 53q37 30 78.5 71.5t72.5 82.5q18 14 37 15q33 0 64.5 -25.5t31.5 -52.5q0 -14 -8 -25l-47 -34q-84 -61 -191.5 -132t-113.5 -69q-23 0 -43.5 21t-20.5 44z" />
<glyph unicode="&#xe2;" d="M55 203q0 158 96.5 342t242 311t274.5 127q63 0 104 -34t51.5 -64.5t10.5 -55.5q0 -29 -10.5 -43t-23 -17t-32.5 -3q-23 0 -55.5 43t-63.5 43q-104 0 -220 -115.5t-189.5 -267.5t-73.5 -264q0 -66 22.5 -107t44.5 -41q63 0 136 50.5t138.5 134.5t115 156.5t97.5 154.5 t52 88q39 61 66 61q33 0 61.5 -19t28.5 -42v-6q-47 -86 -105.5 -261t-58.5 -313q0 -51 13.5 -73.5t47.5 -22.5q20 0 45 14.5t29 14.5q31 0 31 -45q0 -31 -34 -63.5t-108 -32.5q-123 0 -122 196q0 131 59 350q-150 -227 -305 -358q-109 -90 -191 -90q-66 0 -107.5 48 t-54 99.5t-12.5 104.5zM350 1122q0 20 106.5 94t233.5 136q20 10 33 10q27 0 43 -14q162 -133 223 -199q-4 -25 -25.5 -53.5t-37.5 -28.5l-232 160q-76 -25 -155.5 -71t-116.5 -81q-25 4 -48.5 17.5t-23.5 29.5z" />
<glyph unicode="&#xe3;" d="M55 203q0 158 96.5 342t242 311t274.5 127q63 0 104 -34t51.5 -64.5t10.5 -55.5q0 -29 -10.5 -43t-23 -17t-32.5 -3q-23 0 -55.5 43t-63.5 43q-104 0 -220 -115.5t-189.5 -267.5t-73.5 -264q0 -66 22.5 -107t44.5 -41q63 0 136 50.5t138.5 134.5t115 156.5t97.5 154.5 t52 88q39 61 66 61q33 0 61.5 -19t28.5 -42v-6q-47 -86 -105.5 -261t-58.5 -313q0 -51 13.5 -73.5t47.5 -22.5q20 0 45 14.5t29 14.5q31 0 31 -45q0 -31 -34 -63.5t-108 -32.5q-123 0 -122 196q0 131 59 350q-150 -227 -305 -358q-109 -90 -191 -90q-66 0 -107.5 48 t-54 99.5t-12.5 104.5zM317 1130q0 4 5 17l-3 -2q10 23 54 69q63 70 133 70q45 0 123 -64.5t108 -64.5q53 0 85 26.5t46.5 53.5t24.5 27q20 0 48 -19.5t28 -42.5v-6q-96 -131 -213 -131q-53 0 -128 62.5t-120 62.5q-37 0 -69.5 -51.5t-37.5 -51.5q-84 0 -84 45z" />
<glyph unicode="&#xe4;" d="M55 203q0 158 96.5 342t242 311t274.5 127q63 0 104 -34t51.5 -64.5t10.5 -55.5q0 -29 -10.5 -43t-23 -17t-32.5 -3q-23 0 -55.5 43t-63.5 43q-104 0 -220 -115.5t-189.5 -267.5t-73.5 -264q0 -66 22.5 -107t44.5 -41q63 0 136 50.5t138.5 134.5t115 156.5t97.5 154.5 t52 88q39 61 66 61q33 0 61.5 -19t28.5 -42v-6q-47 -86 -105.5 -261t-58.5 -313q0 -51 13.5 -73.5t47.5 -22.5q20 0 45 14.5t29 14.5q31 0 31 -45q0 -31 -34 -63.5t-108 -32.5q-123 0 -122 196q0 131 59 350q-150 -227 -305 -358q-109 -90 -191 -90q-66 0 -107.5 48 t-54 99.5t-12.5 104.5zM465 1112q0 72 45 111t95 39q37 0 36 -41q0 -53 -37.5 -107.5t-95.5 -54.5q-43 0 -43 53zM760 1114q0 70 47 109t93 39q39 0 38 -43q0 -51 -38.5 -105.5t-94.5 -54.5q-18 0 -31.5 14t-13.5 41z" />
<glyph unicode="&#xe5;" d="M55 203q0 158 96.5 342t242 311t274.5 127q63 0 104 -34t51.5 -64.5t10.5 -55.5q0 -29 -10.5 -43t-23 -17t-32.5 -3q-23 0 -55.5 43t-63.5 43q-104 0 -220 -115.5t-189.5 -267.5t-73.5 -264q0 -66 22.5 -107t44.5 -41q63 0 136 50.5t138.5 134.5t115 156.5t97.5 154.5 t52 88q39 61 66 61q33 0 61.5 -19t28.5 -42v-6q-47 -86 -105.5 -261t-58.5 -313q0 -51 13.5 -73.5t47.5 -22.5q20 0 45 14.5t29 14.5q31 0 31 -45q0 -31 -34 -63.5t-108 -32.5q-123 0 -122 196q0 131 59 350q-150 -227 -305 -358q-109 -90 -191 -90q-66 0 -107.5 48 t-54 99.5t-12.5 104.5zM565 1210q0 74 60.5 129.5t134.5 55.5q63 0 112.5 -32t49.5 -101q0 -80 -55.5 -140.5t-135.5 -60.5q-166 -1 -166 149zM643 1198q0 -72 88 -72q47 0 76 33t29 84q0 86 -82 86q-51 0 -81 -40t-30 -91z" />
<glyph unicode="&#xe6;" horiz-adv-x="1486" d="M45 90q0 119 62.5 211t173.5 143q125 59 438 60q18 78 18 194q0 150 -145 150q-63 0 -135 -31q-53 -23 -95.5 -56.5t-60.5 -58t-37.5 -43t-36.5 -18.5q-33 0 -56.5 17.5t-23.5 41.5q0 16 13.5 37t26 33t37 33.5t28.5 25.5q168 119 321 119q158 0 213.5 -83t42.5 -247 q96 156 233.5 248t233.5 92q86 0 135.5 -52t49.5 -130q0 -70 -51 -151q-147 -238 -490 -238q-51 0 -117 8q-39 -94 -39 -166q0 -100 45 -168.5t142 -68.5q82 0 147.5 27.5t105.5 67.5t69.5 81t57 68.5t52.5 27.5q53 0 59 -33q-31 -113 -182.5 -228.5t-304.5 -115.5 q-109 0 -194 95.5t-101 205.5q-84 -92 -216 -180t-249 -88q-170 0 -170 170zM150 139q0 -127 102 -127q109 0 267.5 140.5t174.5 244.5q-12 2 -61 2q-33 0 -61.5 -1t-81 -6t-93.5 -15t-90 -29.5t-81.5 -45.5t-54 -69t-21.5 -94zM868 494q49 -4 105 -5q139 0 271 78t132 185 q0 63 -92 63q-111 0 -220.5 -94t-195.5 -227z" />
<glyph unicode="&#xe7;" horiz-adv-x="851" d="M33 238q0 154 80 319.5t221 283t295 117.5q90 0 163.5 -56t73.5 -146q0 -137 -86 -138q-63 0 -63 46q0 10 6 34.5t6 34.5q0 51 -39 83t-88 32q-135 0 -242.5 -113.5t-156.5 -254t-49 -261.5q0 -84 32.5 -149.5t108.5 -65.5q86 0 158.5 38t117.5 91t81 106.5t67 91.5 t57 38q37 0 37 -47q0 -25 -39 -90.5t-103.5 -141.5t-169 -133t-212.5 -57q-78 0 -132.5 37.5t-79 96t-34.5 108t-10 96.5zM205 -270q61 31 108 80q16 18 38 46l35 44q13 16 18 16q18 0 34.5 -11t16.5 -21q0 -12 -92 -88l-60 -50q137 -14 137 -83q0 -39 -26 -74 q-25 -33 -82 -76t-72 -43q-12 0 -20 17.5t-8 37.5q0 2 1 4t1 4q47 16 103 59.5t56 82.5q-31 16 -63 16q-27 0 -60.5 -9t-44.5 -9q-12 0 -19 25.5t-1 31.5z" />
<glyph unicode="&#xe8;" horiz-adv-x="817" d="M25 233q0 182 98 354.5t235.5 271.5t257.5 99q68 0 115 -55t47 -127q0 -98 -86 -228t-213 -225.5t-233 -95.5q-61 0 -121 43q-2 -17 -2 -34q0 -72 41 -150q51 -96 141 -96q80 0 148.5 31.5t113.5 76.5t81 91.5t66.5 78t53.5 31.5q27 0 27 -33q0 -100 -157 -238.5 t-323 -138.5q-82 0 -141 34t-87 76t-43 100.5t-17 83.5t-2 50zM150 371q25 12 40 12q4 0 17 -6q25 -33 51 -33q119 0 259 150.5t140 271.5q0 57 -55 57q-45 0 -131 -43q-198 -98 -321 -409zM416 1294q0 33 25.5 67t52.5 34q8 0 16 -9q12 -12 86 -73l139 -118q65 -56 64 -67 q0 -66 -24 -65q-14 0 -343 194q-16 14 -16 37z" />
<glyph unicode="&#xe9;" horiz-adv-x="817" d="M25 233q0 182 98 354.5t235.5 271.5t257.5 99q68 0 115 -55t47 -127q0 -98 -86 -228t-213 -225.5t-233 -95.5q-61 0 -121 43q-12 -88 39 -184t141 -96q80 0 148.5 31.5t113.5 76.5t81 91.5t66.5 78t53.5 31.5q27 0 27 -33q0 -100 -157 -238.5t-323 -138.5q-82 0 -141 34 t-87 76t-43 100.5t-17 83.5t-2 50zM150 371q25 12 40 12q4 0 17 -6q25 -33 51 -33q119 0 259 150.5t140 271.5q0 57 -55 57q-45 0 -131 -43q-198 -98 -321 -409zM395 1124l19 15q20 12 52 36l69 53q37 30 78.5 71.5t72.5 82.5q18 14 37 15q33 0 64.5 -25.5t31.5 -52.5 q0 -14 -8 -25l-47 -34q-84 -61 -191.5 -132t-113.5 -69q-23 0 -43.5 21t-20.5 44z" />
<glyph unicode="&#xea;" horiz-adv-x="817" d="M25 233q0 182 98 354.5t235.5 271.5t257.5 99q68 0 115 -55t47 -127q0 -98 -86 -228t-213 -225.5t-233 -95.5q-61 0 -121 43q-2 -17 -2 -34q0 -72 41 -150q51 -96 141 -96q80 0 148.5 31.5t113.5 76.5t81 91.5t66.5 78t53.5 31.5q27 0 27 -33q0 -100 -157 -238.5 t-323 -138.5q-82 0 -141 34t-87 76t-43 100.5t-17 83.5t-2 50zM150 371q25 12 40 12q4 0 17 -6q25 -33 51 -33q119 0 259 150.5t140 271.5q0 57 -55 57q-45 0 -131 -43q-198 -98 -321 -409zM272 1122q0 20 106.5 94t233.5 136q20 10 33 10q27 0 43 -14q162 -133 223 -199 q-4 -25 -25.5 -53.5t-37.5 -28.5l-232 160q-76 -25 -155.5 -71t-116.5 -81q-25 4 -48.5 17.5t-23.5 29.5z" />
<glyph unicode="&#xeb;" horiz-adv-x="817" d="M25 233q0 182 98 354.5t235.5 271.5t257.5 99q68 0 115 -55t47 -127q0 -98 -86 -228t-213 -225.5t-233 -95.5q-61 0 -121 43q-12 -88 39 -184t141 -96q80 0 148.5 31.5t113.5 76.5t81 91.5t66.5 78t53.5 31.5q27 0 27 -33q0 -100 -157 -238.5t-323 -138.5q-82 0 -141 34 t-87 76t-43 100.5t-17 83.5t-2 50zM150 371q25 12 40 12q4 0 17 -6q25 -33 51 -33q119 0 259 150.5t140 271.5q0 57 -55 57q-45 0 -131 -43q-198 -98 -321 -409zM336 1112q0 72 45 111t94 39q37 0 37 -41q0 -53 -38 -107.5t-95 -54.5q-43 0 -43 53zM631 1114q0 70 47 109 t92 39q39 0 39 -43q0 -51 -39 -105.5t-94 -54.5q-18 0 -31.5 14t-13.5 41z" />
<glyph unicode="&#xec;" horiz-adv-x="489" d="M94 156q0 66 12 112q39 242 152 580q20 55 61 55q12 0 29 -6q45 -18 45 -53q0 -18 -8 -35v2q-41 -80 -92 -238l-8 -24q-76 -258 -76 -428q0 -82 74 -90q35 0 63.5 24.5t40.5 24.5q20 0 41 -13.5t21 -33.5l-3 -8q-4 -8 -15 -23.5t-27.5 -29t-48 -23.5t-70.5 -10 q-191 0 -191 217zM188 1265q0 33 25.5 67t52.5 34q8 0 16 -9q12 -12 86 -73l139 -118q65 -56 64 -67q0 -66 -24 -65q-14 0 -343 194q-16 14 -16 37z" />
<glyph unicode="&#xed;" horiz-adv-x="489" d="M94 156q0 66 12 112q39 242 152 580q20 55 61 55q12 0 29 -6q45 -18 45 -53q0 -18 -8 -35v2q-41 -80 -92 -238l-8 -24q-76 -258 -76 -428q0 -82 74 -90q35 0 63.5 24.5t40.5 24.5q20 0 41 -13.5t21 -33.5l-3 -8q-4 -8 -15 -23.5t-27.5 -29t-48 -23.5t-70.5 -10 q-191 0 -191 217zM170 1106l18 12l53 38l68 53q37 30 79 72t73 83q18 14 37 14q33 0 64.5 -25.5t31.5 -52.5q0 -14 -8 -24l-47 -35q-84 -61 -191.5 -132t-114.5 -69q-23 0 -43 21.5t-20 44.5z" />
<glyph unicode="&#xee;" horiz-adv-x="489" d="M94 156q0 66 12 112q39 242 152 580q20 55 61 55q12 0 29 -6q45 -18 45 -53q0 -18 -8 -35v2q-41 -80 -92 -238l-8 -24q-76 -258 -76 -428q0 -82 74 -90q35 0 63.5 24.5t40.5 24.5q20 0 41 -13.5t21 -33.5l-3 -8q-4 -8 -15 -23.5t-27.5 -29t-48 -23.5t-70.5 -10 q-191 0 -191 217zM67 1095q0 20 106.5 94t233.5 136q20 10 33 10q27 0 43 -14q162 -133 223 -199q-4 -25 -25.5 -53.5t-37.5 -28.5l-232 160q-76 -25 -155.5 -71t-116.5 -81q-25 4 -48.5 17.5t-23.5 29.5z" />
<glyph unicode="&#xef;" horiz-adv-x="489" d="M94 156q0 66 12 112q39 242 152 580q20 55 61 55q12 0 29 -6q45 -18 45 -53q0 -18 -8 -35v2q-41 -80 -92 -238l-8 -24q-76 -258 -76 -428q0 -82 74 -90q35 0 63.5 24.5t40.5 24.5q20 0 41 -13.5t21 -33.5l-3 -8q-4 -8 -15 -23.5t-27.5 -29t-48 -23.5t-70.5 -10 q-191 0 -191 217zM154 1120q0 72 45 111t94 39q37 0 37 -41q0 -53 -38 -107.5t-95 -54.5q-43 0 -43 53zM449 1122q0 70 47 109t92 39q39 0 39 -43q0 -51 -39 -105.5t-94 -54.5q-18 0 -31.5 14t-13.5 41z" />
<glyph unicode="&#xf0;" horiz-adv-x="917" d="M49 172q0 160 98.5 336t276.5 313q129 98 266 99q35 0 88 -58q-18 227 -80 357q-121 -55 -168 -103q-6 -6 -12 -6q-14 0 -29.5 23.5t-15.5 42.5q0 25 39 47t141 65q12 6 19 8q-98 106 -178 107q-10 0 -30 -4t-32 -4q-31 0 -45 14t-14 59q0 57 73 58q207 0 332 -199 q106 31 121 31q12 0 27.5 -12.5t15.5 -30.5q0 -23 -8 -23q-49 -4 -119 -30q74 -180 74 -392q0 -176 -38 -348t-109.5 -315.5t-188.5 -232.5t-260 -89q-80 0 -134.5 34t-75 87t-27.5 91t-7 75zM164 199q0 -92 31.5 -155.5t103.5 -63.5q158 0 310.5 222t170.5 535 q-18 -8 -35 -8q-14 0 -36.5 28.5t-59.5 28.5q-29 0 -74 -16t-67 -33q-152 -104 -248 -269t-96 -269z" />
<glyph unicode="&#xf1;" horiz-adv-x="880" d="M39 41q0 31 10 98l12 92q37 268 62 392l20 100q4 16 8.5 37.5t6.5 36t6 32t7 27.5l7 24q4 13 9.5 20l10.5 13.5t12 9.5t15 3q35 0 58.5 -24.5t27.5 -47.5q-29 -51 -68.5 -196.5t-54.5 -231.5q-18 -125 -32 -334q150 270 333 557q31 49 82.5 89t104.5 40q121 0 121 -213 q0 -53 -7.5 -161.5t-7.5 -159.5q0 -88 13.5 -146.5t31 -77t30.5 -41t13 -49.5q0 -20 -19.5 -39.5t-41.5 -19.5q-66 0 -104.5 94t-38.5 219q0 12 6 70.5t12 127.5t9 138q1 30 2 56q0 34 -3 60q-4 46 -18 46q-49 0 -124 -106.5t-171 -281.5t-119 -210q-12 -20 -26 -46l-19 -38 q-6 -12 -19.5 -21.5t-35.5 -9.5q-121 0 -121 72zM225 1106q0 4 4 16l-2 -2q10 23 54 70q63 70 133 69q45 0 122.5 -64.5t108.5 -64.5q53 0 85 27t46.5 53.5t24.5 26.5q20 0 48 -19.5t28 -41.5v-7q-96 -131 -213 -131q-53 0 -128 62.5t-120 62.5q-37 0 -70 -51t-37 -51 q-84 0 -84 45z" />
<glyph unicode="&#xf2;" horiz-adv-x="894" d="M35 164q0 133 57.5 285.5t138 268.5t163.5 192.5t136.5 76.5t53.5 -119q70 18 96 19q106 0 150 -78t44 -168q0 -121 -49 -233q-33 -86 -85 -175.5t-121.5 -171t-158.5 -134t-179 -52.5q-123 0 -184.5 86t-61.5 203zM141 180q0 -193 174 -192q123 2 229.5 132t182.5 308 q43 102 43 195q0 70 -21.5 105.5t-54.5 35.5q-16 0 -46 -15.5t-46 -15.5q-23 0 -41 29t-18 61q0 20 8 37q-158 -86 -284 -298t-126 -382zM512 1294q0 33 25.5 67t52.5 34q8 0 16 -9q12 -12 86 -73l139 -118q65 -56 64 -67q0 -66 -24 -65q-14 0 -343 194q-16 14 -16 37z" />
<glyph unicode="&#xf3;" horiz-adv-x="894" d="M35 164q0 133 57.5 285.5t138 268.5t163.5 192.5t136.5 76.5t53.5 -119q70 18 96 19q106 0 150 -78t44 -168q0 -121 -49 -233q-33 -86 -85 -175.5t-121.5 -171t-158.5 -134t-179 -52.5q-123 0 -184.5 86t-61.5 203zM141 180q0 -193 174 -192q123 2 229.5 132t182.5 308 q43 102 43 195q0 70 -21.5 105.5t-54.5 35.5q-16 0 -46 -15.5t-46 -15.5q-23 0 -41 29t-18 61q0 20 8 37q-158 -86 -284 -298t-126 -382zM471 1124l21 15q18 12 50 36l68 53q37 30 79 71.5t73 82.5q18 14 37 15q33 0 64.5 -25.5t31.5 -52.5q0 -14 -8 -25l-47 -34 q-84 -61 -191.5 -132t-113.5 -69q-23 0 -43.5 21t-20.5 44z" />
<glyph unicode="&#xf4;" horiz-adv-x="894" d="M35 164q0 133 57.5 285.5t138 268.5t163.5 192.5t136.5 76.5t53.5 -119q70 18 96 19q106 0 150 -78t44 -168q0 -121 -49 -233q-33 -86 -85 -175.5t-121.5 -171t-158.5 -134t-179 -52.5q-123 0 -184.5 86t-61.5 203zM141 180q0 -193 174 -192q123 2 229.5 132t182.5 308 q43 102 43 195q0 70 -21.5 105.5t-54.5 35.5q-16 0 -46 -15.5t-46 -15.5q-23 0 -41 29t-18 61q0 20 8 37q-158 -86 -284 -298t-126 -382zM268 1114q0 20 106.5 94t233.5 136q20 10 33 10q27 0 43 -14q162 -133 223 -199q-4 -25 -25.5 -53.5t-37.5 -28.5l-232 160 q-76 -25 -155.5 -71t-116.5 -81q-25 4 -48.5 17.5t-23.5 29.5z" />
<glyph unicode="&#xf5;" horiz-adv-x="894" d="M35 164q0 133 57.5 285.5t138 268.5t163.5 192.5t136.5 76.5t53.5 -119q70 18 96 19q106 0 150 -78t44 -168q0 -121 -49 -233q-33 -86 -85 -175.5t-121.5 -171t-158.5 -134t-179 -52.5q-123 0 -184.5 86t-61.5 203zM141 180q0 -193 174 -192q123 2 229.5 132t182.5 308 q43 102 43 195q0 70 -21.5 105.5t-54.5 35.5q-16 0 -46 -15.5t-46 -15.5q-23 0 -41 29t-18 61q0 20 8 37q-158 -86 -284 -298t-126 -382zM264 1124q0 4 4 17l-2 -2q10 23 53 69q63 70 134 70q45 0 122.5 -64.5t108.5 -64.5q53 0 85 26.5t46 53t25 26.5q20 0 47.5 -19 t27.5 -42v-6q-96 -131 -213 -131q-53 0 -127.5 62.5t-119.5 62.5q-37 0 -70 -51.5t-37 -51.5q-84 0 -84 45z" />
<glyph unicode="&#xf6;" horiz-adv-x="894" d="M35 164q0 133 57.5 285.5t138 268.5t163.5 192.5t136.5 76.5t53.5 -119q70 18 96 19q106 0 150 -78t44 -168q0 -121 -49 -233q-33 -86 -85 -175.5t-121.5 -171t-158.5 -134t-179 -52.5q-123 0 -184.5 86t-61.5 203zM141 180q0 -193 174 -192q123 2 229.5 132t182.5 308 q43 102 43 195q0 70 -21.5 105.5t-54.5 35.5q-16 0 -46 -15.5t-46 -15.5q-23 0 -41 29t-18 61q0 20 8 37q-158 -86 -284 -298t-126 -382zM409 1120q0 72 45 111t95 39q37 0 36 -41q0 -53 -37.5 -107.5t-95.5 -54.5q-43 0 -43 53zM704 1122q0 70 47 109t93 39q39 0 38 -43 q0 -51 -38.5 -105.5t-94.5 -54.5q-18 0 -31.5 14t-13.5 41z" />
<glyph unicode="&#xf7;" horiz-adv-x="1116" d="M121 670v10q4 63 33 72q20 -2 98 -2q385 0 760 55q31 -8 30 -64q0 -27 -10 -52t-24 -30q-20 2 -103 3q-373 0 -753 -56q-31 13 -31 64zM442 342q0 57 33 100t68 43h8h-2q47 -12 47 -79q0 -47 -27.5 -96.5t-72.5 -49.5q-25 0 -39.5 22.5t-14.5 59.5zM545 1012 q0 57 32.5 99t69.5 42h8h-2q45 -10 45 -78q0 -47 -25.5 -96t-70.5 -49q-57 0 -57 82z" />
<glyph unicode="&#xf8;" horiz-adv-x="894" d="M35 164q0 133 57.5 285.5t138 268.5t163.5 192.5t136 76.5q35 0 64 -76l78 194l65 163q4 12 13 12q20 0 33.5 -27.5t13.5 -66.5q0 -25 -9 -43q-49 -135 -108 -256q106 -10 150 -86t44 -160q0 -96 -51 -235l2 2l-6 -15l-2 -2q-31 -84 -81 -169t-119.5 -166t-160.5 -131 t-188 -50q-20 -61 -32.5 -117.5t-16.5 -84t-8 -49t-11 -29t-22 -7.5q-31 0 -31 101q0 61 37 198q-76 37 -112.5 113t-36.5 164zM141 180q0 -129 82 -178q57 176 314 774q-8 16 -9 27q8 27 19 53q-156 -86 -281 -296t-125 -380zM303 -12q88 4 177 80.5t146.5 167t100.5 192.5 t43 195q0 70 -21.5 105.5t-54.5 35.5q-55 0 -86 -31q-170 -339 -305 -745z" />
<glyph unicode="&#xf9;" horiz-adv-x="907" d="M43 184q0 47 5 99.5t9 90.5t18 100l19 90l24 102q17 74 21 94l43 184q14 14 33 14q31 0 65.5 -26.5t34.5 -42.5v-4q-61 -127 -110 -311.5t-49 -315.5q0 -137 67 -137q31 0 60.5 7t58.5 24.5t47.5 31t43.5 40.5l35 38q9 10 34 41l24 33q121 215 156 409q10 61 80 62 q27 0 42 -18.5t7 -43.5q-2 -10 -19 -86l-23 -99q-5 -24 -17.5 -89t-16.5 -101t-8 -88.5t-4 -97.5q0 -188 55 -188q29 0 49 14l-2 -2l6 4v2q16 -2 37 -21.5t21 -39.5q0 -41 -62 -54q-32 -7 -59 -7q-25 0 -45 6q-104 31 -105 276q0 80 19 197q-51 -100 -195.5 -239.5 t-230.5 -139.5q-74 0 -121 51t-47 141zM338 1245q0 33 25.5 67t52.5 34q8 0 16 -9q12 -12 86 -73l139 -118q65 -56 64 -67q0 -66 -24 -65q-14 0 -343 194q-16 14 -16 37z" />
<glyph unicode="&#xfa;" horiz-adv-x="907" d="M43 184q0 47 5 99.5t9 90.5t18 100l19 90l24 102q17 74 21 94l43 184q14 14 33 14q31 0 65.5 -26.5t34.5 -42.5v-4q-61 -127 -110 -311.5t-49 -315.5q0 -137 67 -137q31 0 60.5 7t58.5 24.5t47.5 31t43.5 40.5l35 38q9 10 34 41l24 33q121 215 156 409q10 61 80 62 q27 0 42 -18.5t7 -43.5q-2 -10 -19 -86l-23 -99q-5 -24 -17.5 -89t-16.5 -101t-8 -88.5t-4 -97.5q0 -188 55 -188q29 0 49 14l-2 -2l6 4v2q16 -2 37 -21.5t21 -39.5q0 -41 -61.5 -54.5t-104.5 -0.5q-104 31 -105 276q0 80 19 197q-51 -100 -195.5 -239.5t-230.5 -139.5 q-74 0 -121 51t-47 141zM371 1073l18 12l52 38l69 54q37 30 79 71.5t73 82.5q18 14 36 15q33 0 65 -26t32 -52q0 -14 -9 -25l-47 -35q-84 -61 -191.5 -131.5t-113.5 -68.5q-23 0 -43 21t-20 44z" />
<glyph unicode="&#xfb;" horiz-adv-x="907" d="M43 184q0 47 5 99.5t9 90.5t18 100l19 90l24 102q17 74 21 94l43 184q14 14 33 14q31 0 65.5 -26.5t34.5 -42.5v-4q-61 -127 -110 -311.5t-49 -315.5q0 -137 67 -137q31 0 60.5 7t58.5 24.5t47.5 31t43.5 40.5l35 38q9 10 34 41l24 33q121 215 156 409q10 61 80 62 q27 0 42 -18.5t7 -43.5q-2 -10 -19 -86l-23 -99q-5 -24 -17.5 -89t-16.5 -101t-8 -88.5t-4 -97.5q0 -188 55 -188q29 0 49 14l-2 -2l6 4v2q16 -2 37 -21.5t21 -39.5q0 -41 -62 -54q-32 -7 -59 -7q-25 0 -45 6q-104 31 -105 276q0 80 19 197q-51 -100 -195.5 -239.5 t-230.5 -139.5q-74 0 -121 51t-47 141zM244 1085q0 20 106.5 94t233.5 136q20 10 33 10q27 0 43 -14q162 -133 223 -199q-4 -25 -25.5 -53.5t-37.5 -28.5l-232 160q-76 -25 -155.5 -71t-116.5 -81q-25 4 -48.5 17.5t-23.5 29.5z" />
<glyph unicode="&#xfc;" horiz-adv-x="907" d="M43 184q0 47 5 99.5t9 90.5t18 100l19 90l24 102q17 74 21 94l43 184q14 14 33 14q31 0 65.5 -26.5t34.5 -42.5v-4q-61 -127 -110 -311.5t-49 -315.5q0 -137 67 -137q31 0 60.5 7t58.5 24.5t47.5 31t43.5 40.5l35 38q9 10 34 41l24 33q121 215 156 409q10 61 80 62 q27 0 42 -18.5t7 -43.5q-2 -10 -19 -86l-23 -99q-5 -24 -17.5 -89t-16.5 -101t-8 -88.5t-4 -97.5q0 -188 55 -188q29 0 49 14l-2 -2l6 4v2q16 -2 37 -21.5t21 -39.5q0 -41 -61.5 -54.5t-104.5 -0.5q-104 31 -105 276q0 80 19 197q-51 -100 -195.5 -239.5t-230.5 -139.5 q-74 0 -121 51t-47 141zM346 1090q0 72 45 110.5t94 38.5q37 0 37 -41q0 -53 -38 -107.5t-95 -54.5q-43 1 -43 54zM641 1092q0 70 47 108.5t92 38.5q39 0 39 -43q0 -53 -39 -106.5t-94 -53.5q-18 0 -31.5 14.5t-13.5 41.5z" />
<glyph unicode="&#xfd;" d="M29 -512q0 57 49 57q41 0 76 -47q49 -68 125 -67q104 0 198 90t143.5 186t67.5 174q20 84 54 322.5t49 404.5q-211 -631 -564 -631q-188 0 -188 261q0 166 111 559q8 27 18 67q16 59 24.5 76.5t28.5 17.5q23 0 41 -10q49 -27 49 -63q0 -10 -10 -31q-29 -53 -89 -268 t-60 -344q0 -80 26.5 -110t93.5 -30q53 0 101.5 20.5t84.5 50.5t71.5 81t59 95t51.5 112.5t42 111.5l37 111l45 141q14 43 55 43q31 0 66 -16q33 -15 33 -47q0 -12 -23 -246l-18 -219q-33 -281 -86 -483q-12 -49 -36 -107.5t-71 -140.5t-103.5 -145.5t-141.5 -109.5 t-179 -46q-115 0 -173 65.5t-58 114.5zM401 1087l21 15q18 12 50 36l69 53q37 30 78.5 71.5t72.5 82.5q18 14 37 15q33 0 64.5 -25.5t31.5 -52.5q0 -14 -8 -25l-47 -34q-84 -61 -191.5 -132t-113.5 -69q-23 0 -43.5 21t-20.5 44z" />
<glyph unicode="&#xfe;" horiz-adv-x="1052" d="M-14 -557q0 117 26 293q123 791 396 1536q16 49 59 49q72 0 72 -45q0 -12 -7 -31q-33 -82 -157.5 -462t-151.5 -470l111 174l116.5 168t134 166.5t127 104.5t130.5 47q92 0 148.5 -81t56.5 -185q0 -141 -88.5 -312.5t-233.5 -294.5t-287 -123q-74 0 -104.5 35t-30.5 68 q0 47 39 47q16 0 47 -16.5t43 -16.5q94 0 216 100.5t209 247t87 265.5q0 66 -22.5 106.5t-43 50.5t-36.5 10q-43 0 -90 -27.5t-108.5 -96t-102.5 -118.5t-118 -168l-107 -166l-113 -183q-41 -66 -65.5 -233t-24.5 -292q0 -41 3 -99t3 -73q0 -35 -21.5 -59.5t-58.5 -24.5 q-33 0 -43 23t-10 86z" />
<glyph unicode="&#xff;" d="M29 -512q0 57 49 57q41 0 76 -47q49 -68 125 -67q104 0 198 90t143.5 186t67.5 174q20 84 54 322.5t49 404.5q-211 -631 -564 -631q-188 0 -188 261q0 166 111 559q8 27 18 67q16 59 24.5 76.5t28.5 17.5q23 0 41 -10q49 -27 49 -63q0 -10 -10 -31q-29 -53 -89 -268 t-60 -344q0 -80 26.5 -110t93.5 -30q53 0 101.5 20.5t84.5 50.5t71.5 81t59 95t51.5 112.5t42 111.5l37 111l45 141q14 43 55 43q31 0 66 -16t33 -51q-4 -51 -23 -242l-18 -219q-33 -281 -86 -483q-12 -49 -36 -107.5t-71 -140.5t-103.5 -145.5t-141.5 -109.5t-179 -46 q-115 0 -173 65.5t-58 114.5zM356 1083q0 72 45 111t95 39q37 0 36 -41q0 -53 -37.5 -107.5t-95.5 -54.5q-43 0 -43 53zM651 1085q0 70 47 109t93 39q39 0 38 -43q0 -51 -38.5 -105.5t-94.5 -54.5q-18 0 -31.5 14t-13.5 41z" />
<glyph unicode="&#x131;" horiz-adv-x="489" d="M94 156q0 66 12 112q39 242 152 580q20 55 61 55q12 0 29 -6q45 -18 45 -53q0 -18 -8 -35v2q-41 -80 -92 -238l-8 -24q-76 -258 -76 -428q0 -82 74 -90q35 0 63.5 24.5t40.5 24.5q20 0 41 -13.5t21 -33.5l-3 -8q-4 -8 -15 -23.5t-27.5 -29t-48 -23.5t-70.5 -10 q-191 0 -191 217z" />
<glyph unicode="&#x152;" horiz-adv-x="1990" d="M70 322q0 174 102 385q-41 78 -41 188q0 109 39 195q45 104 130 185t176 122t167 60.5t127 19.5q383 0 543 -428l35 118q35 127 43 136q-43 -14 -64 -15q-12 0 -25.5 32t-13.5 66q0 29 133 43.5t254 14.5q115 0 247 -25.5t132 -58.5q0 -25 -16.5 -47.5t-34.5 -22.5 q-8 0 -48 15.5t-107.5 31t-143.5 15.5q-47 0 -180 -19q-20 -63 -67.5 -193t-81.5 -237.5t-58 -222.5q303 57 526 57q47 0 60.5 -9t13.5 -46q0 -41 -53 -41q-262 0 -570 -80q-18 -143 -18 -409v-70q82 8 262 45l88 18q119 25 252 25q92 0 92 -31q0 -25 -12 -45t-25 -26 q-20 10 -57 10q-29 0 -62.5 -4t-62.5 -9.5t-72 -16.5l-68 -18q-26 -7 -74 -23.5l-67.5 -23l-73 -25.5t-65.5 -24l-76 -26q-4 -2 -12 -2q-16 0 -35 20q-27 4 -48 17.5t-21 33.5q0 74 22 318l-28 10q-39 -74 -133.5 -175t-159.5 -142q-166 -106 -336 -107q-197 0 -315.5 121 t-118.5 320zM186 352q0 -150 89.5 -256t242.5 -106q125 0 266 84q119 70 228 215q94 129 150.5 292.5t56.5 325.5q0 127 -45.5 223.5t-116 146.5t-144 74.5t-147.5 24.5q-72 0 -157 -33.5t-164.5 -96t-136 -166t-60.5 -226.5q164 236 266 360v-2q12 12 29 13 q29 0 56.5 -23.5t27.5 -50.5q0 -16 -11 -31q-57 -49 -155.5 -167.5t-159.5 -217.5q53 -70 125 -94v2q96 -37 96 -84q0 -55 -88 -55q-90 0 -196 106q-52 -149 -52 -258z" />
<glyph unicode="&#x153;" horiz-adv-x="1474" d="M35 164q0 133 57.5 285.5t138 268.5t163.5 192.5t136.5 76.5t53.5 -119q70 18 96 19q88 0 133 -56.5t57 -136.5q92 119 209 191.5t215 72.5q68 0 115 -55t47 -127q0 -98 -86 -228t-213 -225.5t-233 -95.5q-63 0 -121 43q-2 -10 -2 -30q0 -88 50 -169t132 -81 q80 0 148.5 31.5t113.5 76.5t81 91.5t66.5 78t53.5 31.5q27 0 27 -33q0 -100 -157 -238.5t-323 -138.5q-80 0 -137 29t-88 78t-44 91t-19 87q-199 -299 -424 -299q-123 0 -184.5 86t-61.5 203zM141 180q0 -193 174 -192q111 0 220.5 119.5t172 267t62.5 248.5 q0 70 -21.5 105.5t-54.5 35.5q-16 0 -46 -15.5t-46 -15.5q-23 0 -41 29t-18 61q0 20 8 37q-158 -86 -284 -298t-126 -382zM827 371q25 12 41 12q12 0 28.5 -19.5t39.5 -19.5q119 0 259 150.5t140 271.5q0 57 -55 57q-45 0 -131 -43q-199 -98 -322 -409z" />
<glyph unicode="&#x178;" horiz-adv-x="1193" d="M23 203q0 41 14 166l6 49q12 92 35.5 197.5t45.5 180.5l59 203l59 199q12 43 31.5 93t57.5 104.5t75 54.5q80 0 79 -92q0 -14 -26 -80q-174 -414 -266 -881q-29 -133 -29 -229q0 -121 49 -121q98 0 324 197q111 96 243.5 260t214.5 325q49 217 130 436.5t145 219.5 q92 0 92 -90q0 -55 -39 -125q-141 -260 -210 -529.5t-130 -701.5q-8 -57 -20.5 -112.5t-37 -131.5t-62.5 -138.5t-89 -117.5t-127 -87t-166 -32q-141 0 -223 35q-80 35 -80 78q0 25 20.5 50.5t43.5 25.5q10 0 93 -44t159 -44q80 0 140 32.5t98 83t64.5 126t38 142 t21.5 152.5q10 98 37 252l41 238q-154 -258 -309 -400q-256 -236 -422 -235q-53 0 -93 35t-54.5 68.5t-22.5 66.5q-10 43 -10 121zM620 1546q0 72 45 111t95 39q37 0 36 -41q0 -53 -37.5 -107.5t-95.5 -54.5q-43 0 -43 53zM915 1548q0 70 47 109t93 39q39 0 38 -43 q0 -51 -38.5 -105.5t-94.5 -54.5q-18 0 -31.5 14t-13.5 41z" />
<glyph unicode="&#x2c6;" horiz-adv-x="1024" d="M350 1122q0 20 106.5 94t233.5 136q20 10 33 10q27 0 43 -14q162 -133 223 -199q-4 -25 -25.5 -53.5t-37.5 -28.5l-232 160q-76 -25 -155.5 -71t-116.5 -81q-25 4 -48.5 17.5t-23.5 29.5z" />
<glyph unicode="&#x2dc;" d="M311 1147q0 4 4 16l-2 -2q10 23 54 70q63 70 133 69q45 0 122.5 -64.5t108.5 -64.5q53 0 85 27t46.5 53.5t24.5 26.5q20 0 48 -19.5t28 -41.5v-7q-96 -131 -213 -131q-53 0 -128 62.5t-120 62.5q-37 0 -70 -51t-37 -51q-84 0 -84 45z" />
<glyph unicode="&#x2013;" horiz-adv-x="1097" d="M94 510v10q4 63 33 72q20 -2 98 -2q362 0 760 55q31 -6 31 -63q-8 -70 -35 -80q-20 2 -104 2q-371 0 -752 -55q-31 12 -31 61z" />
<glyph unicode="&#x2014;" horiz-adv-x="1517" d="M90 506q0 10 2 14q4 63 31 72q20 -2 100 -2q571 4 1184 76q31 -6 31 -58q0 -31 -10.5 -57.5t-26.5 -28.5h-43q-14 0 -61.5 2t-77.5 2q-449 0 -1098 -77q-10 4 -20.5 21.5t-10.5 35.5z" />
<glyph unicode="&#x2018;" horiz-adv-x="374" d="M18 1430q0 45 58 45q27 0 50.5 -13.5t29.5 -31.5q6 -98 43 -226q10 -35 26.5 -74.5t27.5 -63.5t11 -28q0 -10 -16.5 -17t-36.5 -7q-25 0 -31 12l2 -2q-25 72 -82 205t-80 192v4z" />
<glyph unicode="&#x2019;" horiz-adv-x="374" d="M121 1038q0 2 8 23q33 66 63.5 170t36.5 199q14 45 80 45q57 0 58 -39q0 -4 -1 -8.5t-1 -6.5l-101 -252l-25 -57l-25 -56q-9 -22 -11 -32l2 2q-6 -12 -31 -12q-20 0 -36.5 7t-16.5 17zM365 1421l2 6q-2 -2 -2 -6z" />
<glyph unicode="&#x201a;" horiz-adv-x="374" d="M119 -291q2 2 2 4q29 53 64.5 167t41.5 218q6 18 30 30.5t50 12.5q20 0 37.5 -13t17.5 -34l-14 -39l-145 -364v2q-6 -12 -31 -12q-8 0 -25 4h5q-33 6 -33 24z" />
<glyph unicode="&#x201c;" horiz-adv-x="661" d="M16 1425v5q0 45 58 45q25 0 49 -13.5t31 -31.5q6 -98 43 -226q10 -35 26.5 -74.5t27.5 -63.5t11 -28q0 -8 -17.5 -16t-35.5 -8q-25 0 -31 12l2 -2l-162 397q0 2 -2 4zM313 1430q0 45 58 45q25 0 49 -13.5t31 -31.5q6 -119 41 -226q10 -37 27.5 -77l28.5 -63.5t11 -25.5 q0 -8 -17.5 -16t-35.5 -8q-27 0 -33 12l2 -2q-23 70 -79 201t-81 196v4z" />
<glyph unicode="&#x201d;" horiz-adv-x="661" d="M119 1038q0 2 8 23q82 170 100 369q14 45 80 45q57 0 58 -39q0 -4 -1.5 -8.5t-1.5 -6.5l-100 -252l-25 -57l-25 -56q-9 -22 -11 -32l2 2q-6 -12 -31 -12q-20 0 -36.5 7t-16.5 17zM362 1421l3 6q-3 -2 -3 -6zM414 1038q0 2 2 5.5t4 8.5t4 9q86 174 98 369q6 18 29.5 31.5 t50.5 13.5q57 0 57 -39q0 -4 -1 -8.5t-1 -6.5q-158 -393 -159 -397l2 2q-6 -12 -33 -12q-18 0 -35.5 8t-17.5 16zM657 1421l2 6q-2 -2 -2 -6z" />
<glyph unicode="&#x201e;" horiz-adv-x="673" d="M119 -295q0 6 8 23q84 172 100 370q6 18 30 30.5t50 12.5q57 0 58 -37q0 -6 -1.5 -10t-1.5 -6l-64 -159l-46 -110l-28 -67l-16 -41q-5 -12 -7 -20l2 2q-6 -12 -31 -12q-20 0 -36.5 8t-16.5 16zM362 88l3 6q-3 -2 -3 -6zM414 -295q0 2 10 23q86 168 98 370q6 18 31 30.5 t49 12.5q57 0 57 -37q0 -6 -1 -10t-1 -6q-160 -395 -159 -397l2 2q-6 -12 -33 -12q-18 0 -35.5 8t-17.5 16zM657 88l2 6q-2 -2 -2 -6z" />
<glyph unicode="&#x2022;" horiz-adv-x="1024" d="M350 680q0 102 59.5 162.5t133.5 60.5q59 0 90 -61.5t31 -128.5q0 -84 -50.5 -157t-132.5 -73q-57 0 -94 54.5t-37 142.5z" />
<glyph unicode="&#x2026;" horiz-adv-x="1073" d="M106 -27q0 57 33 100.5t68 43.5h8h-2q47 -10 47 -80q0 -20 -6 -45q-12 -43 -39 -72t-55 -29q-25 0 -39.5 22.5t-14.5 59.5zM471 -27q0 59 33 101.5t69 42.5h9h-2q45 -10 45 -78q0 -23 -7 -47q-10 -43 -37.5 -72t-54.5 -29q-25 0 -40 23.5t-15 58.5zM838 -27 q0 59 32.5 101.5t69.5 42.5h8h-2q45 -10 45 -80q0 -20 -6 -45q-10 -43 -37.5 -72t-54.5 -29q-25 0 -40 23.5t-15 58.5z" />
<glyph unicode="&#x2039;" horiz-adv-x="755" d="M115 504q0 16 8 33q348 311 471 401l-2 -2l4 2q18 0 37.5 -27.5t19.5 -40.5v-14h2q-68 -31 -200.5 -142.5t-218.5 -213.5q66 -84 196.5 -180.5t233.5 -151.5q2 -4 2 -14q0 -18 -19.5 -40t-36.5 -24l9 -4q-4 0 -9 4q-39 18 -192 143q-213 162 -285 199h2q-22 15 -22 72z M121 537h2q0 4 2 6z" />
<glyph unicode="&#x203a;" horiz-adv-x="755" d="M115 874q0 16 17.5 37t35.5 27q39 -20 227.5 -164.5t251.5 -177.5h-2q23 -14 23 -72q0 -6 -9 -35l-77 -67q-309 -270 -396 -334q2 0 2 2q-16 -2 -37.5 26.5t-21.5 41.5v14h-2q68 31 202 142.5t220 213.5q-68 84 -202 182.5t-230 149.5q-2 6 -2 14zM657 485l5 7z" />
<glyph unicode="&#x20ac;" horiz-adv-x="1335" d="M55 602q0 29 23 39q23 -4 72 -4q63 0 90 2l49 170l-172 -25q-37 8 -37 70q0 35 18 43q53 -6 107 -6q45 0 119 4q41 100 106.5 200.5t152.5 192.5t199.5 148.5t227.5 56.5q164 0 262 -104.5t98 -243.5q0 -104 -33.5 -153.5t-70.5 -49.5q-33 0 -54.5 21.5t-23.5 52.5 q0 35 16 92q23 59 23 100q0 70 -57.5 118t-155.5 48q-162 0 -317.5 -147.5t-225.5 -325.5q236 23 385 45q39 -12 39 -72q0 -33 -16 -40q-227 0 -437 -13q-23 -76 -34 -127l-13 -51l158 12q43 4 287 33q35 -2 34 -67q0 -39 -18 -46q-55 6 -127 7q-152 0 -348 -23 q-35 -127 -35 -244q0 -164 52.5 -226t142.5 -62q84 0 180 46t148.5 88t95.5 85q12 12 30 12q33 0 64 -30.5t31 -65.5q0 -16 -46.5 -56t-117 -83t-169 -76t-188.5 -33q-172 0 -262 134t-90 360q0 78 8 135l-54 -5q-32 -3 -52.5 -6.5t-22.5 -3.5q-14 2 -27.5 25.5t-13.5 48.5z " />
<glyph unicode="&#x2122;" horiz-adv-x="1495" d="M215 1300.5q0 69.5 238 124.5q12 37 34 37q14 0 33 -14l21 2q33 6 118 6q84 0 136 -35q29 47 57 47q68 0 68 -34v-263q0 -295 69 -294q106 0 318 485l20 47q16 37 66 41q18 0 42.5 -12.5t24.5 -26.5l-2 -6l2 2q-80 -143 -94 -438q-4 -63 -12 -375q-16 -16 -66 -16 q-29 0 -37 18q8 72 27.5 292t30.5 304l-70 -121q-53 -92 -79.5 -133t-66.5 -97.5t-70 -79t-58 -22.5q-41 0 -70 61.5t-39 159t-13 156t-3 109.5q-80 -305 -84 -529q-12 -20 -35 -20q-16 0 -42 9t-32 20q33 231 107 569l14 47l10 47q-55 20 -137 21q-51 0 -98 -11l-39 -114v2 q-33 -100 -45.5 -145.5t-25.5 -126.5t-13 -171q0 -72 33 -137q0 -12 -33 -35.5t-55 -23.5q-27 0 -39.5 49t-12.5 96q0 82 17.5 173t50.5 214t47 184q-61 -25 -97 -50t-55 -45l-22 -23q-39 6 -39 75.5z" />
<glyph unicode="&#xe000;" horiz-adv-x="950" d="M0 950h950v-950h-950v950z" />
<glyph unicode="&#xfb01;" horiz-adv-x="985" d="M45 -301q0 10 6 27q14 45 79 387t103 505q-76 -37 -98 -36q-31 0 -57.5 16t-26.5 39q0 35 43 55v-2q90 31 166 43l14 72q59 295 132 483q43 109 142 181.5t206 72.5q98 0 145 -55t47 -109q0 -39 -18.5 -60.5t-40.5 -21.5q-41 0 -59.5 20.5t-18.5 45t-15.5 45t-54.5 20.5 q-59 0 -103 -22.5t-72.5 -53t-56.5 -103t-44.5 -132t-46.5 -182.5l-45 -184q338 47 383 55q8 0 27.5 7t29.5 7q16 0 31 -6q41 -18 41 -43q0 -12 -11 -37q-70 -147 -98 -241q-57 -186 -57 -371q0 -82 74 -90q35 0 63.5 24.5t40.5 24.5q20 0 40.5 -13.5t20.5 -33.5l-2 -8 q-4 -8 -15 -23.5t-27.5 -29t-48.5 -23.5t-70 -10q-190 0 -191 217q0 66 12 112q33 207 115 469q-260 -55 -283 -61l-104 -25q-68 -276 -102.5 -551.5t-53 -366.5t-71.5 -91q-27 0 -48.5 15t-21.5 42zM838 1022q0 70 46 108.5t93 38.5q39 0 39 -43q0 -16 -2 -24 q-8 -51 -49 -93t-82 -42q-45 0 -45 55z" />
<glyph unicode="&#xfb02;" horiz-adv-x="1048" d="M45 -299q0 14 4 25q16 47 80 391t102 501q-76 -37 -98 -36q-31 0 -57.5 16t-26.5 39q0 35 45 55v-2q92 31 164 43q51 221 127 422q47 111 151.5 182.5t245.5 71.5q117 0 176 -117q96 256 136 256q70 0 69 -63l-22 -64l-8 -18h2q-211 -489 -312 -997q-27 -141 -26 -248 q0 -176 86 -176q31 0 49 8t24.5 19t13.5 19.5t17 8.5q18 0 34.5 -13.5t16.5 -29.5q0 -53 -50 -84t-105 -31q-193 0 -193 314q0 205 113 638q35 131 90 312v-2q12 33 12 63q0 90 -112 90q-186 0 -272.5 -127t-151.5 -417l96 12q45 6 100.5 16t61.5 10q20 -2 34.5 -20 t14.5 -37q0 -20 -25 -20q-63 0 -309 -60q-74 -279 -107.5 -552t-50 -365t-71.5 -92q-27 0 -47.5 15t-20.5 44z" />
<glyph unicode="&#xfb03;" horiz-adv-x="1640" d="M1245 156q0 61 10 112q43 246 154 580q20 55 59 55q12 0 31 -6q45 -18 45 -53q0 -18 -8 -35v2q-41 -80 -92 -238l-8 -24q-74 -219 -76 -428q0 -84 74 -90q35 0 63.5 24.5t40.5 24.5q20 0 41 -13.5t21 -33.5l-3 -8q-4 -8 -15 -23.5t-27.5 -29t-48 -23.5t-70.5 -10 q-191 0 -191 217zM1497 1096q0 70 46 108.5t93 38.5q39 0 39 -43q0 -16 -2 -24q-8 -51 -49 -93.5t-82 -42.5q-45 1 -45 56zM622 -301q0 16 4 27q16 47 80 391t102 501q-76 -37 -98 -36q-31 0 -57.5 16t-26.5 39q0 35 45 55v-2q84 29 164 43l14 70q59 299 134 483 q43 109 141 181.5t205 72.5q98 0 145 -56.5t47 -109.5q0 -39 -18.5 -59.5t-40.5 -20.5q-43 0 -60.5 20.5t-16.5 45t-14.5 45t-54.5 20.5q-49 0 -87 -11t-68.5 -46t-50 -62.5t-42 -98t-33.5 -112.5l-38 -145l-51 -200l94 12q47 6 103.5 16t60.5 10q18 -2 33.5 -20t15.5 -37 q0 -20 -27 -20q-66 0 -307 -60q-74 -279 -107.5 -552t-50 -365t-71.5 -92q-27 0 -47.5 15t-20.5 42zM47 -301q0 16 4 27q16 47 80 391t102 501q-76 -37 -98 -36q-31 0 -57.5 16t-26.5 39q0 35 45 55v-2q84 29 164 43l14 70q59 299 134 483q43 109 141 181.5t205 72.5 q98 0 145 -56.5t47 -109.5q0 -39 -18.5 -59.5t-40.5 -20.5q-43 0 -60.5 20.5t-16.5 45t-14.5 45t-54.5 20.5q-49 0 -87 -11t-68.5 -46t-50 -62.5t-42 -98t-33.5 -112.5l-38 -145l-51 -200l94 12q47 6 103.5 16t60.5 10q18 -2 33.5 -20t15.5 -37q0 -20 -27 -20 q-66 0 -307 -60q-74 -279 -107.5 -552t-50 -365t-71.5 -92q-27 0 -47.5 15t-20.5 42z" />
<glyph unicode="&#xfb04;" horiz-adv-x="1626" d="M1253 193q0 242 113 638q51 190 180 562q37 102 80 102q76 0 76 -63q-6 -51 -19 -86q-207 -469 -296 -940q-27 -141 -27 -248q0 -176 86 -176q51 0 72.5 27.5t31.5 27.5q18 0 35 -13.5t17 -29.5q0 -53 -50.5 -84t-105.5 -31q-193 1 -193 314zM622 -301q0 16 4 27 q16 47 80 391t102 501q-76 -37 -98 -36q-31 0 -57.5 16t-26.5 39q0 35 45 55v-2q84 29 164 43l14 70q59 299 134 483q43 109 141 181.5t205 72.5q98 0 145 -56.5t47 -109.5q0 -39 -18.5 -59.5t-40.5 -20.5q-43 0 -60.5 20.5t-16.5 45t-14.5 45t-54.5 20.5q-49 0 -87 -11 t-68.5 -46t-50 -62.5t-42 -98t-33.5 -112.5l-38 -145l-51 -200l94 12q47 6 103.5 16t60.5 10q18 -2 33.5 -20t15.5 -37q0 -20 -27 -20q-66 0 -307 -60q-74 -279 -107.5 -552t-50 -365t-71.5 -92q-27 0 -47.5 15t-20.5 42zM47 -301q0 16 4 27q16 47 80 391t102 501 q-76 -37 -98 -36q-31 0 -57.5 16t-26.5 39q0 35 45 55v-2q84 29 164 43l14 70q59 299 134 483q43 109 141 181.5t205 72.5q98 0 145 -56.5t47 -109.5q0 -39 -18.5 -59.5t-40.5 -20.5q-43 0 -60.5 20.5t-16.5 45t-14.5 45t-54.5 20.5q-49 0 -87 -11t-68.5 -46t-50 -62.5 t-42 -98t-33.5 -112.5l-38 -145l-51 -200l94 12q47 6 103.5 16t60.5 10q18 -2 33.5 -20t15.5 -37q0 -20 -27 -20q-66 0 -307 -60q-74 -279 -107.5 -552t-50 -365t-71.5 -92q-27 0 -47.5 15t-20.5 42z" />
</font>
</defs>
</svg>
